<?xml version="1.0" encoding="UTF-8"?>
<svg width="24px" height="24px" viewBox="0 0 24 24" version="1.1" xmlns="http://www.w3.org/2000/svg" xmlns:xlink="http://www.w3.org/1999/xlink">
    <!-- Generator: Sketch 51.3 (57544) - http://www.bohemiancoding.com/sketch -->
    <title>icons/dark/behance</title>
    <desc>Created with Sketch.</desc>
    <defs>
        <polygon id="path-1" points="13.2190015 3.65306951 23.6948756 3.65306951 23.6948756 15.0199363 13.2190015 15.0199363"></polygon>
        <polygon id="path-3" points="0 15.0264981 23.5107637 15.0264981 23.5107637 -0.0274360127 0 -0.0274360127"></polygon>
    </defs>
    <g id="lg-1440-px" stroke="none" stroke-width="1" fill="none" fill-rule="evenodd">
        <g id="Elements" transform="translate(-1044.000000, -768.000000)">
            <rect id="Rectangle-4-Copy-69" fill-rule="nonzero" x="1040" y="765" width="32" height="32"></rect>
            <g id="icons/dark/behance" transform="translate(1044.000000, 769.000000)">
                <rect id="Rectangle" fill-rule="nonzero" x="0" y="0" width="24" height="24"></rect>
                <g id="behance" stroke-width="1" fill-rule="evenodd" transform="translate(0.000000, 3.750000)">
                    <path d="M6.52269738,11.9734869 C6.83397579,11.9734869 7.12947259,11.9455396 7.40755522,11.8830692 C7.68999139,11.8211469 7.93977597,11.7225094 8.15092286,11.5767453 C8.36206976,11.4370089 8.5367557,11.2452139 8.66409687,11.0013603 C8.79143803,10.7591506 8.85238765,10.4451548 8.85238765,10.0659488 C8.85238765,9.32178423 8.64450593,8.79407402 8.23146343,8.47295442 C7.81733255,8.15676669 7.26497665,7.99949481 6.58582378,7.99949481 L3.15577526,7.99949481 L3.15577526,11.9734869 L6.52269738,11.9734869 Z M6.34855562,5.83056752 C6.90744184,5.83056752 7.37055009,5.69685902 7.73679198,5.4261541 C8.09976872,5.15928507 8.27608725,4.71815661 8.27608725,4.11372842 C8.27608725,3.7778132 8.21731441,3.50053246 8.09976872,3.28517408 C7.97841368,3.06926773 7.81733255,2.90103614 7.61380437,2.78321922 C7.41190876,2.65992244 7.18389189,2.57553264 6.91941409,2.52950185 C6.65928983,2.47853918 6.38664914,2.45826371 6.10747812,2.45826371 L3.15577526,2.45826371 L3.15577526,5.83056752 L6.34855562,5.83056752 Z M6.75670038,0 C7.44183938,0 8.06058683,0.059730438 8.62600336,0.183027213 C9.18815473,0.30358406 9.66813297,0.50359883 10.0735568,0.778687637 C10.4729944,1.05322846 10.7853612,1.4187349 11.0090245,1.87959084 C11.2277901,2.332775 11.3371729,2.90103614 11.3371729,3.57231858 C11.3371729,4.29894757 11.1733708,4.9061157 10.8457666,5.39108301 C10.5159857,5.87550234 10.0311097,6.27279196 9.38352003,6.58130789 C10.2656569,6.83612123 10.9186885,7.28601746 11.3518661,7.92496875 C11.7872205,8.56885192 12,9.33877178 12,10.2413042 C12,10.973413 11.8612308,11.6035965 11.5831482,12.1334987 C11.3023446,12.6699767 10.9203211,13.1045293 10.4495941,13.4398965 C9.97505782,13.7785517 9.42977643,14.0267892 8.81919188,14.1884449 C8.21513764,14.3501008 7.58822729,14.4312026 6.94607954,14.4312026 L0,14.4312026 L0,0 L6.75670038,0 Z" id="Fill-1" fill="#000000" fill-rule="nonzero"></path>
                    <mask id="mask-2" fill="white">
                        <use xlink:href="#path-1"></use>
                    </mask>
                    <g id="path-1"></g>
                    <path d="M20.1325271,6.48956955 C19.7905075,6.09994664 19.2103938,5.88901869 18.5032599,5.88901869 C18.0430181,5.88901869 17.6625075,5.96875285 17.3573292,6.1310486 C17.0592992,6.29108239 16.8151566,6.49070053 16.6282005,6.72537906 C16.4423442,6.96401602 16.3158739,7.21565926 16.2421912,7.48483272 C16.1679587,7.74722028 16.123969,7.98529176 16.1107721,8.1956542 L20.7962212,8.1956542 C20.7274873,7.44072446 20.4761964,6.88201991 20.1325271,6.48956955 M16.8234046,12.1552182 C17.2550532,12.5883839 17.8780569,12.8060977 18.6858171,12.8060977 C19.2670305,12.8060977 19.7690625,12.6551118 20.1897137,12.3542709 C20.6070656,12.05343 20.8611059,11.7322314 20.9595328,11.3980265 L23.495537,11.3980265 C23.0880827,12.6963926 22.469478,13.6226659 21.6259762,14.180805 C20.7918222,14.7406405 19.7751111,15.0199928 18.5895897,15.0199928 C17.7636837,15.0199928 17.0208083,14.8825786 16.3532651,14.6117087 C15.6862718,14.3374458 15.1287028,13.9529124 14.6602129,13.4524533 C14.2032703,12.9486013 13.8480537,12.3542709 13.5951132,11.6553247 C13.344922,10.9603369 13.2190015,10.1907045 13.2190015,9.35660607 C13.2190015,8.55078219 13.3498708,7.79754892 13.6061106,7.1014302 C13.8672992,6.40248402 14.2291142,5.79967121 14.7042026,5.29412275 C15.1803907,4.78574686 15.745108,4.38481413 16.4033034,4.09189009 C17.0609488,3.80009702 17.7862284,3.65306951 18.5895897,3.65306951 C19.4770811,3.65306951 20.2540486,3.82837154 20.9199421,4.18632699 C21.5836362,4.53862753 22.1274584,5.01703245 22.554708,5.61532133 C22.9825075,6.21247923 23.2860362,6.89559168 23.4762915,7.66183122 C23.6648972,8.42637429 23.7308817,9.22541229 23.6764444,10.0623381 L16.1107721,10.0623381 C16.1107721,10.9145322 16.3906563,11.7214871 16.8234046,12.1552182" id="Fill-3" fill="#000000" fill-rule="nonzero" mask="url(#mask-2)"></path>
                    <mask id="mask-4" fill="white">
                        <use xlink:href="#path-3"></use>
                    </mask>
                    <g id="path-3"></g>
                    <polygon id="Fill-6" fill="#000000" fill-rule="nonzero" mask="url(#mask-4)" points="15.3478379 2.42235624 21.2098785 2.42235624 21.2098785 0.964039688 15.3478379 0.964039688"></polygon>
                </g>
            </g>
        </g>
    </g>
</svg>