<?xml version="1.0" encoding="UTF-8"?>
<svg width="24px" height="24px" viewBox="0 0 24 24" version="1.1" xmlns="http://www.w3.org/2000/svg" xmlns:xlink="http://www.w3.org/1999/xlink">
    <!-- Generator: Sketch 51.3 (57544) - http://www.bohemiancoding.com/sketch -->
    <title>icons/dark/bell</title>
    <desc>Created with Sketch.</desc>
    <defs></defs>
    <g id="lg-1440-px" stroke="none" stroke-width="1" fill="none" fill-rule="evenodd">
        <g id="Elements" transform="translate(-180.000000, -641.000000)">
            <rect id="Rectangle-4-Copy-36" fill-rule="nonzero" x="176" y="637" width="32" height="32"></rect>
            <g id="icons/dark/bell" transform="translate(180.000000, 641.000000)">
                <rect id="Rectangle" fill-rule="nonzero" x="0" y="0" width="24" height="24"></rect>
                <path d="M4.24957581,18.8175 L6.47557581,14.6385 C6.53332581,14.52975 6.56332581,14.409 6.56332581,14.286 L6.56332581,7.02075 C6.56332581,3.9765 9.04057581,1.5 12.0840758,1.5 C15.1283258,1.5 17.6055758,3.9765 17.6055758,7.02075 L17.6055758,14.286 C17.6055758,14.409 17.6355758,14.52975 17.6933258,14.6385 L19.9193258,18.8175 L4.24957581,18.8175 Z M12.0840758,22.5 C10.8773258,22.5 9.89557581,21.522 9.88807581,20.3175 L14.2800758,20.3175 C14.2718258,21.522 13.2908258,22.5 12.0840758,22.5 Z M21.8295758,19.215 L19.1055758,14.0985 L19.1055758,7.02075 C19.1055758,3.14925 15.9555758,0 12.0840758,0 C8.21257581,0 5.06332581,3.14925 5.06332581,7.02075 L5.06332581,14.0985 L2.33782581,19.215 C2.21407581,19.4475 2.22157581,19.728 2.35732581,19.95375 C2.49232581,20.1795 2.73607581,20.3175 3.00007581,20.3175 L8.38807581,20.3175 C8.39632581,22.34925 10.0500758,24 12.0840758,24 C14.1173258,24 15.7718258,22.34925 15.7800758,20.3175 L21.1680758,20.3175 C21.4313258,20.3175 21.6750758,20.1795 21.8108258,19.95375 C21.9465758,19.728 21.9533258,19.4475 21.8295758,19.215 Z" id="Fill-1" fill="#000000" fill-rule="evenodd"></path>
            </g>
        </g>
    </g>
</svg>