<?xml version="1.0" encoding="UTF-8"?>
<svg width="24px" height="24px" viewBox="0 0 24 24" version="1.1" xmlns="http://www.w3.org/2000/svg" xmlns:xlink="http://www.w3.org/1999/xlink">
    <!-- Generator: Sketch 51.3 (57544) - http://www.bohemiancoding.com/sketch -->
    <title>icons/dark/calendar</title>
    <desc>Created with Sketch.</desc>
    <defs></defs>
    <g id="lg-1440-px" stroke="none" stroke-width="1" fill="none" fill-rule="evenodd">
        <g id="Elements" transform="translate(-756.000000, -577.000000)" fill-rule="nonzero">
            <rect id="Rectangle-4-Copy-30" x="752" y="573" width="32" height="32"></rect>
            <g id="icons/dark/calendar" transform="translate(756.000000, 577.000000)">
                <rect id="Rectangle" x="0" y="0" width="24" height="24"></rect>
                <path d="M1.5,22.382775 L22.53975,22.382775 L22.53975,3.914025 L1.5,3.914025 L1.5,22.382775 Z M22.53975,23.882775 L1.5,23.882775 C0.67275,23.882775 0,23.210025 0,22.382775 L0,3.914025 C0,3.086775 0.67275,2.414025 1.5,2.414025 L22.53975,2.414025 C23.367,2.414025 24.03975,3.086775 24.03975,3.914025 L24.03975,22.382775 C24.03975,23.210025 23.367,23.882775 22.53975,23.882775 Z" id="Fill-1" fill="#000000"></path>
                <path d="M23.289525,11.5704 L0.749775,11.5704 C0.335775,11.5704 -0.000225,11.2344 -0.000225,10.8204 C-0.000225,10.4064 0.335775,10.0704 0.749775,10.0704 L23.289525,10.0704 C23.703525,10.0704 24.039525,10.4064 24.039525,10.8204 C24.039525,11.2344 23.703525,11.5704 23.289525,11.5704" id="Fill-3" fill="#000000"></path>
                <path d="M18.897225,7.031175 C18.483225,7.031175 18.147225,6.695175 18.147225,6.281175 L18.147225,0.749925 C18.147225,0.335925 18.483225,-7.5e-05 18.897225,-7.5e-05 C19.311225,-7.5e-05 19.647225,0.335925 19.647225,0.749925 L19.647225,6.281175 C19.647225,6.695175 19.311225,7.031175 18.897225,7.031175" id="Fill-4" fill="#000000"></path>
                <path d="M5.05335,7.031175 C4.63935,7.031175 4.30335,6.695175 4.30335,6.281175 L4.30335,0.749925 C4.30335,0.335925 4.63935,-7.5e-05 5.05335,-7.5e-05 C5.46735,-7.5e-05 5.80335,0.335925 5.80335,0.749925 L5.80335,6.281175 C5.80335,6.695175 5.46735,7.031175 5.05335,7.031175" id="Fill-5" fill="#000000"></path>
            </g>
        </g>
    </g>
</svg>