<?xml version="1.0" encoding="UTF-8"?>
<svg width="32px" height="32px" viewBox="0 0 32 32" version="1.1" xmlns="http://www.w3.org/2000/svg" xmlns:xlink="http://www.w3.org/1999/xlink">
    <title>icons/check</title>
    <g id="icons/check" stroke="none" stroke-width="1" fill="none" fill-rule="evenodd">
        <rect id="Rectangle" fill-rule="nonzero" x="0" y="0" width="32" height="32"></rect>
        <g id="check" fill="#000000" fill-rule="nonzero">
            <path d="M16,30 C8.28,30 2,23.72 2,16 C2,8.28 8.28,2 16,2 C23.72,2 30,8.28 30,16 C30,23.72 23.72,30 16,30 M16,0 C7.178,0 0,7.178 0,16 C0,24.822 7.178,32 16,32 C24.822,32 32,24.822 32,16 C32,7.178 24.822,0 16,0" id="Fill-1"></path>
            <polygon id="Fill-3" points="14.7031 18.2856 10.6051 14.1876 9.1911 15.6016 14.7031 21.1136 22.8091 13.0076 21.3951 11.5936"></polygon>
        </g>
    </g>
</svg>