<?xml version="1.0" encoding="UTF-8"?>
<svg width="32px" height="32px" viewBox="0 0 32 32" version="1.1" xmlns="http://www.w3.org/2000/svg" xmlns:xlink="http://www.w3.org/1999/xlink">
    <title>icons/credit-card</title>
    <g id="icons/credit-card" stroke="none" stroke-width="1" fill="none" fill-rule="evenodd">
        <rect id="Rectangle" fill-rule="nonzero" x="0" y="0" width="32" height="32"></rect>
        <g id="credit-card" transform="translate(0.000000, 5.000000)" fill="#000000" fill-rule="nonzero">
            <polygon id="Fill-4" points="5.478 17.8237 12.31 17.8237 12.31 15.8237 5.478 15.8237"></polygon>
            <path d="M29.1338,21.7817 L2.8668,21.7817 C2.3888,21.7817 1.9998,21.3927 1.9998,20.9157 L1.9998,11.5307 L29.9998,11.5307 L29.9998,20.9157 C29.9998,21.3927 29.6118,21.7817 29.1338,21.7817 M2.8668,1.9997 L29.1338,1.9997 C29.6118,1.9997 29.9998,2.3887 29.9998,2.8667 L29.9998,6.5307 L1.9998,6.5307 L1.9998,2.8667 C1.9998,2.3887 2.3888,1.9997 2.8668,1.9997 M29.1338,-0.0003 L2.8668,-0.0003 C1.2858,-0.0003 -0.0002,1.2857 -0.0002,2.8667 L-0.0002,20.9157 C-0.0002,22.4957 1.2858,23.7817 2.8668,23.7817 L29.1338,23.7817 C30.7138,23.7817 31.9998,22.4957 31.9998,20.9157 L31.9998,2.8667 C31.9998,1.2857 30.7138,-0.0003 29.1338,-0.0003" id="Fill-1"></path>
        </g>
    </g>
</svg>