<?xml version="1.0" encoding="UTF-8"?>
<svg width="24px" height="24px" viewBox="0 0 24 24" version="1.1" xmlns="http://www.w3.org/2000/svg" xmlns:xlink="http://www.w3.org/1999/xlink">
    <!-- Generator: Sketch 51.3 (57544) - http://www.bohemiancoding.com/sketch -->
    <title>icons/dark/delivery</title>
    <desc>Created with Sketch.</desc>
    <defs></defs>
    <g id="lg-1440-px" stroke="none" stroke-width="1" fill="none" fill-rule="evenodd">
        <g id="Elements" transform="translate(-372.000000, -641.000000)" fill-rule="nonzero">
            <rect id="Rectangle-4-Copy-38" x="368" y="637" width="32" height="32"></rect>
            <g id="icons/dark/delivery" transform="translate(372.000000, 641.000000)">
                <rect id="Rectangle" x="0" y="0" width="24" height="24"></rect>
                <path d="M21.785175,17.3646 C21.452925,16.13835 20.341425,15.2286 19.010925,15.2286 C17.679675,15.2286 16.568925,16.13835 16.236675,17.3646 L15.521175,17.3646 L15.521175,9.36435 L20.435175,9.36435 L22.090425,12.15735 L18.318675,12.15735 C17.903925,12.15735 17.568675,12.49335 17.568675,12.90735 C17.568675,13.32135 17.903925,13.65735 18.318675,13.65735 L22.499925,13.65735 L22.499925,17.3646 L21.785175,17.3646 Z M19.010925,19.49985 C18.293925,19.49985 17.708925,18.95085 17.639175,18.2526 C17.647425,18.2061 17.666925,18.16335 17.666925,18.1146 C17.666925,18.06585 17.647425,18.0231 17.639175,17.9766 C17.708925,17.2776 18.293925,16.7286 19.010925,16.7286 C19.774425,16.7286 20.396175,17.35035 20.396175,18.1146 C20.396175,18.87885 19.774425,19.49985 19.010925,19.49985 Z M4.652925,19.49985 C3.889425,19.49985 3.267675,18.87885 3.267675,18.1146 C3.267675,17.35035 3.889425,16.7286 4.652925,16.7286 C5.368425,16.7286 5.953425,17.27685 6.024675,17.97435 C6.015675,18.0216 5.996175,18.0651 5.996175,18.1146 C5.996175,18.1641 6.015675,18.2076 6.024675,18.25485 C5.953425,18.95235 5.368425,19.49985 4.652925,19.49985 Z M1.499925,4.49985 L14.021175,4.49985 L14.021175,8.61435 L14.021175,17.3646 L7.427175,17.3646 C7.094925,16.13835 5.983425,15.2286 4.652925,15.2286 C3.323175,15.2286 2.210925,16.13835 1.878675,17.3646 L1.499925,17.3646 L1.499925,4.49985 Z M23.894925,12.2601 L21.508425,8.23185 C21.373425,8.0046 21.128175,7.86435 20.863425,7.86435 L15.521175,7.86435 L15.521175,3.74985 C15.521175,3.33585 15.185925,2.99985 14.771175,2.99985 L0.749925,2.99985 C0.335175,2.99985 -7.5e-05,3.33585 -7.5e-05,3.74985 L-7.5e-05,18.1146 C-7.5e-05,18.5286 0.335175,18.8646 0.749925,18.8646 L1.878675,18.8646 C2.210925,20.09085 3.323175,20.99985 4.652925,20.99985 C5.983425,20.99985 7.094925,20.09085 7.427175,18.8646 L14.771175,18.8646 L16.236675,18.8646 C16.568925,20.09085 17.679675,20.99985 19.010925,20.99985 C20.341425,20.99985 21.452925,20.09085 21.785175,18.8646 L23.249925,18.8646 C23.664675,18.8646 23.999925,18.5286 23.999925,18.1146 L23.999925,12.6426 C23.999925,12.50835 23.963925,12.37635 23.894925,12.2601 Z" id="Fill-1" fill="#000000"></path>
            </g>
        </g>
    </g>
</svg>