<?xml version="1.0" encoding="UTF-8"?>
<svg width="24px" height="24px" viewBox="0 0 24 24" version="1.1" xmlns="http://www.w3.org/2000/svg" xmlns:xlink="http://www.w3.org/1999/xlink">
    <!-- Generator: Sketch 51.3 (57544) - http://www.bohemiancoding.com/sketch -->
    <title>icons/dark/edit</title>
    <desc>Created with Sketch.</desc>
    <defs></defs>
    <g id="lg-1440-px" stroke="none" stroke-width="1" fill="none" fill-rule="evenodd">
        <g id="Elements" transform="translate(-660.000000, -641.000000)" fill-rule="nonzero">
            <rect id="Rectangle-4-Copy-41" x="656" y="637" width="32" height="32"></rect>
            <g id="icons/dark/edit" transform="translate(660.000000, 641.000000)">
                <rect id="Rectangle" x="0" y="0" width="24" height="24"></rect>
                <path d="M15.659175,19.253175 L19.220175,15.692925 L21.614175,21.843675 L15.659175,19.253175 Z M5.901675,1.810425 L18.441675,14.350425 L14.350425,18.440925 L1.810425,5.901675 L5.901675,1.810425 Z M23.665425,22.977675 L20.201175,14.078175 C20.200425,14.076675 20.198925,14.075925 20.198925,14.074425 C20.162175,13.982175 20.107425,13.894425 20.032425,13.820175 L6.431925,0.219675 C6.139425,-0.073575 5.664675,-0.073575 5.371425,0.219675 L0.219675,5.371425 C0.079425,5.512425 -7.5e-05,5.702925 -7.5e-05,5.901675 C-7.5e-05,6.100425 0.079425,6.291675 0.219675,6.431925 L13.820175,20.032425 C13.886925,20.098425 13.964925,20.152425 14.051175,20.189925 L14.067675,20.196675 L14.068425,20.196675 L22.667925,23.937675 C22.763925,23.979675 22.865175,23.999925 22.966425,23.999925 C23.156175,23.999925 23.343675,23.927925 23.486925,23.790675 C23.705175,23.580675 23.774925,23.260425 23.665425,22.977675 Z" id="edit" fill="#000000"></path>
            </g>
        </g>
    </g>
</svg>