<?xml version="1.0" encoding="UTF-8"?>
<svg width="24px" height="24px" viewBox="0 0 24 24" version="1.1" xmlns="http://www.w3.org/2000/svg" xmlns:xlink="http://www.w3.org/1999/xlink">
    <!-- Generator: Sketch 51.3 (57544) - http://www.bohemiancoding.com/sketch -->
    <title>icons/dark/facebook</title>
    <desc>Created with Sketch.</desc>
    <defs></defs>
    <g id="lg-1440-px" stroke="none" stroke-width="1" fill="none" fill-rule="evenodd">
        <g id="Elements" transform="translate(-180.000000, -769.000000)" fill-rule="nonzero">
            <rect id="Rectangle-4-Copy-60" x="176" y="765" width="32" height="32"></rect>
            <g id="icons/dark/facebook" transform="translate(180.000000, 769.000000)">
                <rect id="Rectangle" x="0" y="0" width="24" height="24"></rect>
                <path d="M22.666427,23.9905618 L22.666427,23.9904719 L1.32404494,23.9904719 C0.592629213,23.9904719 0,23.3976629 0,22.666427 L0,1.32404494 C0,0.592719101 0.592629213,0 1.32404494,0 L22.666427,0 C23.3974831,0 23.990382,0.592629213 23.990382,1.32404494 L23.990382,22.6665169 C23.990382,23.3976629 23.397573,23.9905618 22.666427,23.9905618 Z M16.5733034,23.9626966 L16.5733034,14.6722697 L19.6916854,14.6722697 L20.1585618,11.0515955 L16.5732135,11.0515955 L16.5732135,8.73995506 C16.5732135,7.69168539 16.8642697,6.97734831 18.3675506,6.97734831 L20.284764,6.97644944 L20.284764,3.7381573 C19.9531685,3.69411236 18.8150112,3.59550562 17.4910562,3.59550562 C14.7267416,3.59550562 12.8342472,5.28278652 12.8342472,8.38148315 L12.8342472,11.0515955 L9.70786517,11.0515955 L9.70786517,14.6722697 L12.8342472,14.6722697 L12.8342472,23.9626067 L16.5733034,23.9626067 L16.5733034,23.9626966 Z" id="facebook" fill="#000000"></path>
            </g>
        </g>
    </g>
</svg>