<?xml version="1.0" encoding="UTF-8"?>
<svg width="24px" height="24px" viewBox="0 0 24 24" version="1.1" xmlns="http://www.w3.org/2000/svg" xmlns:xlink="http://www.w3.org/1999/xlink">
    <!-- Generator: Sketch 51.3 (57544) - http://www.bohemiancoding.com/sketch -->
    <title>icons/dark/full-screen</title>
    <desc>Created with Sketch.</desc>
    <defs></defs>
    <g id="lg-1440-px" stroke="none" stroke-width="1" fill="none" fill-rule="evenodd">
        <g id="Elements" transform="translate(-1140.000000, -641.000000)">
            <rect id="Rectangle-4-Copy-46" fill-rule="nonzero" x="1136" y="637" width="32" height="32"></rect>
            <g id="icons/dark/full-screen" transform="translate(1140.000000, 641.000000)">
                <rect id="Rectangle" fill-rule="nonzero" x="0" y="0" width="24" height="24"></rect>
                <g id="full-screen" stroke-width="1" fill-rule="evenodd" fill="#000000">
                    <polygon id="Fill-1" fill-rule="nonzero" points="0 -0.0003 0 8.3082 1.5 8.3082 1.5 1.50045 8.3085 1.50045 8.3085 -0.0003"></polygon>
                    <polygon id="Fill-2" fill-rule="nonzero" points="22.499775 15.691425 22.499775 22.499925 15.692025 22.499925 15.692025 23.999925 24.000525 23.999925 24.000525 15.691425"></polygon>
                    <polygon id="Fill-3" fill-rule="nonzero" points="15.691725 -0.0003 15.691725 1.50045 22.499475 1.50045 22.499475 8.3082 24.000225 8.3082 24.000225 -0.0003"></polygon>
                    <polygon id="Fill-4" fill-rule="nonzero" points="0 15.691425 0 23.999925 8.3085 23.999925 8.3085 22.499925 1.5 22.499925 1.5 15.691425"></polygon>
                </g>
            </g>
        </g>
    </g>
</svg>