<?xml version="1.0" encoding="UTF-8"?>
<svg width="24px" height="24px" viewBox="0 0 24 24" version="1.1" xmlns="http://www.w3.org/2000/svg" xmlns:xlink="http://www.w3.org/1999/xlink">
    <!-- Generator: Sketch 51.3 (57544) - http://www.bohemiancoding.com/sketch -->
    <title>icons/dark/github</title>
    <desc>Created with Sketch.</desc>
    <defs></defs>
    <g id="lg-1440-px" stroke="none" stroke-width="1" fill="none" fill-rule="evenodd">
        <g id="Elements" transform="translate(-1236.000000, -769.000000)">
            <rect id="Rectangle-4-Copy-71" fill-rule="nonzero" x="1232" y="765" width="32" height="32"></rect>
            <g id="icons/dark/github" transform="translate(1236.000000, 769.000000)">
                <rect id="Rectangle" fill-rule="nonzero" x="0" y="0" width="24" height="24"></rect>
                <g id="github-1" stroke-width="1" fill-rule="evenodd" fill="#000000">
                    <path d="M12,0 C5.36987234,0 0,5.36987234 0,12 C0,17.6394894 3.86961702,22.32 9.09038298,23.6394894 C9.03012766,23.4893617 9.00051064,23.2789787 9.00051064,23.069617 L9.00051064,21.0291064 L7.50025532,21.0291064 C6.69038298,21.0291064 5.93974468,20.669617 5.60987234,20.0088511 C5.21974468,19.2888511 5.15948936,18.1787234 4.16987234,17.4883404 C3.86961702,17.2483404 4.10961702,17.0083404 4.43948936,17.0379574 C5.06961702,17.2177021 5.57923404,17.6384681 6.05923404,18.2675745 C6.53923404,18.8977021 6.74961702,19.0478298 7.6493617,19.0478298 C8.06910638,19.0478298 8.72885106,19.0182128 9.3293617,18.9273191 C9.65923404,18.0868085 10.2291064,17.3371915 10.9194894,16.9777021 C6.89974468,16.4977021 4.97974468,14.5174468 4.97974468,11.8171915 C4.97974468,10.6468085 5.4893617,9.53668085 6.32987234,8.57668085 C6.06025532,7.64629787 5.69974468,5.72629787 6.45038298,4.97668085 C8.25089362,4.97668085 9.33038298,6.14706383 9.6,6.44629787 C10.4997447,6.14604255 11.490383,5.96629787 12.509617,5.96629787 C13.5594894,5.96629787 14.5194894,6.14604255 15.419234,6.44629787 C15.6888511,6.14604255 16.7693617,4.97668085 18.5688511,4.97668085 C19.2888511,5.69668085 18.9589787,7.64629787 18.6587234,8.57668085 C19.499234,9.50706383 19.979234,10.6468085 19.979234,11.8171915 C19.979234,14.5174468 18.0888511,16.4977021 14.0997447,16.9174468 C15.2098723,17.4873191 15.9901277,19.1070638 15.9901277,20.3070638 L15.9901277,23.04 C15.9901277,23.1298723 15.9605106,23.2197447 15.9605106,23.309617 C20.64,21.6898723 24,17.250383 24,12 C24,5.36987234 18.6301277,0 12,0 Z" id="Shape" fill-rule="nonzero"></path>
                </g>
            </g>
        </g>
    </g>
</svg>