<?xml version="1.0" encoding="UTF-8"?>
<svg width="32px" height="32px" viewBox="0 0 32 32" version="1.1" xmlns="http://www.w3.org/2000/svg" xmlns:xlink="http://www.w3.org/1999/xlink">
    <title>icons/heart</title>
    <g id="icons/heart" stroke="none" stroke-width="1" fill="none" fill-rule="evenodd">
        <rect id="Rectangle" fill-rule="nonzero" x="0" y="0" width="32" height="32"></rect>
        <path d="M9.0564,4 C7.2434,4 5.4954,4.749 4.1364,6.109 C3.2184,7.026 1.7264,9.043 2.0444,12.247 C2.3974,15.81 5.1124,21.583 16.0004,28.9 C26.8894,21.582 29.6034,15.81 29.9564,12.247 C30.2734,9.043 28.7814,7.027 27.8644,6.11 L27.8634,6.109 C26.5044,4.749 24.7574,4 22.9444,4 C20.5734,4 18.3434,5.264 16.8234,7.467 L16.0004,8.662 L15.1774,7.467 C13.6574,5.264 11.4274,4 9.0564,4 M16.0004,30.991 C15.6934,30.991 15.3954,30.9 15.1394,30.73 C3.3934,22.899 0.4524,16.464 0.0544,12.444 C-0.3446,8.42 1.5544,5.862 2.7224,4.695 C4.4594,2.957 6.7094,2 9.0564,2 C11.6814,2 14.1524,3.179 16.0004,5.276 C17.8484,3.179 20.3184,2 22.9444,2 C25.2914,2 27.5404,2.957 29.2774,4.695 C30.4454,5.862 32.3454,8.42 31.9464,12.444 C31.5494,16.463 28.6094,22.898 16.8634,30.729 C16.6084,30.9 16.3094,30.991 16.0004,30.991" id="heart" fill="#000000" fill-rule="nonzero"></path>
    </g>
</svg>