<?xml version="1.0" encoding="UTF-8"?>
<svg width="24px" height="24px" viewBox="0 0 24 24" version="1.1" xmlns="http://www.w3.org/2000/svg" xmlns:xlink="http://www.w3.org/1999/xlink">
    <!-- Generator: Sketch 51.3 (57544) - http://www.bohemiancoding.com/sketch -->
    <title>icons/dark/heart-fill</title>
    <desc>Created with Sketch.</desc>
    <defs>
        <polygon id="path-1" points="0.000185982203 0.00015 24 0.00015 24 21.592425 0.000185982203 21.592425"></polygon>
    </defs>
    <g id="lg-1440-px" stroke="none" stroke-width="1" fill="none" fill-rule="evenodd">
        <g id="Elements" transform="translate(-756.000000, -705.000000)">
            <rect id="Rectangle-4-Copy-54" fill-rule="nonzero" x="752" y="701" width="32" height="32"></rect>
            <g id="icons/dark/heart-fill" transform="translate(756.000000, 705.000000)">
                <rect id="Rectangle" fill-rule="nonzero" x="0" y="0" width="24" height="24"></rect>
                <g id="Group-3" fill-rule="evenodd" stroke-width="1" transform="translate(0.000000, 1.500000)">
                    <mask id="mask-2" fill="white">
                        <use xlink:href="#path-1"></use>
                    </mask>
                    <g id="Clip-2"></g>
                    <path d="M22.056225,1.92165 C20.817975,0.68265 19.218975,0.00015 17.555475,0.00015 C15.387975,0.00015 13.355475,1.15365 12.000225,3.12015 C10.644975,1.15365 8.611725,0.00015 6.444975,0.00015 C4.780725,0.00015 3.181725,0.68265 1.942725,1.92165 C1.109475,2.75565 -0.247275,4.5864 0.039225,7.47615 C0.340725,10.5204 2.618475,15.42765 11.754225,21.51765 C11.828475,21.56715 11.913975,21.59265 12.000225,21.59265 C12.086475,21.59265 12.171225,21.56865 12.246975,21.51765 C21.383475,15.42615 23.659725,10.5204 23.961225,7.47615 C24.246975,4.5864 22.890975,2.75565 22.056225,1.92165" id="Fill-1" fill="#000000" mask="url(#mask-2)"></path>
                </g>
            </g>
        </g>
    </g>
</svg>