<?xml version="1.0" encoding="UTF-8"?>
<svg width="24px" height="24px" viewBox="0 0 24 24" version="1.1" xmlns="http://www.w3.org/2000/svg" xmlns:xlink="http://www.w3.org/1999/xlink">
    <!-- Generator: Sketch 51.3 (57544) - http://www.bohemiancoding.com/sketch -->
    <title>icons/dark/heart</title>
    <desc>Created with Sketch.</desc>
    <defs></defs>
    <g id="lg-1440-px" stroke="none" stroke-width="1" fill="none" fill-rule="evenodd">
        <g id="Elements" transform="translate(-660.000000, -705.000000)" fill-rule="nonzero">
            <rect id="Rectangle-4-Copy-53" x="656" y="701" width="32" height="32"></rect>
            <g id="icons/dark/heart" transform="translate(660.000000, 705.000000)">
                <rect id="Rectangle" x="0" y="0" width="24" height="24"></rect>
                <path d="M6.7923,3 C5.43255,3 4.12155,3.56175 3.1023,4.58175 C2.4138,5.2695 1.2948,6.78225 1.5333,9.18525 C1.79805,11.8575 3.8343,16.18725 12.0003,21.675 C20.16705,16.1865 22.20255,11.8575 22.4673,9.18525 C22.70505,6.78225 21.58605,5.27025 20.8983,4.5825 L20.89755,4.58175 C19.8783,3.56175 18.56805,3 17.2083,3 C15.43005,3 13.75755,3.948 12.61755,5.60025 L12.0003,6.4965 L11.38305,5.60025 C10.24305,3.948 8.57055,3 6.7923,3 M12.0003,23.24325 C11.77005,23.24325 11.54655,23.175 11.35455,23.0475 C2.54505,17.17425 0.3393,12.348 0.0408,9.333 C-0.25845,6.315 1.1658,4.3965 2.0418,3.52125 C3.34455,2.21775 5.03205,1.5 6.7923,1.5 C8.76105,1.5 10.6143,2.38425 12.0003,3.957 C13.3863,2.38425 15.2388,1.5 17.2083,1.5 C18.96855,1.5 20.6553,2.21775 21.95805,3.52125 C22.83405,4.3965 24.25905,6.315 23.9598,9.333 C23.66205,12.34725 21.45705,17.1735 12.64755,23.04675 C12.4563,23.175 12.23205,23.24325 12.0003,23.24325" id="heart" fill="#000000"></path>
            </g>
        </g>
    </g>
</svg>