<?xml version="1.0" encoding="UTF-8"?>
<svg width="24px" height="24px" viewBox="0 0 24 24" version="1.1" xmlns="http://www.w3.org/2000/svg" xmlns:xlink="http://www.w3.org/1999/xlink">
    <!-- Generator: Sketch 51.3 (57544) - http://www.bohemiancoding.com/sketch -->
    <title>icons/dark/instagram</title>
    <desc>Created with Sketch.</desc>
    <defs></defs>
    <g id="lg-1440-px" stroke="none" stroke-width="1" fill="none" fill-rule="evenodd">
        <g id="Elements" transform="translate(-276.000000, -769.000000)">
            <rect id="Rectangle-4-Copy-61" fill-rule="nonzero" x="272" y="765" width="32" height="32"></rect>
            <g id="icons/dark/instagram" transform="translate(276.000000, 769.000000)">
                <rect id="Rectangle" fill-rule="nonzero" x="0" y="0" width="24" height="24"></rect>
                <g id="instagram" stroke-width="1" fill-rule="evenodd" fill="#000000">
                    <path d="M11.9091716,2.16237624 C15.0896766,2.16237624 15.4630197,2.17663366 16.7200989,2.23366337 C17.8826609,2.28594059 18.5112005,2.48079208 18.9318022,2.64712871 C19.4894539,2.86574257 19.8864263,3.12237624 20.3023021,3.54059406 C20.718178,3.95881188 20.9781004,4.3580198 21.1907641,4.91881188 C21.3514434,5.34178218 21.5499296,5.97386139 21.6019141,7.1429703 C21.6586245,8.40712871 21.672802,8.78257426 21.672802,11.9809901 C21.672802,15.1794059 21.6586245,15.5548515 21.6019141,16.8190099 C21.5499296,17.9881188 21.3561693,18.620198 21.1907641,19.0431683 C20.9733745,19.6039604 20.718178,20.0031683 20.3023021,20.4213861 C19.8864263,20.839604 19.4894539,21.1009901 18.9318022,21.3148515 C18.5112005,21.4764356 17.8826609,21.6760396 16.7200989,21.7283168 C15.4630197,21.7853465 15.0896766,21.799604 11.9091716,21.799604 C8.72866667,21.799604 8.35532359,21.7853465 7.09824436,21.7283168 C5.93568237,21.6760396 5.30714276,21.4811881 4.88654106,21.3148515 C4.32888937,21.0962376 3.93191699,20.839604 3.51604115,20.4213861 C3.10016532,20.0031683 2.84024292,19.6039604 2.62757914,19.0431683 C2.46689984,18.620198 2.26841365,17.9881188 2.21642917,16.8190099 C2.15971882,15.5548515 2.14554124,15.1794059 2.14554124,11.9809901 C2.14554124,8.78257426 2.15971882,8.40712871 2.21642917,7.1429703 C2.26841365,5.97386139 2.46217398,5.34178218 2.62757914,4.91881188 C2.84496878,4.3580198 3.10016532,3.95881188 3.51604115,3.54059406 C3.93191699,3.12237624 4.32888937,2.8609901 4.88654106,2.64712871 C5.30714276,2.48554455 5.93568237,2.28594059 7.09824436,2.23366337 C8.35532359,2.17188119 8.72866667,2.16237624 11.9091716,2.16237624 L11.9091716,2.16237624 Z M11.9091716,0.00475247525 C8.67668219,0.00475247525 8.27025808,0.019009901 6.99900127,0.076039604 C5.73247032,0.133069307 4.86763761,0.337425743 4.11149973,0.632079208 C3.32700668,0.936237624 2.66538603,1.34970297 2.00376539,2.0150495 C1.34214474,2.68039604 0.935720629,3.35049505 0.628539614,4.13465347 C0.335536185,4.8950495 0.132324129,5.76475248 0.0756137882,7.04316832 C0.018903447,8.31683168 0.00472586176,8.72554455 0.00472586176,11.9762376 C0.00472586176,15.2269307 0.018903447,15.6356436 0.0756137882,16.9140594 C0.132324129,18.1877228 0.335536185,19.0574257 0.628539614,19.8225743 C0.930994767,20.6114851 1.34214474,21.2768317 2.00376539,21.9421782 C2.66538603,22.6075248 3.33173254,23.0162376 4.11149973,23.3251485 C4.86763761,23.619802 5.73247032,23.8241584 7.00372713,23.8811881 C8.27498394,23.9382178 8.67668219,23.9524752 11.9138975,23.9524752 C15.1511128,23.9524752 15.5528111,23.9382178 16.8240679,23.8811881 C18.0905988,23.8241584 18.9554315,23.619802 19.7162953,23.3251485 C20.5007883,23.0209901 21.162409,22.6075248 21.8240296,21.9421782 C22.4856503,21.2768317 22.8920744,20.6067327 23.1992554,19.8225743 C23.4922588,19.0621782 23.6954709,18.1924752 23.7521812,16.9140594 C23.8088916,15.6356436 23.8230691,15.2316832 23.8230691,11.9762376 C23.8230691,8.72079208 23.8088916,8.31683168 23.7521812,7.03841584 C23.6954709,5.76475248 23.4922588,4.8950495 23.1992554,4.12990099 C22.8968002,3.3409901 22.4856503,2.67564356 21.8240296,2.01029703 C21.162409,1.3449505 20.4960625,0.936237624 19.7162953,0.627326733 C18.9601574,0.332673267 18.0953247,0.128316832 16.8240679,0.0712871287 C15.5480852,0.019009901 15.1416611,0.00475247525 11.9091716,0.00475247525 L11.9091716,0.00475247525 L11.9091716,0.00475247525 Z" id="Shape" fill-rule="nonzero"></path>
                    <path d="M11.9091716,5.82653465 C8.53490634,5.82653465 5.79390652,8.57821782 5.79390652,11.9762376 C5.79390652,15.3742574 8.53490634,18.1259406 11.9091716,18.1259406 C15.2834369,18.1259406 18.0244368,15.369505 18.0244368,11.9762376 C18.0244368,8.5829703 15.2834369,5.82653465 11.9091716,5.82653465 L11.9091716,5.82653465 Z M11.9091716,15.9683168 C9.71637178,15.9683168 7.93944776,14.1813861 7.93944776,11.9762376 C7.93944776,9.77108911 9.71637178,7.98415842 11.9091716,7.98415842 C14.1019715,7.98415842 15.8788955,9.77108911 15.8788955,11.9762376 C15.8788955,14.1813861 14.1019715,15.9683168 11.9091716,15.9683168 L11.9091716,15.9683168 Z" id="Shape" fill-rule="nonzero"></path>
                    <ellipse id="Oval" fill-rule="nonzero" cx="18.2654557" cy="5.58415842" rx="1.42721025" ry="1.43524752"></ellipse>
                </g>
            </g>
        </g>
    </g>
</svg>