<?xml version="1.0" encoding="UTF-8"?>
<svg width="32px" height="32px" viewBox="0 0 32 32" version="1.1" xmlns="http://www.w3.org/2000/svg" xmlns:xlink="http://www.w3.org/1999/xlink">
    <title>icons/instagram</title>
    <g id="icons/instagram" stroke="none" stroke-width="1" fill="none" fill-rule="evenodd">
        <rect id="Rectangle" fill-rule="nonzero" x="0" y="0" width="32" height="32"></rect>
        <g id="instagram" fill="#000000" fill-rule="nonzero">
            <path d="M15.8788955,2.88316832 C20.1195688,2.88316832 20.6173596,2.90217822 22.2934652,2.97821782 C23.8435479,3.04792079 24.6816007,3.30772277 25.242403,3.52950495 C25.9859385,3.8209901 26.5152351,4.16316832 27.0697362,4.72079208 C27.6242373,5.27841584 27.9708005,5.81069307 28.2543522,6.55841584 C28.4685912,7.12237624 28.7332395,7.96514851 28.8025521,9.5239604 C28.8781659,11.209505 28.8970694,11.710099 28.8970694,15.9746535 C28.8970694,20.2392079 28.8781659,20.739802 28.8025521,22.4253465 C28.7332395,23.9841584 28.4748924,24.8269307 28.2543522,25.3908911 C27.9644993,26.1386139 27.6242373,26.6708911 27.0697362,27.2285149 C26.5152351,27.7861386 25.9859385,28.1346535 25.242403,28.419802 C24.6816007,28.6352475 23.8435479,28.9013861 22.2934652,28.9710891 C20.6173596,29.0471287 20.1195688,29.0661386 15.8788955,29.0661386 C11.6382222,29.0661386 11.1404315,29.0471287 9.46432582,28.9710891 C7.91424316,28.9013861 7.07619034,28.6415842 6.51538808,28.419802 C5.7718525,28.1283168 5.24255598,27.7861386 4.68805487,27.2285149 C4.13355375,26.6708911 3.78699056,26.1386139 3.50343885,25.3908911 C3.28919979,24.8269307 3.02455153,23.9841584 2.95523889,22.4253465 C2.8796251,20.739802 2.86072165,20.2392079 2.86072165,15.9746535 C2.86072165,11.710099 2.8796251,11.209505 2.95523889,9.5239604 C3.02455153,7.96514851 3.28289864,7.12237624 3.50343885,6.55841584 C3.79329171,5.81069307 4.13355375,5.27841584 4.68805487,4.72079208 C5.24255598,4.16316832 5.7718525,3.81465347 6.51538808,3.52950495 C7.07619034,3.31405941 7.91424316,3.04792079 9.46432582,2.97821782 C11.1404315,2.89584158 11.6382222,2.88316832 15.8788955,2.88316832 L15.8788955,2.88316832 Z M15.8788955,0.00633663366 C11.5689096,0.00633663366 11.0270108,0.0253465347 9.33200169,0.101386139 C7.64329375,0.177425743 6.49018349,0.44990099 5.48199964,0.842772277 C4.43600891,1.24831683 3.55384804,1.79960396 2.67168718,2.68673267 C1.78952632,3.57386139 1.2476275,4.46732673 0.838052819,5.51287129 C0.44738158,6.52673267 0.176432172,7.68633663 0.100818384,9.39089109 C0.0252045961,11.0891089 0.00630114901,11.6340594 0.00630114901,15.9683168 C0.00630114901,20.3025743 0.0252045961,20.8475248 0.100818384,22.5520792 C0.176432172,24.250297 0.44738158,25.409901 0.838052819,26.430099 C1.24132636,27.4819802 1.78952632,28.3691089 2.67168718,29.2562376 C3.55384804,30.1433663 4.44231006,30.6883168 5.48199964,31.100198 C6.49018349,31.4930693 7.64329375,31.7655446 9.33830284,31.8415842 C11.0333119,31.9176238 11.5689096,31.9366337 15.8851967,31.9366337 C20.2014837,31.9366337 20.7370814,31.9176238 22.4320905,31.8415842 C24.1207984,31.7655446 25.2739087,31.4930693 26.2883937,31.100198 C27.3343844,30.6946535 28.2165453,30.1433663 29.0987061,29.2562376 C29.980867,28.3691089 30.5227658,27.4756436 30.9323405,26.430099 C31.3230118,25.4162376 31.5939612,24.2566337 31.6695749,22.5520792 C31.7451887,20.8475248 31.7640922,20.3089109 31.7640922,15.9683168 C31.7640922,11.6277228 31.7451887,11.0891089 31.6695749,9.38455446 C31.5939612,7.68633663 31.3230118,6.52673267 30.9323405,5.50653465 C30.529067,4.45465347 29.980867,3.56752475 29.0987061,2.68039604 C28.2165453,1.79326733 27.3280833,1.24831683 26.2883937,0.836435644 C25.2802098,0.443564356 24.1270996,0.171089109 22.4320905,0.095049505 C20.7307803,0.0253465347 20.1888814,0.00633663366 15.8788955,0.00633663366 L15.8788955,0.00633663366 L15.8788955,0.00633663366 Z" id="Shape"></path>
            <path d="M15.8788955,7.76871287 C11.3798751,7.76871287 7.72520869,11.4376238 7.72520869,15.9683168 C7.72520869,20.4990099 11.3798751,24.1679208 15.8788955,24.1679208 C20.3779159,24.1679208 24.0325823,20.4926733 24.0325823,15.9683168 C24.0325823,11.4439604 20.3779159,7.76871287 15.8788955,7.76871287 L15.8788955,7.76871287 Z M15.8788955,21.2910891 C12.9551624,21.2910891 10.5859303,18.9085149 10.5859303,15.9683168 C10.5859303,13.0281188 12.9551624,10.6455446 15.8788955,10.6455446 C18.8026287,10.6455446 21.1718607,13.0281188 21.1718607,15.9683168 C21.1718607,18.9085149 18.8026287,21.2910891 15.8788955,21.2910891 L15.8788955,21.2910891 Z" id="Shape"></path>
            <ellipse id="Oval" cx="24.3539409" cy="7.44554455" rx="1.902947" ry="1.91366337"></ellipse>
        </g>
    </g>
</svg>