<?xml version="1.0" encoding="UTF-8"?>
<svg width="24px" height="24px" viewBox="0 0 24 24" version="1.1" xmlns="http://www.w3.org/2000/svg" xmlns:xlink="http://www.w3.org/1999/xlink">
    <!-- Generator: Sketch 51.3 (57544) - http://www.bohemiancoding.com/sketch -->
    <title>icons/dark/linkedin</title>
    <desc>Created with Sketch.</desc>
    <defs></defs>
    <g id="lg-1440-px" stroke="none" stroke-width="1" fill="none" fill-rule="evenodd">
        <g id="Elements" transform="translate(-468.000000, -769.000000)">
            <rect id="Rectangle-4-Copy-63" fill-rule="nonzero" x="464" y="765" width="32" height="32"></rect>
            <g id="icons/dark/linkedin" transform="translate(468.000000, 769.000000)">
                <rect id="Rectangle" fill-rule="nonzero" x="0" y="0" width="24" height="24"></rect>
                <g id="linkedin" stroke-width="1" fill-rule="evenodd" fill="#000000">
                    <path d="M20.5714286,20.5714286 L17.0284662,20.5714286 L17.0284662,14.9678409 C17.0284662,13.6310019 17.0059046,11.9118263 15.1876395,11.9118263 C13.3434933,11.9118263 13.0627898,13.3687315 13.0627898,14.8719203 L13.0627898,20.5714286 L9.52380952,20.5714286 L9.52380952,9.0476508 L12.9201166,9.0476508 L12.9201166,10.6232825 L12.9685593,10.6232825 C13.4410433,9.71707718 14.5970339,8.76190476 16.3210685,8.76190476 C19.9084935,8.76190476 20.5714286,11.1478232 20.5714286,14.2514611 L20.5714286,20.5714286 Z M5.52482411,7.61904762 C4.36437484,7.61904762 3.42857143,6.68053867 3.42857143,5.52347167 C3.42857143,4.36708038 4.36437484,3.42857143 5.52482411,3.42857143 C6.68053722,3.42857143 7.61904762,4.36708038 7.61904762,5.52347167 C7.61904762,6.68053867 6.68053722,7.61904762 5.52482411,7.61904762 Z M3.42857143,20.5714286 L3.42857143,9.14285714 L6.85714286,9.14285714 L6.85714286,20.5714286 L3.42857143,20.5714286 Z M22.2246177,0 L1.77071583,0 C0.794022261,0 0,0.774665739 0,1.73066713 L0,22.2686671 C0,23.2240007 0.794022261,24 1.77071583,24 L22.2246177,24 C23.2033106,24 24,23.2240007 24,22.2686671 L24,1.73066713 C24,0.774665739 23.2033106,0 22.2246177,0 Z" fill-rule="nonzero"></path>
                </g>
            </g>
        </g>
    </g>
</svg>