<?xml version="1.0" encoding="UTF-8"?>
<svg width="32px" height="32px" viewBox="0 0 32 32" version="1.1" xmlns="http://www.w3.org/2000/svg" xmlns:xlink="http://www.w3.org/1999/xlink">
    <title>icons/linkedin</title>
    <g id="icons/linkedin" stroke="none" stroke-width="1" fill="none" fill-rule="evenodd">
        <rect id="Rectangle" fill-rule="nonzero" x="0" y="0" width="32" height="32"></rect>
        <g id="linkedin" fill="#000000" fill-rule="nonzero">
            <path d="M27.4285714,27.4285714 L22.7046215,27.4285714 L22.7046215,19.9571212 C22.7046215,18.1746691 22.6745395,15.8824351 20.250186,15.8824351 C17.7913244,15.8824351 17.417053,17.8249753 17.417053,19.8292271 L17.417053,27.4285714 L12.6984127,27.4285714 L12.6984127,12.0635344 L17.2268221,12.0635344 L17.2268221,14.1643766 L17.2914123,14.1643766 C17.9213911,12.9561029 19.4627119,11.6825397 21.7614247,11.6825397 C26.544658,11.6825397 27.4285714,14.8637642 27.4285714,19.0019481 L27.4285714,27.4285714 Z M9.14285714,12.1904762 L9.14285714,27.4285714 L4.57142857,27.4285714 L4.57142857,12.1904762 L9.14285714,12.1904762 Z M7.36643215,4.57142857 C8.90738296,4.57142857 10.1587302,5.82277384 10.1587302,7.36462889 C10.1587302,8.90738489 8.90738296,10.1587302 7.36643215,10.1587302 C5.81916646,10.1587302 4.57142857,8.90738489 4.57142857,7.36462889 C4.57142857,5.82277384 5.81916646,4.57142857 7.36643215,4.57142857 Z M29.6328237,0 L2.36095443,0 C1.05869635,0 0,1.03288765 0,2.30755617 L0,29.6915562 C0,30.9653343 1.05869635,32 2.36095443,32 L29.6328237,32 C30.9377475,32 32,30.9653343 32,29.6915562 L32,2.30755617 C32,1.03288765 30.9377475,0 29.6328237,0 Z"></path>
        </g>
    </g>
</svg>