<?xml version="1.0" encoding="UTF-8"?>
<svg width="24px" height="24px" viewBox="0 0 24 24" version="1.1" xmlns="http://www.w3.org/2000/svg" xmlns:xlink="http://www.w3.org/1999/xlink">
    <!-- Generator: Sketch 51.3 (57544) - http://www.bohemiancoding.com/sketch -->
    <title>icons/dark/load</title>
    <desc>Created with Sketch.</desc>
    <defs></defs>
    <g id="lg-1440-px" stroke="none" stroke-width="1" fill="none" fill-rule="evenodd">
        <g id="Elements" transform="translate(-564.000000, -705.000000)">
            <rect id="Rectangle-4-Copy-52" fill-rule="nonzero" x="560" y="701" width="32" height="32"></rect>
            <g id="icons/dark/load" transform="translate(564.000000, 705.000000)">
                <rect id="Rectangle" fill-rule="nonzero" x="0" y="0" width="24" height="24"></rect>
                <g id="load" stroke-width="1" fill-rule="evenodd" fill="#000000">
                    <path d="M22.5,12 C22.5,12.92175 22.38075,13.83675 22.1445,14.71875 C20.9205,19.3005 16.74825,22.5 12,22.5 C8.55525,22.5 5.34375,20.781 3.39825,18.01125 L6.9285,18.79125 L7.2525,17.3265 L1.2,15.9885 L0.5805,22.1565 L2.07375,22.3065 L2.388,19.17375 C4.629,22.161 8.19075,24 12,24 C17.42625,24 22.194,20.343 23.5935,15.1065 C23.86275,14.09775 24,13.053 24,12 L22.5,12 Z" id="Fill-1" fill-rule="nonzero"></path>
                    <path d="M12,1.5 C15.52875,1.5 18.73725,3.22425 20.6775,6.0825 L17.118,5.2965 L16.79475,6.76125 L22.848,8.0985 L23.46675,1.9305 L21.97425,1.78125 L21.66225,4.88775 C19.425,1.833 15.88575,0 12,0 C5.3835,0 0,5.3835 0,12 L1.5,12 C1.5,6.21 6.21,1.5 12,1.5" id="Fill-3" fill-rule="nonzero"></path>
                </g>
            </g>
        </g>
    </g>
</svg>