<?xml version="1.0" encoding="UTF-8"?>
<svg width="24px" height="24px" viewBox="0 0 24 24" version="1.1" xmlns="http://www.w3.org/2000/svg" xmlns:xlink="http://www.w3.org/1999/xlink">
    <!-- Generator: Sketch 51.3 (57544) - http://www.bohemiancoding.com/sketch -->
    <title>icons/dark/localization</title>
    <desc>Created with Sketch.</desc>
    <defs></defs>
    <g id="lg-1440-px" stroke="none" stroke-width="1" fill="none" fill-rule="evenodd">
        <g id="Elements" transform="translate(-1044.000000, -705.000000)" fill-rule="nonzero">
            <rect id="Rectangle-4-Copy-57" x="1040" y="701" width="32" height="32"></rect>
            <g id="icons/dark/localization" transform="translate(1044.000000, 705.000000)">
                <rect id="Rectangle" x="0" y="0" width="24" height="24"></rect>
                <path d="M13.5615,20.7993 C12.95775,21.3678 12.38775,21.90555 11.8845,22.40955 C11.709,22.58355 11.586,22.54455 11.451,22.41105 C10.99575,21.9558 10.488,21.47205 9.951,20.9598 C6.85425,18.0093 3,14.3373 3,10.24455 C3,5.4228 6.9225,1.5003 11.74425,1.5003 C16.566,1.5003 20.4885,5.4228 20.4885,10.24455 C20.4885,14.2713 16.64925,17.89005 13.5615,20.7993 M11.74425,0.0003 C6.096,0.0003 1.5,4.5963 1.5,10.24455 C1.5,14.98005 5.6115,18.89805 8.916,22.0458 C9.444,22.54905 9.94275,23.02455 10.3905,23.4723 C10.7325,23.8128 11.1855,24.0003 11.667,24.0003 C12.14775,24.0003 12.60075,23.8128 12.94425,23.47155 C13.43925,22.9758 13.998,22.44855 14.59275,21.88905 C17.88825,18.7833 21.9885,14.91855 21.9885,10.24455 C21.9885,4.5963 17.3925,0.0003 11.74425,0.0003" id="Fill-1" fill="#000000"></path>
                <path d="M11.74515,12.533925 C10.52115,12.533925 9.52515,11.537925 9.52515,10.313925 C9.52515,9.090675 10.52115,8.096175 11.74515,8.096175 C12.96915,8.096175 13.9644,9.090675 13.9644,10.313925 C13.9644,11.537925 12.96915,12.533925 11.74515,12.533925 M11.74515,6.596175 C9.6939,6.596175 8.02515,8.264175 8.02515,10.313925 C8.02515,12.365175 9.6939,14.033925 11.74515,14.033925 C13.79565,14.033925 15.4644,12.365175 15.4644,10.313925 C15.4644,8.264175 13.79565,6.596175 11.74515,6.596175" id="Fill-4" fill="#000000"></path>
            </g>
        </g>
    </g>
</svg>