<?xml version="1.0" encoding="UTF-8"?>
<svg width="24px" height="24px" viewBox="0 0 24 24" version="1.1" xmlns="http://www.w3.org/2000/svg" xmlns:xlink="http://www.w3.org/1999/xlink">
    <!-- Generator: Sketch 51.3 (57544) - http://www.bohemiancoding.com/sketch -->
    <title>icons/dark/lock</title>
    <desc>Created with Sketch.</desc>
    <defs></defs>
    <g id="lg-1440-px" stroke="none" stroke-width="1" fill="none" fill-rule="evenodd">
        <g id="Elements" transform="translate(-1140.000000, -705.000000)">
            <rect id="Rectangle-4-Copy-58" fill-rule="nonzero" x="1136" y="701" width="32" height="32"></rect>
            <g id="icons/dark/lock" transform="translate(1140.000000, 705.000000)">
                <rect id="Rectangle" fill-rule="nonzero" x="0" y="0" width="24" height="24"></rect>
                <g id="Group-6" stroke-width="1" fill-rule="evenodd" transform="translate(0.750000, 0.000000)" fill="#000000">
                    <path d="M20.8059,21.52005 C20.8059,22.0608 20.3664,22.5003 19.82565,22.5003 L2.4804,22.5003 C1.9404,22.5003 1.50015,22.0608 1.50015,21.52005 L1.50015,11.92005 C1.50015,11.3793 1.9404,10.9398 2.4804,10.9398 L19.82565,10.9398 C20.3664,10.9398 20.8059,11.3793 20.8059,11.92005 L20.8059,21.52005 Z M5.7174,7.12605 C5.7174,4.02405 8.15565,1.5003 11.1534,1.5003 C14.1504,1.5003 16.58865,4.02405 16.58865,7.12605 L16.58865,9.4398 L5.7174,9.4398 L5.7174,7.12605 Z M19.82565,9.4398 L18.08865,9.4398 L18.08865,7.12605 C18.08865,3.1968 14.97765,0.0003 11.1534,0.0003 C7.3284,0.0003 4.2174,3.1968 4.2174,7.12605 L4.2174,9.4398 L2.4804,9.4398 C1.1124,9.4398 0.00015,10.55205 0.00015,11.92005 L0.00015,21.52005 C0.00015,22.8873 1.1124,24.0003 2.4804,24.0003 L19.82565,24.0003 C21.19365,24.0003 22.3059,22.8873 22.3059,21.52005 L22.3059,11.92005 C22.3059,10.55205 21.19365,9.4398 19.82565,9.4398 Z" id="Fill-1" fill-rule="nonzero"></path>
                    <polygon id="Fill-4" fill-rule="nonzero" points="10.40325 19.0605 11.90325 19.0605 11.90325 14.379 10.40325 14.379"></polygon>
                </g>
            </g>
        </g>
    </g>
</svg>