<?xml version="1.0" encoding="UTF-8"?>
<svg width="24px" height="24px" viewBox="0 0 24 24" version="1.1" xmlns="http://www.w3.org/2000/svg" xmlns:xlink="http://www.w3.org/1999/xlink">
    <!-- Generator: Sketch 51.3 (57544) - http://www.bohemiancoding.com/sketch -->
    <title>icons/dark/pinterest</title>
    <desc>Created with Sketch.</desc>
    <defs></defs>
    <g id="lg-1440-px" stroke="none" stroke-width="1" fill="none" fill-rule="evenodd">
        <g id="Elements" transform="translate(-564.000000, -769.000000)" fill-rule="nonzero">
            <rect id="Rectangle-4-Copy-64" x="560" y="765" width="32" height="32"></rect>
            <g id="icons/dark/pinterest" transform="translate(564.000000, 769.000000)">
                <rect id="Rectangle" x="0" y="0" width="24" height="24"></rect>
                <path d="M0,12 C0.0623937606,8.59439496 1.26479832,5.75040096 3.60960384,3.47039856 C5.95439976,1.19039616 8.75039856,0.0311968803 12,0 C15.4991957,0.0623937606 18.3671969,1.25759904 20.6016038,3.58559664 C22.8359916,5.91360384 23.9688031,8.71920168 24,12 C23.9375966,15.3743986 22.7351921,18.2111933 20.3903962,20.5080036 C18.0456002,22.802395 15.2495918,23.9663938 12,23.9976002 C10.8743974,23.9976002 9.75120408,23.8247983 8.62560144,23.4815942 C8.8439988,23.1383998 9.06239616,22.7472005 9.28080312,22.3103962 C9.53039736,21.7800012 9.84240456,20.7792053 10.2191957,19.3103986 C10.3127959,18.9048007 10.454401,18.3575978 10.6416014,17.6687995 C10.8599988,18.0431909 11.2343998,18.386395 11.7672041,18.7007923 C13.1735978,19.355994 14.6567935,19.2936002 16.2192005,18.5135918 C17.8440012,17.5751993 18.9695942,16.1232005 19.593599,14.1551957 C20.1552005,12.0936002 20.0855978,10.1783998 19.3823914,8.41440336 C18.6791945,6.6479976 17.421605,5.376 15.6095942,4.59360144 C13.3296014,3.93839976 11.1096026,4.0079928 8.95439736,4.80479952 C6.79920168,5.60159664 5.29919808,6.96960384 4.45439616,8.90640216 C4.2359988,9.6239976 4.1040024,10.3367935 4.0559976,11.04 C4.0080024,11.7431969 4.032,12.429605 4.12560024,13.101605 C4.21920048,13.773605 4.45439616,14.3759928 4.82879712,14.9063974 C5.20319808,15.4368019 5.70480552,15.8447995 6.32880072,16.1256002 C6.48479472,16.1880036 6.60960144,16.1880036 6.70320168,16.1256002 C6.8279988,16.0631969 6.95279592,15.8136026 7.07760264,15.3767983 C7.20239976,14.939994 7.25040456,14.642395 7.21919808,14.486401 C7.1880012,14.4239976 7.12559784,14.313599 7.0319976,14.1575954 C6.37679592,13.0944058 6.1559988,11.9784022 6.37679592,10.8072041 C6.59520288,9.636006 7.0800024,8.64239976 7.82880432,7.83120408 C8.98560384,6.79920168 10.3368031,6.23760024 11.8824022,6.144 C13.4280012,6.05039976 14.7503938,6.47279592 15.8423998,7.40879832 C16.4351981,8.09519688 16.8191981,8.92320048 16.9896002,9.89279952 C17.1600024,10.8623986 17.1624022,11.7912017 16.9896002,12.681599 C16.8167983,13.572006 16.512,14.4071993 16.0751957,15.1895978 C15.2927971,16.4088007 14.3711933,17.0328055 13.3104034,17.0640024 C12.6863986,17.0328055 12.1776014,16.790401 11.7864022,16.3367983 C11.3952029,15.8831957 11.277605,15.36 11.4359988,14.7671921 C11.4984022,14.4239976 11.6856026,13.7520072 11.9976002,12.7512017 C12.3095978,11.7503962 12.4823998,11.0016038 12.5135966,10.5023962 C12.4199964,9.31439976 11.8728031,8.70480312 10.8719976,8.67359664 C10.089599,8.76719688 9.51359904,9.12 9.13679832,9.72719688 C8.7599976,10.3343938 8.55839856,11.0328007 8.52720168,11.8127995 C8.62080192,12.7199952 8.76239736,13.344 8.94959784,13.6872041 C8.60640336,15.0935978 8.3400012,16.2192005 8.15280072,17.0616026 C8.09039736,17.28 7.91760504,17.952 7.63680432,19.077593 C7.3560036,20.2031957 7.2,21.0623962 7.16880312,21.6552041 L7.16880312,22.9679976 C4.95120408,21.9360048 3.19919688,20.4456002 1.92,18.491994 C0.64080312,16.5383974 0,14.373593 0,12" id="icons/pinterest" fill="#000000"></path>
            </g>
        </g>
    </g>
</svg>