<?xml version="1.0" encoding="UTF-8"?>
<svg width="32px" height="32px" viewBox="0 0 32 32" version="1.1" xmlns="http://www.w3.org/2000/svg" xmlns:xlink="http://www.w3.org/1999/xlink">
    <title>icons/pinterest</title>
    <g id="icons/pinterest" stroke="none" stroke-width="1" fill="none" fill-rule="evenodd">
        <rect id="Rectangle" fill-rule="nonzero" x="0" y="0" width="32" height="32"></rect>
        <path d="M0,16 C0.0831916808,11.4591933 1.68639776,7.66720128 4.81280512,4.62719808 C7.93919968,1.58719488 11.6671981,0.0415958404 16,0 C20.6655942,0.0831916808 24.4895958,1.67679872 27.4688051,4.78079552 C30.4479888,7.88480512 31.9584042,11.6256022 32,16 C31.9167955,20.4991981 30.3135894,24.281591 27.1871949,27.3440048 C24.0608003,30.4031933 20.3327891,31.9551917 16,31.9968003 C14.4991965,31.9968003 13.0016054,31.7663978 11.5008019,31.3087923 C11.7919984,30.8511997 12.0831949,30.3296006 12.3744042,29.7471949 C12.7071965,29.0400016 13.1232061,27.705607 13.6255942,25.7471981 C13.7503946,25.206401 13.9392013,24.4767971 14.1888019,23.5583994 C14.4799984,24.0575878 14.9791997,24.5151933 15.6896054,24.9343898 C17.5647971,25.807992 19.5423914,25.7248003 21.6256006,24.6847891 C23.7920016,23.433599 25.2927923,21.4976006 26.1247987,18.8735942 C26.8736006,16.1248003 26.7807971,13.5711997 25.8431885,11.2192045 C24.9055926,8.8639968 23.2288067,7.168 20.8127923,6.12480192 C17.7728019,5.25119968 14.8128035,5.3439904 11.9391965,6.40639936 C9.06560224,7.46879552 7.06559744,9.29280512 5.93919488,11.8752029 C5.6479984,12.8319968 5.4720032,13.7823914 5.4079968,14.72 C5.3440032,15.6575958 5.376,16.5728067 5.50080032,17.4688067 C5.62560064,18.3648067 5.93919488,19.1679904 6.43839616,19.8751965 C6.93759744,20.5824026 7.60640736,21.1263994 8.43840096,21.5008003 C8.64639296,21.5840048 8.81280192,21.5840048 8.93760224,21.5008003 C9.1039984,21.4175958 9.27039456,21.0848035 9.43680352,20.5023978 C9.60319968,19.919992 9.66720608,19.5231933 9.62559744,19.3152013 C9.5840016,19.2319968 9.50079712,19.0847987 9.3759968,18.8767939 C8.50239456,17.4592077 8.2079984,15.9712029 8.50239456,14.4096054 C8.79360384,12.848008 9.4400032,11.5231997 10.4384058,10.4416054 C11.9808051,9.06560224 13.7824042,8.31680032 15.8432029,8.192 C17.9040016,8.06719968 19.6671917,8.63039456 21.1231997,9.87839776 C21.9135974,10.7935958 22.4255974,11.8976006 22.6528003,13.1903994 C22.8800032,14.4831981 22.8832029,15.7216022 22.6528003,16.9087987 C22.4223978,18.096008 22.016,19.209599 21.4335942,20.2527971 C20.3903962,21.878401 19.161591,22.7104074 17.7472045,22.7520032 C16.9151981,22.7104074 16.2368019,22.3872013 15.7152029,21.7823978 C15.1936038,21.1775942 15.0368067,20.48 15.2479984,19.6895894 C15.3312029,19.2319968 15.5808035,18.3360096 15.9968003,17.0016022 C16.4127971,15.6671949 16.6431997,14.6688051 16.6847955,14.0031949 C16.5599952,12.4191997 15.8304042,11.6064042 14.4959968,11.5647955 C13.4527987,11.6895958 12.6847987,12.16 12.1823978,12.9695958 C11.6799968,13.7791917 11.4111981,14.710401 11.3696022,15.7503994 C11.4944026,16.9599936 11.6831965,17.792 11.9327971,18.2496054 C11.4752045,20.1247971 11.1200016,21.6256006 10.870401,22.7488035 C10.7871965,23.04 10.5568067,23.936 10.1824058,25.4367907 C9.8080048,26.9375942 9.6,28.0831949 9.55840416,28.8736054 L9.55840416,30.6239968 C6.60160544,29.2480064 4.26559584,27.2608003 2.56,24.655992 C0.85440416,22.0511965 0,19.1647907 0,16" fill="#000000" fill-rule="nonzero"></path>
    </g>
</svg>