<?xml version="1.0" encoding="UTF-8"?>
<svg width="32px" height="32px" viewBox="0 0 32 32" version="1.1" xmlns="http://www.w3.org/2000/svg" xmlns:xlink="http://www.w3.org/1999/xlink">
    <title>icons/secure-pay</title>
    <g id="icons/secure-pay" stroke="none" stroke-width="1" fill="none" fill-rule="evenodd">
        <rect id="Rectangle" fill-rule="nonzero" x="0" y="0" width="32" height="32"></rect>
        <g id="secure-pay" transform="translate(0.000000, 2.000000)" fill="#000000" fill-rule="nonzero">
            <path d="M23.6333,27.8911 L2.8663,27.8911 C1.2863,27.8911 0.0003,26.6051 0.0003,25.0241 L0.0003,10.9691 C0.0003,9.3881 1.2863,8.1021 2.8663,8.1021 L19.9703,8.1021 L19.9703,10.1021 L2.8663,10.1021 C2.3883,10.1021 2.0003,10.4911 2.0003,10.9691 L2.0003,25.0241 C2.0003,25.5021 2.3883,25.8911 2.8663,25.8911 L23.6333,25.8911 C24.1113,25.8911 24.5003,25.5021 24.5003,25.0241 L24.5003,12.9591 L26.5003,12.9591 L26.5003,25.0241 C26.5003,26.6051 25.2143,27.8911 23.6333,27.8911" id="Fill-1"></path>
            <polygon id="Fill-3" points="1 18.1611 25.5 18.1611 25.5 13.1611 1 13.1611"></polygon>
            <polygon id="Fill-5" points="4.657 23.0251 10.236 23.0251 10.236 21.0251 4.657 21.0251"></polygon>
            <path d="M20.97,11.9591 L30.03,11.9591 L30.03,7.0171 L20.97,7.0171 L20.97,11.9591 Z M30.11,13.9591 L20.89,13.9591 C19.832,13.9591 18.97,13.0991 18.97,12.0401 L18.97,6.9371 C18.97,5.8781 19.832,5.0171 20.89,5.0171 L30.11,5.0171 C31.168,5.0171 32.03,5.8781 32.03,6.9371 L32.03,12.0401 C32.03,13.0991 31.168,13.9591 30.11,13.9591 L30.11,13.9591 Z" id="Fill-6"></path>
            <path d="M28.7881,6.8496 C28.2361,6.8496 27.7881,6.4016 27.7881,5.8496 L27.7881,4.3896 C27.7881,3.0716 26.7621,1.9996 25.5001,1.9996 C24.2381,1.9996 23.2121,3.0716 23.2121,4.3896 L23.2121,5.8496 C23.2121,6.4016 22.7641,6.8496 22.2121,6.8496 C21.6601,6.8496 21.2121,6.4016 21.2121,5.8496 L21.2121,4.3896 C21.2121,1.9686 23.1361,-0.0004 25.5001,-0.0004 C27.8641,-0.0004 29.7881,1.9686 29.7881,4.3896 L29.7881,5.8496 C29.7881,6.4016 29.3401,6.8496 28.7881,6.8496" id="Fill-7"></path>
        </g>
    </g>
</svg>