<?xml version="1.0" encoding="UTF-8"?>
<svg width="24px" height="24px" viewBox="0 0 24 24" version="1.1" xmlns="http://www.w3.org/2000/svg" xmlns:xlink="http://www.w3.org/1999/xlink">
    <!-- Generator: Sketch 51.3 (57544) - http://www.bohemiancoding.com/sketch -->
    <title>icons/dark/secure-pay</title>
    <desc>Created with Sketch.</desc>
    <defs></defs>
    <g id="lg-1440-px" stroke="none" stroke-width="1" fill="none" fill-rule="evenodd">
        <g id="Elements" transform="translate(-564.000000, -641.000000)">
            <rect id="Rectangle-4-Copy-40" fill-rule="nonzero" x="560" y="637" width="32" height="32"></rect>
            <g id="icons/dark/secure-pay" transform="translate(564.000000, 641.000000)">
                <rect id="Rectangle" fill-rule="nonzero" x="0" y="0" width="24" height="24"></rect>
                <g id="secure-pay" stroke-width="1" fill-rule="evenodd" transform="translate(0.000000, 1.500000)" fill="#000000">
                    <path d="M17.724975,20.918325 L2.149725,20.918325 C0.964725,20.918325 0.000225,19.953825 0.000225,18.768075 L0.000225,8.226825 C0.000225,7.041075 0.964725,6.076575 2.149725,6.076575 L14.977725,6.076575 L14.977725,7.576575 L2.149725,7.576575 C1.791225,7.576575 1.500225,7.868325 1.500225,8.226825 L1.500225,18.768075 C1.500225,19.126575 1.791225,19.418325 2.149725,19.418325 L17.724975,19.418325 C18.083475,19.418325 18.375225,19.126575 18.375225,18.768075 L18.375225,9.719325 L19.875225,9.719325 L19.875225,18.768075 C19.875225,19.953825 18.910725,20.918325 17.724975,20.918325" id="Fill-1" fill-rule="nonzero"></path>
                    <polygon id="Fill-3" fill-rule="nonzero" points="0.75 13.620825 19.125 13.620825 19.125 9.870825 0.75 9.870825"></polygon>
                    <polygon id="Fill-5" fill-rule="nonzero" points="3.49275 17.268825 7.677 17.268825 7.677 15.768825 3.49275 15.768825"></polygon>
                    <path d="M15.7275,8.969325 L22.5225,8.969325 L22.5225,5.262825 L15.7275,5.262825 L15.7275,8.969325 Z M22.5825,10.469325 L15.6675,10.469325 C14.874,10.469325 14.2275,9.824325 14.2275,9.030075 L14.2275,5.202825 C14.2275,4.408575 14.874,3.762825 15.6675,3.762825 L22.5825,3.762825 C23.376,3.762825 24.0225,4.408575 24.0225,5.202825 L24.0225,9.030075 C24.0225,9.824325 23.376,10.469325 22.5825,10.469325 Z" id="Fill-6" fill-rule="nonzero"></path>
                    <path d="M21.591075,5.1372 C21.177075,5.1372 20.841075,4.8012 20.841075,4.3872 L20.841075,3.2922 C20.841075,2.3037 20.071575,1.4997 19.125075,1.4997 C18.178575,1.4997 17.409075,2.3037 17.409075,3.2922 L17.409075,4.3872 C17.409075,4.8012 17.073075,5.1372 16.659075,5.1372 C16.245075,5.1372 15.909075,4.8012 15.909075,4.3872 L15.909075,3.2922 C15.909075,1.47645 17.352075,-0.0003 19.125075,-0.0003 C20.898075,-0.0003 22.341075,1.47645 22.341075,3.2922 L22.341075,4.3872 C22.341075,4.8012 22.005075,5.1372 21.591075,5.1372" id="Fill-7" fill-rule="nonzero"></path>
                </g>
            </g>
        </g>
    </g>
</svg>