<?xml version="1.0" encoding="UTF-8"?>
<svg width="32px" height="32px" viewBox="0 0 32 32" version="1.1" xmlns="http://www.w3.org/2000/svg" xmlns:xlink="http://www.w3.org/1999/xlink">
    <title>icons/shopping-bag</title>
    <g id="icons/shopping-bag" stroke="none" stroke-width="1" fill="none" fill-rule="evenodd">
        <rect id="Rectangle" fill-rule="nonzero" x="0" y="0" width="32" height="32"></rect>
        <g id="shopping-bag" fill="#000000" fill-rule="nonzero">
            <path d="M30,10.4697 L30,27.9577 C30,29.0607 29.103,29.9577 28,29.9577 L4,29.9577 C2.897,29.9577 2,29.0607 2,27.9577 L2,10.4697 L0,10.4697 L0,27.9577 C0,30.1637 1.794,31.9577 4,31.9577 L28,31.9577 C30.206,31.9577 32,30.1637 32,27.9577 L32,10.4697 L30,10.4697 Z" id="Fill-4"></path>
            <path d="M9.4351,8.5649 C9.4351,4.9449 12.3801,1.9999 16.0001,1.9999 C19.6201,1.9999 22.5651,4.9449 22.5651,8.5649 L22.5651,13.7199 L24.5651,13.7199 L24.5651,8.5649 C24.5651,3.8419 20.7231,-0.0001 16.0001,-0.0001 C11.2771,-0.0001 7.4351,3.8419 7.4351,8.5649 L7.4351,13.7199 L9.4351,13.7199 L9.4351,8.5649 Z" id="Fill-1"></path>
        </g>
    </g>
</svg>