<?xml version="1.0" encoding="UTF-8"?>
<svg width="24px" height="24px" viewBox="0 0 24 24" version="1.1" xmlns="http://www.w3.org/2000/svg" xmlns:xlink="http://www.w3.org/1999/xlink">
    <!-- Generator: Sketch 51.3 (57544) - http://www.bohemiancoding.com/sketch -->
    <title>icons/dark/smile</title>
    <desc>Created with Sketch.</desc>
    <defs></defs>
    <g id="lg-1440-px" stroke="none" stroke-width="1" fill="none" fill-rule="evenodd">
        <g id="Elements" transform="translate(-1044.000000, -577.000000)">
            <rect id="Rectangle-4-Copy-33" fill-rule="nonzero" x="1040" y="573" width="32" height="32"></rect>
            <g id="icons/dark/smile" transform="translate(1044.000000, 577.000000)">
                <rect id="Rectangle" fill-rule="nonzero" x="0" y="0" width="24" height="24"></rect>
                <g id="Group-9" stroke-width="1" fill-rule="evenodd" fill="#000000">
                    <path d="M12,18.62655 C9.79575,18.62655 7.7415,17.53455 6.50625,15.7053 C6.27375,15.3618 6.36375,14.89605 6.70725,14.6643 C7.04925,14.4318 7.51725,14.5233 7.74825,14.8653 C8.70525,16.2813 10.2945,17.12655 12,17.12655 C13.707,17.12655 15.29775,16.2798 16.25475,14.86155 C16.48575,14.5173 16.9515,14.4273 17.2965,14.65905 C17.63925,14.8908 17.73,15.35655 17.49825,15.70005 C16.263,17.53305 14.2065,18.62655 12,18.62655" id="Fill-1" fill-rule="nonzero"></path>
                    <path d="M8.821275,10.385775 C8.821275,11.124525 8.222025,11.723775 7.483275,11.723775 C6.743775,11.723775 6.145275,11.124525 6.145275,10.385775 C6.145275,9.647025 6.743775,9.047775 7.483275,9.047775 C8.222025,9.047775 8.821275,9.647025 8.821275,10.385775" id="Fill-3" fill-rule="nonzero"></path>
                    <path d="M17.8557,10.385775 C17.8557,11.124525 17.25645,11.723775 16.5177,11.723775 C15.7782,11.723775 15.1797,11.124525 15.1797,10.385775 C15.1797,9.647025 15.7782,9.047775 16.5177,9.047775 C17.25645,9.047775 17.8557,9.647025 17.8557,10.385775" id="Fill-5" fill-rule="nonzero"></path>
                    <path d="M12,1.5 C6.21,1.5 1.5,6.21 1.5,12 C1.5,17.79 6.21,22.5 12,22.5 C17.79,22.5 22.5,17.79 22.5,12 C22.5,6.21 17.79,1.5 12,1.5 M12,24 C5.3835,24 0,18.6165 0,12 C0,5.3835 5.3835,0 12,0 C18.6165,0 24,5.3835 24,12 C24,18.6165 18.6165,24 12,24" id="Fill-7" fill-rule="nonzero"></path>
                </g>
            </g>
        </g>
    </g>
</svg>