<?xml version="1.0" encoding="UTF-8"?>
<svg width="32px" height="32px" viewBox="0 0 32 32" version="1.1" xmlns="http://www.w3.org/2000/svg" xmlns:xlink="http://www.w3.org/1999/xlink">
    <title>icons/spotify</title>
    <g id="icons/spotify" stroke="none" stroke-width="1" fill="none" fill-rule="evenodd">
        <rect id="Rectangle" fill-rule="nonzero" x="0" y="0" width="32" height="32"></rect>
        <path d="M16,0 C7.16315251,0 0,7.16315251 0,16 C0,24.8368475 7.16315251,32 16,32 C24.8368475,32 32,24.8368475 32,16 C32,7.16424429 24.8368475,0.00109177755 16,0 Z M23.3378369,23.0758103 C23.0506994,23.5474582 22.4360287,23.6948482 21.9665643,23.4077107 C18.2097578,21.1117025 13.4801774,20.5931082 7.91102013,21.865029 C7.37386557,21.9883999 6.83889458,21.6521324 6.71661549,21.1149778 C6.59324463,20.5778233 6.92842033,20.0428523 7.46666667,19.9205732 C13.560969,18.5285568 18.7894916,19.1279427 23.0070283,21.7045377 C23.4764927,21.9938588 23.6260662,22.606346 23.3378369,23.0758103 L23.3378369,23.0758103 Z M25.2953941,18.7207097 C24.9340157,19.308086 24.1654043,19.4915046 23.5791198,19.131218 C19.2796998,16.4880246 12.7224838,15.7226885 7.63589219,17.266462 C6.97645855,17.4662573 6.27990447,17.0939611 6.0790174,16.4356192 C5.88031389,15.7761856 6.25261003,15.0807233 6.91095189,14.8798362 C12.721392,13.1166155 19.9456841,13.9703855 24.8837939,17.0055271 C25.4711702,17.3669055 25.6567724,18.1344251 25.2953941,18.7207097 Z M25.4635278,14.1832822 C20.3059707,11.1208461 11.79884,10.8391675 6.87492323,12.3327192 C6.08447629,12.5729103 5.24817468,12.1263733 5.0090754,11.3359263 C4.76997612,10.5454794 5.21542136,9.70917776 6.00696008,9.46898669 C11.6590925,7.75380416 21.0538383,8.08461276 26.9909246,11.6088707 C27.7016718,12.0313886 27.9353122,12.9495735 27.513886,13.6592289 C27.0935517,14.3710679 26.1731832,14.6058001 25.4635278,14.1832822 Z" id="spotify" fill="#000000" fill-rule="nonzero"></path>
    </g>
</svg>