<?xml version="1.0" encoding="UTF-8"?>
<svg width="24px" height="24px" viewBox="0 0 24 24" version="1.1" xmlns="http://www.w3.org/2000/svg" xmlns:xlink="http://www.w3.org/1999/xlink">
    <!-- Generator: Sketch 51.3 (57544) - http://www.bohemiancoding.com/sketch -->
    <title>icons/dark/spotify</title>
    <desc>Created with Sketch.</desc>
    <defs></defs>
    <g id="lg-1440-px" stroke="none" stroke-width="1" fill="none" fill-rule="evenodd">
        <g id="Elements" transform="translate(-1140.000000, -769.000000)" fill-rule="nonzero">
            <rect id="Rectangle-4-Copy-70" x="1136" y="765" width="32" height="32"></rect>
            <g id="icons/dark/spotify" transform="translate(1140.000000, 769.000000)">
                <rect id="Rectangle" x="0" y="0" width="24" height="24"></rect>
                <path d="M12,0 C5.37236438,0 0,5.37236438 0,12 C0,18.6276356 5.37236438,24 12,24 C18.6276356,24 24,18.6276356 24,12 C24,5.37318321 18.6276356,0.000818833163 12,0 Z M17.5033777,17.3068577 C17.2880246,17.6605937 16.8270215,17.7711361 16.4749232,17.555783 C13.6573183,15.8337769 10.1101331,15.4448311 5.9332651,16.3987718 C5.53039918,16.4912999 5.12917093,16.2390993 5.03746162,15.8362334 C4.94493347,15.4333675 5.19631525,15.0321392 5.6,14.9404299 C10.1707267,13.8964176 14.0921187,14.345957 17.2552712,16.2784033 C17.6073695,16.4953941 17.7195496,16.9547595 17.5033777,17.3068577 Z M18.9715455,14.0405322 C18.7005118,14.4810645 18.1240532,14.6186285 17.6843398,14.3484135 C14.4597748,12.3660184 9.54186285,11.7920164 5.72691914,12.9498465 C5.23234391,13.0996929 4.70992835,12.8204708 4.55926305,12.3267144 C4.41023541,11.8321392 4.68945752,11.3105425 5.18321392,11.1598772 C9.54104401,9.83746162 14.9592631,10.4777892 18.6628454,12.7541453 C19.1033777,13.0251791 19.2425793,13.6008188 18.9715455,14.0405322 Z M19.0976459,10.6374616 C15.229478,8.3406346 8.84912999,8.12937564 5.15619243,9.24953941 C4.56335722,9.4296827 3.93613101,9.09477994 3.75680655,8.50194473 C3.57748209,7.90910952 3.91156602,7.28188332 4.50522006,7.10174002 C8.74431934,5.81535312 15.7903787,6.06345957 20.2431934,8.70665302 C20.7762538,9.02354145 20.9514841,9.71218014 20.6354145,10.2444217 C20.3201638,10.7783009 19.6298874,10.9543501 19.0976459,10.6374616 Z" id="spotify" fill="#000000"></path>
            </g>
        </g>
    </g>
</svg>