<?xml version="1.0" encoding="UTF-8"?>
<svg width="24px" height="24px" viewBox="0 0 24 24" version="1.1" xmlns="http://www.w3.org/2000/svg" xmlns:xlink="http://www.w3.org/1999/xlink">
    <!-- Generator: Sketch 51.3 (57544) - http://www.bohemiancoding.com/sketch -->
    <title>icons/dark/star</title>
    <desc>Created with Sketch.</desc>
    <defs></defs>
    <g id="lg-1440-px" stroke="none" stroke-width="1" fill="none" fill-rule="evenodd">
        <g id="Elements" transform="translate(-854.000000, -705.000000)" fill-rule="nonzero">
            <rect id="Rectangle-4-Copy-55" x="850" y="701" width="32" height="32"></rect>
            <g id="icons/dark/star" transform="translate(854.000000, 705.000000)">
                <rect id="Rectangle" x="0" y="0" width="24" height="24"></rect>
                <path d="M1.42422187,9.41408351 L1.42572187,9.41483351 C1.42497187,9.41483351 1.42497187,9.41408351 1.42422187,9.41408351 Z M22.5742219,9.41558351 C22.5734719,9.41633351 22.5727219,9.41633351 22.5727219,9.41708351 L22.5742219,9.41558351 Z M1.31547187,9.80633351 L1.31472187,9.80633351 L1.31547187,9.80633351 Z M12.0007219,17.9190835 L18.3232219,21.4140835 L16.8547219,14.4908335 L22.1939719,9.75308351 L15.0089719,8.97008351 L12.0007219,2.52308351 L8.99172187,8.97008351 L1.80672187,9.75308351 L7.14597187,14.4908335 L5.68422187,21.4110835 L12.0007219,17.9190835 Z M5.28897187,21.6293335 C5.28897187,21.6293335 5.28822187,21.6293335 5.28747187,21.6300835 L5.28897187,21.6293335 Z M5.58672187,21.8715835 L5.58672187,21.8730835 C5.58672187,21.8730835 5.58672187,21.8723335 5.58672187,21.8715835 Z M5.38347187,23.1045835 C5.29722187,23.1045835 5.20947187,23.0963335 5.12322187,23.0783335 C4.77972187,23.0078335 4.48647187,22.8098335 4.29747187,22.5195835 C4.11147187,22.2338335 4.04772187,21.8933335 4.11972187,21.5603335 L5.49822187,15.0345835 L0.431221874,10.5383335 C0.194971874,10.3305835 0.0442218741,10.0418335 0.0082218741,9.72908351 C-0.0300281259,9.39083351 0.0659718741,9.05858351 0.279721874,8.79233351 C0.496471874,8.52158351 0.806971874,8.35208351 1.15422187,8.31533351 L7.98972187,7.57058351 L10.8284719,1.48808351 C10.9619719,1.20758351 11.1877219,0.988583509 11.4652219,0.864083509 C12.1034719,0.576083509 12.8692219,0.852083509 13.1699719,1.48133351 L16.0109719,7.57058351 L22.8479719,8.31533351 C23.1584719,8.34908351 23.4472219,8.49308351 23.6587219,8.72033351 C23.8949719,8.97458351 24.0157219,9.30458351 23.9984719,9.64883351 C23.9812219,9.99383351 23.8282219,10.3103335 23.5672219,10.5398335 L18.5024719,15.0345835 L19.8817219,21.5633335 C19.9012219,21.6525835 19.9102219,21.7463335 19.9094719,21.8400835 C19.8989719,22.5480835 19.3282219,23.1068335 18.6014719,23.1030835 C18.3869719,23.1008335 18.1739719,23.0453335 17.9857219,22.9418335 L12.0007219,19.6328335 L6.01647187,22.9410835 C5.82372187,23.0490835 5.60472187,23.1045835 5.38347187,23.1045835 Z" id="Fill-1" fill="#000000"></path>
            </g>
        </g>
    </g>
</svg>