<?xml version="1.0" encoding="UTF-8"?>
<svg width="118px" height="121px" viewBox="0 0 118 121" version="1.1" xmlns="http://www.w3.org/2000/svg" xmlns:xlink="http://www.w3.org/1999/xlink">
    <title>taller-veganista-mascot</title>
    <g id="Symbols" stroke="none" stroke-width="1" fill="none" fill-rule="evenodd">
        <g id="taller-veganista-mascot" transform="translate(0.000000, -2.000000)" fill="#000000" fill-rule="nonzero">
            <g transform="translate(0.000000, 2.000000)" id="Combined-Shape">
                <path d="M90.4299,0.3042 C93.4929,-0.8068 95.7079,1.2562 95.7079,4.3352 C95.7079,6.85035385 94.6443556,9.06786864 93.5123834,11.2488837 L93.13389,11.974895 C92.7555923,12.700271 92.3819769,13.4248154 92.0499,14.1582 C90.0309,18.6212 90.6749,23.5292 90.8889,28.2652 C91.2549,36.4102 89.5829,44.3752 85.9799,51.6512 C90.3519,53.3022 94.3869,56.2522 97.2719,59.4822 C97.8959,60.1812 97.6289,61.4542 96.8819,61.8652 C100.3089,64.8602 103.1239,68.4002 105.1819,72.5692 C105.5489,73.3132 105.2479,73.9492 104.7329,74.2392 C106.8369,75.7902 108.8399,77.4942 110.1519,79.8012 L110.1519,79.8012 L110.2079,79.9052 C112.3319,79.2142 114.4989,78.6522 116.6939,78.2342 C117.2759,78.1232 117.5239,78.9662 116.9409,79.1312 C114.8479,79.7262 112.7579,80.2642 110.6929,80.8822 C111.5409,82.8062 111.9229,84.9942 111.9029,87.1302 C112.0109,87.1342 112.1199,87.1372 112.2279,87.1392 C112.8569,87.1572 112.8559,88.1412 112.2279,88.1162 L112.2279,88.1162 L111.8679,88.1002 C111.8269,88.7102 111.7539,89.3112 111.6489,89.8952 C111.5159,90.6372 110.8569,90.8042 110.3039,90.5972 C110.3309,94.9812 107.7959,98.9022 104.7799,102.2602 C102.5659,104.7222 100.2209,107.1162 97.7979,109.3742 C95.8089,111.2262 93.6219,113.4472 91.0939,114.5122 C86.8059,120.8892 76.2629,121.4802 69.4489,120.7332 C59.8339,119.6792 50.1689,116.6312 42.1729,111.0832 C42.1969,111.4012 42.1959,111.7272 42.1879,112.0412 C42.1679,112.9272 41.1759,113.5672 40.3829,113.0772 C38.6419,112.0002 37.3089,110.5142 36.5389,108.7312 C36.4889,108.8672 36.4429,109.0062 36.4039,109.1542 C36.0649,110.4532 34.4079,110.2342 33.9829,109.1542 C32.5829,105.6042 32.6839,101.7422 34.3509,98.4192 C34.0859,98.5102 33.8229,98.6022 33.5569,98.6912 C32.3279,99.1002 31.5169,97.6682 31.9999,96.6662 C33.9219,92.6742 35.0879,88.5362 35.4129,84.1082 C35.7079,80.0612 35.3889,76.0082 35.3889,71.9572 C32.6489,69.2292 29.7909,66.6542 26.8199,64.0682 C22.3289,60.1602 18.2099,55.9552 15.0209,50.8962 C12.2369,46.4802 10.2039,41.6332 8.8939,36.5852 C8.62141724,35.5341655 8.3753887,34.4599729 8.12949301,33.3780943 L7.88266674,32.2942269 C7.01210571,28.4957351 6.0356931,24.666269 3.8249,21.4692 C3.49307391,20.9894609 3.09993214,20.5410261 2.69409997,20.0983847 L2.08191208,19.4355787 C1.1337242,18.4013853 0.248813043,17.329287 0.0449,15.8952 C-0.2051,14.1322 0.5819,12.4912 2.3049,11.8542 C4.4309,11.0692 7.3969,11.7552 9.5739,12.0912 C11.9099,12.4512 14.2109,13.0092 16.4579,13.7432 C34.4089,19.6172 46.5929,35.3012 51.6629,52.9262 C53.4709,50.4182 56.2039,48.3742 59.0339,47.4542 C59.9689,47.1492 60.6079,48.2372 60.2619,48.9642 C60.9469,48.5922 61.6569,48.2552 62.3849,47.9602 C62.9399,39.9312 65.3519,32.2982 68.9839,25.1032 C72.3379,18.4572 76.7639,12.3192 82.0299,7.0542 C84.3679,4.7162 87.2479,1.4572 90.4299,0.3042 Z M92.5369,3.9492 C91.2539,2.1332 88.0259,5.7792 87.0589,6.6382 C75.0059,17.3292 68.0229,31.6552 64.7159,47.1812 C66.5859,46.6852 68.5139,46.4822 70.3849,46.6852 C72.0259,46.8622 72.0049,49.0292 70.3849,49.2232 C66.0129,49.7482 62.3909,50.5482 58.4769,52.6602 C57.4589,53.2102 56.2229,51.7722 57.1929,50.9952 C57.3719,50.8522 57.5549,50.7142 57.7409,50.5762 C56.8679,51.0962 56.0269,51.6602 55.2449,52.3532 C54.1769,53.3002 53.2439,54.4012 52.3479,55.5172 C52.7519,57.1612 53.1009,58.8152 53.3809,60.4782 C53.6479,62.0602 51.3089,62.7682 50.9329,61.1532 C48.5079,50.7202 44.1699,40.0712 37.2059,31.8282 C31.1499,24.6612 23.1209,19.0972 14.0689,16.4792 C11.8169,15.8292 9.5099,15.3482 7.1779,15.1022 C6.97216087,15.0804609 6.76161267,15.0489524 6.550858,15.0174478 L6.23514649,14.9714156 C5.34345198,14.8479221 4.48959565,14.8127652 4.0269,15.6162 C3.60404286,16.3512 3.7174102,16.5581388 4.0725414,16.916681 L4.31227609,17.1554362 C4.40028776,17.2447102 4.49561429,17.3454857 4.5959,17.4632 C4.9339,17.8592 5.2769,18.2492 5.5959,18.6612 C8.2499,22.0872 9.5559,26.2062 10.5809,30.3602 L10.5809,30.3602 L10.9788145,31.9859545 C11.9696785,36.044546 12.9650765,40.0539059 14.7289,43.8842 C16.7499,48.2752 19.4549,52.3562 22.7259,55.9152 C28.8579,62.5872 37.4909,67.4072 42.3139,75.2162 C43.1569,76.5812 41.1479,78.1592 40.0799,76.9392 C39.2439,75.9862 38.3919,75.0642 37.5309,74.1572 C38.4369,81.3482 38.0889,88.4362 35.5669,95.2192 C35.7579,95.1632 35.9499,95.1072 36.1419,95.0522 C37.4439,94.6732 38.0979,96.1572 37.5049,97.0432 C37.4969,97.2002 37.4509,97.3672 37.3479,97.5422 C35.8579,100.0852 35.2579,102.8922 35.6579,105.6832 C35.7469,105.6322 35.8379,105.5942 35.9319,105.5702 C36.2049,105.2052 36.9389,105.2882 37.1199,105.7972 C37.1499,105.8842 37.1889,105.9662 37.2219,106.0522 C37.3679,106.2322 37.4639,106.4462 37.4799,106.6752 C38.0489,107.9022 38.8659,108.9852 39.8829,109.8522 C39.9299,109.7372 39.9879,109.6222 40.0659,109.5122 C40.1029,109.4592 40.1449,109.4122 40.1879,109.3692 C40.0309,108.7192 40.6389,108.0082 41.4199,108.4102 C49.5019,112.5722 57.8519,115.9252 66.8799,117.3252 C71.3509,118.0182 76.1709,118.4612 80.6179,117.3792 C85.0419,116.3022 87.9569,113.7642 90.3479,110.0032 C90.9349,109.0802 92.1549,109.3202 92.5519,110.1042 C93.6569,109.2012 94.8089,108.3362 95.8289,107.4042 C97.6599,105.7302 99.4459,104.0102 101.2019,102.2582 C105.0239,98.4452 109.0979,93.7422 108.3929,87.9572 L108.3929,87.9572 L105.3409,87.8312 C104.7739,87.8072 104.7719,86.9312 105.3409,86.9472 L105.3409,86.9472 L108.4789,87.0352 C108.6819,86.7452 109.0699,86.6242 109.3789,86.7572 C109.3029,84.9842 109.1549,83.2632 108.4659,81.5912 C107.4549,81.9362 106.4499,82.3122 105.4579,82.7432 C104.9019,82.9842 104.4149,82.1732 104.9759,81.9202 C105.9789,81.4702 106.9969,81.0542 108.0249,80.6682 C107.9579,80.5442 107.8909,80.4212 107.8159,80.2982 C106.4319,78.0272 104.2389,76.2512 102.2329,74.5512 C101.7359,74.1292 102.0109,73.4242 102.4849,73.1602 C102.4249,73.0812 102.3659,73.0032 102.3049,72.9252 C102.1199,72.6812 102.0699,72.4232 102.1079,72.1792 C99.6529,67.8312 96.4839,63.9652 92.5649,60.8232 C92.0199,60.3862 92.3119,59.6312 92.8179,59.3342 C90.9439,57.7662 88.9379,56.4022 86.6989,55.3032 C83.4999,53.7312 80.0749,52.9472 76.7239,51.7932 C76.1339,51.5902 75.9669,50.5272 76.7239,50.4212 C78.7549,50.1372 80.8329,50.2712 82.8799,50.7232 C84.9989,46.6042 86.4909,42.2212 87.2429,37.6382 C88.0589,32.6562 87.5329,27.7852 87.4399,22.7832 C87.3569,18.2472 88.3049,14.4332 90.3769,10.4242 C90.9829,9.2542 93.4859,5.2932 92.5369,3.9492 Z M75.5683,113.1105 C75.0613,112.7145 75.7733,112.0125 76.2753,112.4045 C77.4703,113.3375 78.8023,113.7925 80.2563,114.1495 C80.7363,114.2675 80.6373,115.0485 80.1383,115.0175 C78.4443,114.9115 76.8913,114.1425 75.5683,113.1105 Z M66.4857,107.922 C66.2747,107.499 66.8477,106.978 67.1787,107.387 C69.2417,109.935 71.2777,112.253 74.1547,113.92 C74.4987,114.119 74.1967,114.6 73.8497,114.442 C70.8637,113.085 67.9787,110.918 66.4857,107.922 Z M63.0918,107.2383 C62.9318,106.6633 63.8008,106.2743 64.0698,106.8263 C65.0038,108.7363 66.2288,110.5253 67.9248,111.8353 C68.5878,112.3463 67.9478,113.4913 67.2568,112.9783 C65.2758,111.5103 63.7628,109.6353 63.0918,107.2383 Z M59.7025,106.9759 C59.4805,106.5219 60.0575,106.0059 60.4335,106.4119 C61.4445,107.5069 62.4535,108.5989 63.7055,109.4239 C64.3915,109.8759 63.7445,110.9869 63.0595,110.5279 C61.6855,109.6059 60.4375,108.4789 59.7025,106.9759 Z M55.5009,106.2379 C55.1739,105.8019 55.8689,105.3209 56.2309,105.6749 C56.9709,106.3959 57.7479,107.0989 58.5919,107.6939 C59.1919,108.1149 58.6049,109.1099 58.0179,108.6769 C57.0559,107.9699 56.2169,107.1959 55.5009,106.2379 Z M100.3286,78.2994 C101.1346,77.9314 102.1426,78.5384 101.8826,79.4954 C101.6886,80.2014 101.2236,80.7374 100.6366,81.1394 C100.6366,81.1764 100.6316,81.2154 100.6156,81.2514 C100.2246,82.1694 99.1836,84.1314 97.9986,84.2744 C98.4566,87.6764 98.5996,91.3344 97.7266,94.5484 C98.5786,95.1374 99.4666,95.6844 100.4126,96.1064 C101.9866,96.8064 103.0376,96.2894 104.3246,95.3194 C105.0156,94.7984 105.6556,95.8674 105.1826,96.4334 C104.1336,97.6914 102.8526,98.6474 101.1166,98.2524 C100.8286,98.1864 100.5446,98.0904 100.2636,97.9844 C99.6526,98.7454 98.6316,99.9204 97.8196,100.3524 C96.8796,100.8544 95.0836,100.4994 94.2716,100.2984 C93.5256,100.9524 92.6596,101.5314 91.6486,102.0144 C88.5696,103.4884 84.7706,104.0454 81.3716,104.0624 C78.5536,104.0774 74.3966,103.6544 72.4706,101.3584 C72.1496,100.9744 72.3086,100.1464 72.9396,100.2274 C74.2736,100.3984 75.3296,101.0204 76.6196,101.4094 C78.0396,101.8374 79.4966,102.0324 80.9776,102.0604 C83.7996,102.1144 86.8186,101.7764 89.4966,100.8644 C95.8344971,98.7059441 96.7901839,93.0750492 96.7485892,87.3595071 L96.7407168,86.7577048 C96.7239514,85.8549714 96.6861588,84.9530912 96.6446,84.0654 C96.6406,83.9754 96.6556,83.8954 96.6836,83.8224 C96.4876,83.6914 96.2996,83.5544 96.1236,83.4414 C95.2916,82.9074 94.4596,82.3724 93.6286,81.8384 C93.4696,81.7354 93.3806,81.5984 93.3416,81.4534 C93.0506,81.3604 92.7606,81.2634 92.4706,81.1664 C91.2806,80.7604 91.7586,79.0154 92.9906,79.2824 C94.4126,79.5904 95.8826,79.9134 97.3456,79.7294 C98.6216,79.5704 99.2506,78.7944 100.3286,78.2994 Z M51.5317,97.3985 C52.0447,97.2215 52.4617,97.9535 52.0627,98.3115 C51.5827,98.7435 51.0807,99.1655 50.8367,99.7825 C50.7117,100.0985 50.4207,100.3195 50.0637,100.2205 C49.7617,100.1375 49.5017,99.7645 49.6257,99.4495 C49.9827,98.5455 50.5887,97.7235 51.5317,97.3985 Z M49.0258,96.5509 C49.3978,96.4129 49.7348,96.9789 49.4218,97.2309 C48.6668,97.8399 47.9418,98.4429 47.4278,99.2779 C47.0668,99.8649 46.1278,99.3139 46.5048,98.7389 C47.1278,97.7869 47.9478,96.9509 49.0258,96.5509 Z M43.5128,97.4819 C45.2228,95.8209 47.6528,94.4359 50.1098,94.7169 C50.4408,94.7549 50.5598,95.2389 50.1928,95.3329 C47.9248,95.9149 45.8938,96.4579 44.1218,98.0899 C43.7148,98.4639 43.1148,97.8689 43.5128,97.4819 Z M83.6801,92.2823 C84.3901,92.0303 84.6821,93.1453 83.9891,93.4033 C80.4891,94.7013 77.1421,96.3113 73.7041,97.7533 C73.1311,97.9933 72.7861,97.0683 73.2921,96.7753 C76.5511,94.8893 80.1391,93.5393 83.6801,92.2823 Z M48.5134,73.9809 C48.2394,73.2299 49.1944,72.6789 49.7734,72.9849 C49.8714,73.0029 49.9714,73.0319 50.0724,73.0859 C52.2724,74.2445364 54.6903752,74.2783793 57.1420657,74.2062118 L58.1241032,74.1741058 C60.7453357,74.0862921 63.3769758,74.0324152 65.7954,75.2489 C69.8094,77.2669 72.2984,81.4329 72.4184,85.8759 C72.4454,86.8939 71.4374,87.2459 70.7074,86.9489 C70.3574,87.4409 69.9524,87.8929 69.5024,88.3039 C70.5434,88.0229 71.5844,87.7559 72.6194,87.4979 C77.3214,86.3279 82.1244,85.4419 86.9504,84.9769 C87.8094,84.8939 87.7784,86.1989 86.9504,86.3019 C79.9974,87.1639 72.9914,88.7949 66.2564,90.9969 C66.4724,91.3129 66.6764,91.6299 66.8654,91.9509 C67.3254,92.7289 66.2734,93.4949 65.6434,92.8949 C65.2024,92.4759 64.7694,92.0589 64.3384,91.6429 C62.6854,92.2139 61.0504,92.8189 59.4394,93.4549 C58.7754,93.7179 58.3754,92.6629 58.9654,92.3289 C60.2194,91.6189 61.5324,91.0149 62.8744,90.4719 C62.7364,90.3229 62.6394,90.1469 62.5854,89.9549 C59.3644,86.8699 56.1484,83.9839 52.0104,81.8289 C51.3264,81.4729 51.8144,80.2889 52.5384,80.5749 L52.5384,80.5749 L52.7484,80.6629 C50.8794,78.7789 49.4344,76.5139 48.5134,73.9809 Z M64.7774,77.5289 C65.6554,79.0339 66.0284,80.7929 65.7324,82.5989 C65.4104,84.5709 64.2924,85.9109 62.8764,87.1319 C63.2764,87.5059 63.6664,87.8869 64.0374,88.2779 C66.1754,87.9519 68.5714,86.6349 69.6994,84.8159 C69.7474,84.7389 69.8004,84.6749 69.8554,84.6169 C69.3774,81.5139 67.4594,78.9329 64.7774,77.5289 Z M42.3931,86.1361 C44.1511,84.9571 46.8271,83.5391 49.0121,83.9801 C49.5111,84.0801 49.3921,84.7241 49.0121,84.8761 C48.0591,85.2591 46.9731,85.2931 45.9841,85.5971 C44.8921,85.9311 43.8791,86.4211 42.9091,87.0201 C42.3441,87.3681 41.8511,86.4991 42.3931,86.1361 Z M47.8941,86.1783 L48.6381,86.2013 C49.1921,86.2183 49.1921,87.0443 48.6381,87.0613 C48.3901,87.0693 48.1421,87.0763 47.8941,87.0843 C47.3101,87.1023 47.3111,86.1593 47.8941,86.1783 L47.8941,86.1783 Z M44.1391,82.6559 C45.6811,81.9529 47.4261,81.4769 49.1311,81.6649 C49.8161,81.7399 49.8501,82.7429 49.1311,82.7579 C47.5081,82.7899 46.0341,82.9329 44.5161,83.5489 C44.0011,83.7569 43.6421,82.8829 44.1391,82.6559 Z M60.6584,79.5209 C60.6584,78.3719 59.8934,77.3319 58.6344,77.4959 C57.6464,77.6249 56.8284,78.4269 56.8284,79.5749 C56.8284,80.7239 57.6404,81.5749 58.6344,81.6539 C60.0024,81.7639 60.6584,80.6689 60.6584,79.5209 Z M76.6802,74.2119 C76.0652,73.5949 77.0042,72.6609 77.6332,73.2589 C78.6762,74.2489 79.6272,75.3189 80.4742,76.4829 C81.2632,77.5679 82.3022,78.9029 82.5232,80.2479 C82.6182,80.8289 81.8902,81.4499 81.4152,80.8929 C80.6012,79.9339 80.1602,78.6609 79.4652,77.6009 C78.6592,76.3699 77.7162,75.2529 76.6802,74.2119 Z M55.1491902,76.9382194 L55.0384,76.9459 C54.5914,77.0049 54.2224,77.3679 54.2224,77.8869 C54.2224,78.4059 54.5884,78.7909 55.0384,78.8269 C55.6564,78.8769 55.9534,78.3819 55.9534,77.8619 C55.9534,77.3429 55.6074,76.8719 55.0384,76.9459 Z M73.5034632,69.642619 L73.5984,69.653 C76.3924,70.166 79.9994,71.759 81.3184,74.464 C81.5644,74.968 80.9874,75.38 80.5694,75.041 C79.4404,74.126 78.5604,73.039 77.2984,72.268 C76.0574,71.509 74.7174,71.03 73.2944,70.752 C72.5724,70.611 72.8834,69.523 73.5984,69.653 Z M96.4260965,66.7865 C96.4241,66.2245 97.2751,66.1035 97.4091,66.6535 C97.8051,68.2865 98.0571,69.8955 98.6391,71.4835 C98.8871,72.1615 97.8111,72.4465 97.5631,71.7805 C96.9771,70.2065 96.4361,68.4795 96.4260965,66.7865 Z M65.5366,67.7266 C69.8996,66.8566 74.8196,66.8756 78.8776,68.9046 C79.4396,69.1856 79.0316,70.0176 78.4656,69.8816 C74.1716,68.8516 70.3006,68.1446 65.8896,69.0046 C65.0556,69.1666 64.7006,67.8936 65.5366,67.7266 Z M94.1103,65.5488 C94.2383,65.1938 94.6733,65.0378 94.9643,65.3228 C95.4203,65.7718 95.5003,66.3008 95.6293,66.9058 C95.7663,67.5508 95.9023,68.1968 96.0403,68.8418 C96.2293,69.7308 94.8853,70.1108 94.6733,69.2188 C94.5203,68.5768 94.3673,67.9368 94.2143,67.2948 C94.0713,66.6968 93.8913,66.1498 94.1103,65.5488 Z M16.9521,28.2745 C16.3191,27.7295 17.1401,26.7325 17.8261,27.1425 C25.0201,31.4435 30.9731,37.6465 35.8341,44.4275 C40.6211,51.1045 45.3441,59.2895 46.5881,67.5285 C46.7201,68.4035 45.4481,69.1575 45.0161,68.1915 C44.8851,67.8995 44.7601,67.6055 44.6331,67.3115 C43.6031,66.6105 42.5591,66.0935 41.1991,66.0595 C40.3751,66.0405 40.3761,64.7565 41.1991,64.7815 C42.0631,64.8075 42.9721,64.9895 43.8041,65.3345 C43.5601,64.7335 43.3201,64.1315 43.0791,63.5305 C42.3661,63.2145 41.6581,62.8865 40.8991,62.6755 C39.5261,62.2955 38.1431,62.2175 36.7301,62.3425 C35.9731,62.4105 35.8051,61.1265 36.5501,61.0185 C38.2761,60.7695 40.3561,60.7595 42.1851,61.2975 C42.1051,61.0995 42.0231,60.9025 41.9421,60.7045 C41.0371,60.1805 40.1471,59.6255 39.1871,59.1965 C37.0791,58.2545 34.8611,57.6915 32.5801,57.3745 C31.7491,57.2585 31.9531,55.8195 32.7781,55.9135 C35.1751,56.1855 38.1691,56.7485 40.7281,57.8895 C40.5561,57.5125 40.3831,57.1365 40.2031,56.7625 C38.4451,53.1345 36.4111,49.6465 34.1021,46.3405 C29.2961,39.4575 23.2931,33.7195 16.9521,28.2745 Z M68.2168373,65.4736127 L68.7236,65.4876 C69.4306,65.5166 69.4236,66.5356 68.7236,66.5806 C66.3266,66.7316 63.9756,67.1106 61.7006,67.8936 C60.9456,68.1546 60.6346,66.9706 61.3736,66.7066 C63.7646,65.8466 66.1816,65.3796 68.7236,65.4876 Z M70.163,51.0828 C71.192,51.0778 72.368,51.0378 73.238,51.6488 C73.758,52.0128 73.764,52.9308 73.049,53.0928 C72.4646,53.226 71.89532,53.16588 71.32172,53.077248 L70.74596,52.985216 C70.55308,52.95544 70.359,52.9286 70.163,52.9108 C69.127,52.8168 68.094,52.8348 67.058,52.9278 C66.195,53.0038 66.012,51.5758 66.854,51.4208 C67.948,51.2188 69.051,51.0888 70.163,51.0828 Z"></path>
            </g>
        </g>
    </g>
</svg>