<?xml version="1.0" encoding="UTF-8"?>
<svg width="131px" height="140px" viewBox="0 0 131 140" version="1.1" xmlns="http://www.w3.org/2000/svg" xmlns:xlink="http://www.w3.org/1999/xlink">
    <title>Combined Shape</title>
    <g id="Symbols" stroke="none" stroke-width="1" fill="none" fill-rule="evenodd">
        <g id="Taller-veganista-logo" fill="#000000" fill-rule="nonzero">
            <path d="M83.4486198,130.071937 L80.7546198,139.999937 L74.5376198,131.784937 L76.9396198,131.323937 L79.9856198,136.011937 L81.0576198,130.531937 L83.4486198,130.071937 Z M49.4585198,128.287237 L50.6965198,128.694237 L51.4315198,128.937237 L52.4485198,129.272237 C53.4915198,129.616237 54.1995198,130.126237 54.5725198,130.803237 C54.9445198,131.479237 54.9985198,132.219237 54.7345198,133.020237 C54.5455198,133.595237 54.2425198,134.048237 53.8255198,134.382237 C53.4095198,134.715237 52.8985198,134.895237 52.2945198,134.923237 L52.2945198,134.923237 L53.3925198,138.737237 L51.0685198,137.972237 L50.2585198,134.539237 L49.6515198,134.339237 L48.7095198,137.193237 L46.7355198,136.543237 L49.4585198,128.287237 Z M65.0489588,133.812564 L65.1897198,133.814637 C65.5247198,133.837637 65.7937198,133.966637 65.9957198,134.205637 C66.1977198,134.442637 66.2877198,134.717637 66.2667198,135.032637 C66.2467198,135.337637 66.1207198,135.596637 65.8877198,135.809637 C65.6567198,136.022637 65.3727198,136.117637 65.0377198,136.094637 C64.7017198,136.072637 64.4327198,135.940637 64.2317198,135.699637 C64.0297198,135.457637 63.9397198,135.183637 63.9607198,134.877637 C63.9807198,134.564637 64.1077198,134.302637 64.3387198,134.093637 C64.5707198,133.885637 64.8537198,133.793637 65.1897198,133.814637 Z M96.0158198,124.536037 L96.8218198,126.076037 L93.5178198,127.803037 L94.2318198,129.167037 L97.3168198,127.555037 L98.0988198,129.051037 L95.0148198,130.663037 L95.9358198,132.424037 L99.2378198,130.697037 L100.04282,132.238037 L96.7418198,133.964037 L96.1848198,134.254037 L94.9638198,134.892037 L90.9368198,127.191037 L92.1568198,126.553037 L92.7128198,126.262037 L96.0158198,124.536037 Z M50.8725198,130.636237 L50.1645198,132.782237 L51.0285198,133.067237 C51.4265198,133.198237 51.7675198,133.207237 52.0555198,133.092237 C52.3445198,132.977237 52.5445198,132.752237 52.6555198,132.413237 C52.7685198,132.067237 52.7445198,131.765237 52.5795198,131.506237 C52.4145198,131.247237 52.1335198,131.052237 51.7365198,130.921237 L51.7365198,130.921237 L50.8725198,130.636237 Z M36.8173198,121.124537 L37.9543198,121.900537 L38.4723198,122.254537 L41.5483198,124.355537 L40.5663198,125.791537 L37.4913198,123.689537 L36.6233198,124.961537 L39.4953198,126.923537 L38.5433198,128.317537 L35.6703198,126.355537 L34.5503198,127.996537 L37.6253198,130.096537 L36.6443198,131.532537 L33.5683198,129.431537 L33.0513198,129.078537 L31.9143198,128.300537 L36.8173198,121.124537 Z M108.15992,115.120737 C108.88592,114.944737 109.60392,114.930737 110.31392,115.078737 L110.31392,115.078737 L109.67392,117.071737 C109.29592,116.967737 108.91092,116.949737 108.52092,117.015737 C108.12992,117.081737 107.75392,117.291737 107.39292,117.649737 C107.05492,117.983737 106.81892,118.366737 106.68492,118.794737 C106.54992,119.224737 106.54292,119.666737 106.66192,120.118737 C106.78092,120.571737 107.04092,121.000737 107.44292,121.407737 C107.84392,121.813737 108.27292,122.085737 108.72692,122.224737 C109.18092,122.363737 109.62692,122.374737 110.06792,122.260737 C110.50692,122.145737 110.90492,121.913737 111.26092,121.561737 C111.71492,121.112737 111.96292,120.658737 112.00392,120.198737 C112.04592,119.738737 111.95792,119.289737 111.74292,118.849737 L111.74292,118.849737 L110.11692,120.457737 L108.98292,119.309737 L112.08592,116.241737 C112.59892,116.701737 113.00392,117.210737 113.30392,117.770737 C113.60392,118.330737 113.78292,118.907737 113.83992,119.501737 C113.89792,120.095737 113.81892,120.683737 113.60292,121.263737 C113.38692,121.843737 113.01692,122.393737 112.49192,122.912737 C111.84492,123.550737 111.13192,123.982737 110.35392,124.204737 C109.57592,124.424737 108.79992,124.432737 108.02592,124.226737 C107.25092,124.020737 106.54092,123.589737 105.89492,122.936737 C105.24792,122.283737 104.83392,121.566737 104.65192,120.787737 C104.46892,120.007737 104.50292,119.231737 104.75392,118.459737 C105.00492,117.687737 105.45392,116.982737 106.10192,116.341737 C106.74792,115.703737 107.43492,115.294737 108.15992,115.120737 Z M27.1135198,111.483537 L28.4615198,113.065537 L23.2215198,117.524537 L25.4645198,120.155537 L24.0835198,121.330537 L20.4945198,117.117537 L27.1135198,111.483537 Z M90.4304198,0.304037233 C93.4924198,-0.805962767 95.7084198,1.25603723 95.7084198,4.33503723 C95.7074198,7.96803723 93.4884198,10.9810372 92.0504198,14.1580372 C90.5017531,17.5796706 90.5195142,21.262865 90.7085538,24.9300327 L90.7608364,25.8861391 C90.8061142,26.6822872 90.8537531,27.4765372 90.8894198,28.2660372 C91.2554198,36.4100372 89.5824198,44.3750372 85.9794198,51.6520372 C90.3514198,53.3020372 94.3874198,56.2520372 97.2714198,59.4830372 C97.8954198,60.1810372 97.6284198,61.4540372 96.8824198,61.8650372 C100.30842,64.8610372 103.12342,68.4010372 105.18142,72.5700372 C105.54942,73.3140372 105.24742,73.9490372 104.73242,74.2390372 C106.83742,75.7900372 108.84042,77.4940372 110.15142,79.8010372 L110.15142,79.8010372 L110.20742,79.9050372 C112.33142,79.2140372 114.49842,78.6530372 116.69342,78.2350372 C117.27542,78.1230372 117.52342,78.9660372 116.94042,79.1310372 C114.84842,79.7270372 112.75842,80.2640372 110.69242,80.8820372 C111.54042,82.8060372 111.92342,84.9940372 111.90242,87.1300372 C112.01142,87.1340372 112.11942,87.1370372 112.22742,87.1400372 C112.85642,87.1570372 112.85542,88.1420372 112.22742,88.1160372 C112.10742,88.1110372 111.98742,88.1060372 111.86642,88.1010372 C111.82642,88.7100372 111.75442,89.3120372 111.64842,89.8960372 C111.51542,90.6370372 110.85642,90.8040372 110.30442,90.5970372 C110.33042,94.9820372 107.79642,98.9030372 104.77842,102.260037 C102.56542,104.723037 100.22142,107.116037 97.7984198,109.374037 C95.8084198,111.227037 93.6214198,113.447037 91.0944198,114.512037 C86.8064198,120.889037 76.2634198,121.481037 69.4484198,120.734037 C59.8344198,119.679037 50.1694198,116.631037 42.1734198,111.083037 C42.1964198,111.402037 42.1954198,111.727037 42.1884198,112.041037 C42.1694198,112.927037 41.1764198,113.568037 40.3834198,113.077037 C38.6414198,112.000037 37.3094198,110.514037 36.5384198,108.732037 C36.4884198,108.867037 36.4424198,109.006037 36.4034198,109.154037 C36.0634198,110.453037 34.4074198,110.235037 33.9824198,109.154037 C32.5824198,105.605037 32.6834198,101.742037 34.3504198,98.4190372 C34.0864198,98.5100372 33.8224198,98.6040372 33.5564198,98.6920372 C32.3274198,99.1010372 31.5164198,97.6680372 31.9994198,96.6660372 C33.9224198,92.6740372 35.0884198,88.5360372 35.4114198,84.1090372 C35.7074198,80.0620372 35.3894198,76.0080372 35.3894198,71.9570372 C32.6484198,69.2300372 29.7904198,66.6540372 26.8194198,64.0690372 C22.3284198,60.1600372 18.2104198,55.9550372 15.0204198,50.8970372 C12.2374198,46.4810372 10.2034198,41.6330372 8.89341977,36.5850372 C8.6663508,35.7091752 8.45768255,34.8172311 8.25216736,33.9181587 L8.00608675,32.8364234 C7.10218433,28.8617174 6.14124735,24.8183476 3.82441977,21.4690372 C3.49285455,20.9892981 3.09990559,20.5408633 2.69421594,20.0982397 L2.08220632,19.4354759 C1.13424396,18.4013756 0.249332811,17.3295155 0.0454197676,15.8960372 C-0.204580232,14.1320372 0.581419768,12.4910372 2.30541977,11.8550372 C4.43141977,11.0700372 7.39641977,11.7550372 9.57341977,12.0910372 C11.9094198,12.4510372 14.2114198,13.0090372 16.4574198,13.7430372 C34.4084198,19.6170372 46.5934198,35.3010372 51.6624198,52.9260372 C53.4714198,50.4180372 56.2034198,48.3740372 59.0334198,47.4540372 C59.9694198,47.1500372 60.6074198,48.2370372 60.2624198,48.9640372 C60.9464198,48.5920372 61.6564198,48.2550372 62.3864198,47.9600372 C62.9394198,39.9320372 65.3514198,32.2980372 68.9834198,25.1040372 C72.3384198,18.4570372 76.7644198,12.3200372 82.0294198,7.05403723 C84.3674198,4.71603723 87.2474198,1.45703723 90.4304198,0.304037233 Z M92.5364198,3.94903723 C91.2534198,2.13303723 88.0254198,5.77903723 87.0584198,6.63803723 C75.0064198,17.3290372 68.0224198,31.6550372 64.7164198,47.1820372 C66.5864198,46.6860372 68.5144198,46.4830372 70.3844198,46.6860372 C72.0254198,46.8620372 72.0054198,49.0290372 70.3844198,49.2240372 C66.0134198,49.7480372 62.3904198,50.5480372 58.4774198,52.6600372 C57.4594198,53.2100372 56.2234198,51.7730372 57.1924198,50.9950372 C57.3704198,50.8530372 57.5554198,50.7140372 57.7404198,50.5760372 C56.8674198,51.0960372 56.0264198,51.6600372 55.2444198,52.3540372 C54.1774198,53.3010372 53.2434198,54.4020372 52.3484198,55.5180372 C52.7514198,57.1610372 53.1004198,58.8160372 53.3814198,60.4790372 C53.6474198,62.0610372 51.3074198,62.7690372 50.9324198,61.1530372 C48.5084198,50.7200372 44.1704198,40.0710372 37.2054198,31.8280372 C31.1494198,24.6610372 23.1204198,19.0970372 14.0684198,16.4800372 C11.8164198,15.8290372 9.50941977,15.3490372 7.17841977,15.1030372 C7.07546325,15.0921677 6.97131202,15.0788482 6.86654075,15.0643018 L6.55094151,15.0182048 C5.54929311,14.8683208 4.5435502,14.7180807 4.02641977,15.6160372 C3.43441977,16.6460372 3.89341977,16.6390372 4.59641977,17.4630372 C4.93341977,17.8600372 5.27641977,18.2490372 5.59641977,18.6610372 C8.24941977,22.0870372 9.55641977,26.2060372 10.5804198,30.3610372 C11.7184198,34.9730372 12.7294198,39.5430372 14.7274198,43.8840372 C16.7504198,48.2760372 19.4544198,52.3570372 22.7254198,55.9150372 C28.8574198,62.5870372 37.4904198,67.4070372 42.3134198,75.2160372 C43.1564198,76.5810372 41.1474198,78.1590372 40.0794198,76.9400372 C39.2434198,75.9870372 38.3914198,75.0650372 37.5304198,74.1570372 C38.4364198,81.3480372 38.0894198,88.4370372 35.5664198,95.2190372 C35.7584198,95.1630372 35.9504198,95.1080372 36.1414198,95.0520372 C37.4434198,94.6730372 38.0984198,96.1570372 37.5054198,97.0430372 C37.4964198,97.2000372 37.4504198,97.3670372 37.3484198,97.5420372 C35.8574198,100.085037 35.2594198,102.893037 35.6574198,105.684037 C35.7464198,105.632037 35.8374198,105.594037 35.9314198,105.571037 C36.2044198,105.205037 36.9384198,105.288037 37.1184198,105.797037 C37.1494198,105.884037 37.1884198,105.967037 37.2224198,106.052037 C37.3674198,106.233037 37.4644198,106.446037 37.4794198,106.675037 C38.0504198,107.903037 38.8654198,108.986037 39.8834198,109.853037 C39.9314198,109.737037 39.9874198,109.623037 40.0654198,109.512037 C40.1024198,109.459037 40.1444198,109.412037 40.1874198,109.369037 C40.0304198,108.719037 40.6384198,108.008037 41.4204198,108.410037 C49.5034198,112.572037 57.8514198,115.925037 66.8804198,117.325037 C71.3504198,118.019037 76.1714198,118.461037 80.6174198,117.379037 C85.0424198,116.302037 87.9564198,113.764037 90.3484198,110.003037 C90.9344198,109.080037 92.1544198,109.320037 92.5524198,110.105037 C93.6564198,109.201037 94.8084198,108.336037 95.8284198,107.404037 C97.6594198,105.731037 99.4454198,104.010037 101.20242,102.258037 C105.02342,98.4450372 109.09842,93.7420372 108.39242,87.9570372 C107.37542,87.9150372 106.35842,87.8730372 105.34142,87.8310372 C104.77342,87.8080372 104.77042,86.9320372 105.34142,86.9470372 L105.34142,86.9470372 L108.47842,87.0350372 C108.68142,86.7450372 109.06942,86.6240372 109.37942,86.7570372 C109.30342,84.9850372 109.15442,83.2630372 108.46642,81.5910372 C107.45442,81.9370372 106.44942,82.3130372 105.45642,82.7430372 C104.90142,82.9850372 104.41442,82.1730372 104.97542,81.9200372 C105.97842,81.4700372 106.99642,81.0540372 108.02442,80.6680372 C107.95742,80.5440372 107.89042,80.4210372 107.81542,80.2980372 C106.43142,78.0280372 104.23842,76.2510372 102.23342,74.5510372 C101.73542,74.1290372 102.01142,73.4240372 102.48442,73.1600372 C102.42542,73.0810372 102.36542,73.0030372 102.30642,72.9250372 C102.11942,72.6810372 102.06942,72.4230372 102.10742,72.1790372 C99.6524198,67.8310372 96.4834198,63.9650372 92.5644198,60.8230372 C92.0204198,60.3860372 92.3114198,59.6310372 92.8174198,59.3340372 C90.9434198,57.7670372 88.9384198,56.4030372 86.6984198,55.3030372 C83.4994198,53.7320372 80.0744198,52.9470372 76.7234198,51.7930372 C76.1344198,51.5900372 75.9674198,50.5280372 76.7234198,50.4210372 C78.7554198,50.1370372 80.8334198,50.2720372 82.8804198,50.7250372 C84.9984198,46.6050372 86.4904198,42.2210372 87.2414198,37.6390372 C88.0584198,32.6560372 87.5324198,27.7850372 87.4404198,22.7830372 C87.3564198,18.2470372 88.3044198,14.4340372 90.3774198,10.4240372 C90.9824198,9.25403723 93.4854198,5.29303723 92.5364198,3.94903723 Z M75.5681198,113.110537 C75.0611198,112.714537 75.7731198,112.012537 76.2751198,112.404537 C77.4701198,113.337537 78.8021198,113.793537 80.2561198,114.150537 C80.7361198,114.267537 80.6371198,115.048537 80.1381198,115.017537 C78.4441198,114.911537 76.8901198,114.142537 75.5681198,113.110537 Z M66.4855198,107.922137 C66.2745198,107.499137 66.8475198,106.978137 67.1785198,107.387137 C69.2415198,109.935137 71.2775198,112.253137 74.1545198,113.920137 C74.4985198,114.119137 74.1965198,114.600137 73.8485198,114.442137 C70.8635198,113.085137 67.9785198,110.918137 66.4855198,107.922137 Z M63.0920198,107.238137 C62.9320198,106.663137 63.8000198,106.274137 64.0700198,106.826137 C65.0030198,108.736137 66.2290198,110.525137 67.9250198,111.835137 C68.5870198,112.346137 67.9460198,113.491137 67.2560198,112.979137 C65.2760198,111.510137 63.7630198,109.635137 63.0920198,107.238137 Z M115.23682,103.413037 L125.52082,103.729037 L124.41682,105.816037 L122.55582,105.750037 L121.27982,108.164037 L122.38282,109.665037 L121.27982,111.752037 L115.23682,103.413037 Z M59.7023198,106.976037 C59.4803198,106.522037 60.0573198,106.006037 60.4333198,106.412037 C61.4443198,107.507037 62.4533198,108.599037 63.7053198,109.424037 C64.3913198,109.876037 63.7433198,110.987037 63.0593198,110.528037 C61.6843198,109.606037 60.4373198,108.479037 59.7023198,106.976037 Z M55.5000198,106.238537 C55.1730198,105.801537 55.8680198,105.321537 56.2310198,105.674537 C56.9710198,106.395537 57.7470198,107.098537 58.5930198,107.693537 C59.1920198,108.115537 58.6050198,109.109537 58.0180198,108.676537 C57.0560198,107.968537 56.2170198,107.195537 55.5000198,106.238537 Z M20.1696198,99.6769372 L21.0656198,101.551937 L14.8586198,104.518937 L16.3486198,107.635937 L14.7126198,108.416937 L12.3256198,103.424937 L20.1696198,99.6769372 Z M118.55282,105.165037 L120.05882,107.046037 L120.94982,105.360037 L118.55282,105.165037 Z M100.32852,78.2995372 C101.13452,77.9315372 102.14252,78.5385372 101.88252,79.4955372 C101.68852,80.2015372 101.22352,80.7375372 100.63652,81.1395372 C100.63552,81.1765372 100.63152,81.2155372 100.61552,81.2515372 C100.22552,82.1705372 99.1845198,84.1315372 97.9985198,84.2745372 C98.4565198,87.6765372 98.5995198,91.3345372 97.7265198,94.5485372 C98.5785198,95.1375372 99.4665198,95.6855372 100.41252,96.1055372 C101.98652,96.8065372 103.03852,96.2895372 104.32352,95.3195372 C105.01552,94.7985372 105.65552,95.8675372 105.18252,96.4335372 C104.13352,97.6915372 102.85252,98.6475372 101.11652,98.2525372 C100.82852,98.1865372 100.54452,98.0905372 100.26352,97.9845372 C99.6535198,98.7455372 98.6325198,99.9205372 97.8195198,100.352537 C96.8795198,100.854537 95.0835198,100.500537 94.2705198,100.298537 C93.5245198,100.952537 92.6595198,101.531537 91.6485198,102.014537 C88.5695198,103.488537 84.7705198,104.045537 81.3715198,104.062537 C78.5535198,104.077537 74.3975198,103.654537 72.4705198,101.358537 C72.1495198,100.974537 72.3085198,100.146537 72.9395198,100.227537 C74.2735198,100.398537 75.3295198,101.020537 76.6195198,101.409537 C78.0395198,101.837537 79.4965198,102.032537 80.9775198,102.060537 C83.7995198,102.114537 86.8185198,101.776537 89.4975198,100.864537 C96.7239904,98.4031402 96.9523478,91.426183 96.684184,84.9574642 L96.6582095,84.3619415 L96.6582095,84.3619415 L96.6445198,84.0655372 C96.6405198,83.9755372 96.6555198,83.8955372 96.6835198,83.8225372 C96.4875198,83.6915372 96.2995198,83.5545372 96.1235198,83.4415372 C95.2915198,82.9075372 94.4595198,82.3725372 93.6285198,81.8385372 C93.4685198,81.7355372 93.3805198,81.5985372 93.3415198,81.4535372 C93.0505198,81.3605372 92.7605198,81.2635372 92.4705198,81.1665372 C91.2805198,80.7605372 91.7595198,79.0155372 92.9905198,79.2825372 C94.4125198,79.5905372 95.8825198,79.9135372 97.3445198,79.7295372 C98.6215198,79.5705372 99.2505198,78.7945372 100.32852,78.2995372 Z M51.5305198,97.3986372 C52.0445198,97.2216372 52.4615198,97.9536372 52.0625198,98.3116372 C51.5825198,98.7436372 51.0805198,99.1656372 50.8365198,99.7826372 C50.7115198,100.098637 50.4215198,100.319637 50.0635198,100.220637 C49.7615198,100.137637 49.5015198,99.7646372 49.6255198,99.4496372 C49.9825198,98.5456372 50.5875198,97.7236372 51.5305198,97.3986372 Z M49.0256198,96.5509372 C49.3976198,96.4129372 49.7346198,96.9789372 49.4216198,97.2309372 C48.6676198,97.8399372 47.9416198,98.4429372 47.4276198,99.2779372 C47.0666198,99.8649372 46.1286198,99.3139372 46.5046198,98.7389372 C47.1276198,97.7869372 47.9476198,96.9509372 49.0256198,96.5509372 Z M43.5126198,97.4819372 C45.2226198,95.8209372 47.6526198,94.4359372 50.1086198,94.7169372 C50.4406198,94.7549372 50.5596198,95.2389372 50.1926198,95.3329372 C47.9246198,95.9149372 45.8936198,96.4579372 44.1216198,98.0899372 C43.7146198,98.4639372 43.1146198,97.8689372 43.5126198,97.4819372 Z M83.6799198,92.2824372 C84.3899198,92.0304372 84.6819198,93.1454372 83.9889198,93.4034372 C80.4889198,94.7014372 77.1419198,96.3114372 73.7039198,97.7534372 C73.1309198,97.9934372 72.7859198,97.0684372 73.2919198,96.7754372 C76.5509198,94.8894372 80.1389198,93.5394372 83.6799198,92.2824372 Z M121.70942,84.3009372 L130.69942,85.8849372 L124.52042,90.8259372 L129.24142,91.6579372 L128.89442,93.6319372 L119.90442,92.0479372 L126.08342,87.1069372 L121.36242,86.2749372 L121.70942,84.3009372 Z M7.42151977,84.5447372 L17.2775198,87.5437372 L8.89051977,93.5027372 L8.50851977,91.1717372 L10.0315198,90.1007372 L9.59051977,87.4067372 L7.80351977,86.8747372 L7.42151977,84.5447372 Z M48.5132198,73.9810372 C48.2392198,73.2300372 49.1942198,72.6790372 49.7732198,72.9850372 C49.8712198,73.0030372 49.9702198,73.0320372 50.0712198,73.0860372 C52.2716743,74.2446736 54.6898975,74.2785166 57.1417231,74.206349 L58.123809,74.174243 C60.7451555,74.0864293 63.3767955,74.0325524 65.7952198,75.2490372 C69.8092198,77.2670372 72.2982198,81.4330372 72.4182198,85.8760372 C72.4452198,86.8940372 71.4372198,87.2460372 70.7072198,86.9490372 C70.3582198,87.4410372 69.9522198,87.8930372 69.5022198,88.3040372 C70.5432198,88.0230372 71.5842198,87.7560372 72.6192198,87.4980372 C77.3212198,86.3280372 82.1242198,85.4420372 86.9502198,84.9770372 C87.8092198,84.8940372 87.7782198,86.1990372 86.9502198,86.3020372 C79.9972198,87.1640372 72.9912198,88.7950372 66.2562198,90.9970372 C66.4722198,91.3130372 66.6762198,91.6300372 66.8652198,91.9510372 C67.3252198,92.7290372 66.2732198,93.4950372 65.6422198,92.8950372 C65.2022198,92.4760372 64.7692198,92.0590372 64.3372198,91.6430372 C62.6852198,92.2140372 61.0502198,92.8190372 59.4392198,93.4550372 C58.7752198,93.7180372 58.3752198,92.6630372 58.9652198,92.3290372 C60.2202198,91.6190372 61.5322198,91.0150372 62.8742198,90.4730372 C62.7362198,90.3230372 62.6392198,90.1470372 62.5852198,89.9550372 C59.3642198,86.8700372 56.1482198,83.9840372 52.0102198,81.8280372 C51.3262198,81.4730372 51.8142198,80.2890372 52.5382198,80.5750372 L52.5382198,80.5750372 L52.7482198,80.6630372 C50.8792198,78.7790372 49.4342198,76.5140372 48.5132198,73.9810372 Z M11.2385198,87.5597372 L11.5475198,89.4417372 L13.5755198,88.1497372 L11.2385198,87.5597372 Z M64.7772198,77.5290372 C65.6552198,79.0340372 66.0282198,80.7930372 65.7322198,82.5980372 C65.4092198,84.5710372 64.2922198,85.9110372 62.8762198,87.1320372 C63.2762198,87.5060372 63.6662198,87.8870372 64.0372198,88.2780372 C66.1752198,87.9520372 68.5712198,86.6350372 69.6992198,84.8160372 C69.7472198,84.7390372 69.8002198,84.6750372 69.8552198,84.6170372 C69.3772198,81.5140372 67.4582198,78.9330372 64.7772198,77.5290372 Z M42.3929198,86.1361372 C44.1509198,84.9571372 46.8269198,83.5391372 49.0119198,83.9801372 C49.5109198,84.0801372 49.3919198,84.7241372 49.0119198,84.8761372 C48.0589198,85.2591372 46.9719198,85.2931372 45.9839198,85.5971372 C44.8919198,85.9311372 43.8789198,86.4211372 42.9089198,87.0201372 C42.3429198,87.3681372 41.8509198,86.4991372 42.3929198,86.1361372 Z M47.8939198,86.1783372 L48.6379198,86.2013372 C49.1929198,86.2193372 49.1919198,87.0443372 48.6379198,87.0613372 C48.3899198,87.0693372 48.1419198,87.0763372 47.8939198,87.0843372 C47.3099198,87.1023372 47.3109198,86.1593372 47.8939198,86.1783372 L47.8939198,86.1783372 Z M44.1389198,82.6560372 C45.6809198,81.9530372 47.4259198,81.4770372 49.1309198,81.6650372 C49.8159198,81.7400372 49.8499198,82.7430372 49.1309198,82.7580372 C47.5079198,82.7900372 46.0339198,82.9330372 44.5159198,83.5490372 C44.0009198,83.7570372 43.6419198,82.8830372 44.1389198,82.6560372 Z M60.6582198,79.5210372 C60.6582198,78.3720372 59.8932198,77.3320372 58.6342198,77.4960372 C57.6462198,77.6250372 56.8282198,78.4270372 56.8282198,79.5750372 C56.8282198,80.7240372 57.6402198,81.5740372 58.6342198,81.6540372 C60.0022198,81.7640372 60.6582198,80.6690372 60.6582198,79.5210372 Z M76.6800198,74.2119372 C76.0660198,73.5949372 77.0040198,72.6609372 77.6330198,73.2589372 C78.6760198,74.2489372 79.6270198,75.3189372 80.4740198,76.4829372 C81.2630198,77.5679372 82.3020198,78.9029372 82.5230198,80.2479372 C82.6180198,80.8289372 81.8900198,81.4499372 81.4150198,80.8929372 C80.6010198,79.9339372 80.1600198,78.6609372 79.4650198,77.6009372 C78.6590198,76.3709372 77.7160198,75.2529372 76.6800198,74.2119372 Z M55.1490227,76.9383566 L55.0382198,76.9460372 C54.5912198,77.0050372 54.2222198,77.3670372 54.2222198,77.8870372 C54.2222198,78.4060372 54.5892198,78.7910372 55.0382198,78.8270372 C55.6562198,78.8770372 55.9542198,78.3820372 55.9542198,77.8620372 C55.9542198,77.3430372 55.6072198,76.8720372 55.0382198,76.9460372 Z M14.7464198,70.1308372 L16.6244198,70.3178372 L15.9514198,77.0968372 L14.0724198,76.9098372 L14.3054198,74.5608372 L7.53341977,73.8898372 L7.74041977,71.8098372 L14.5134198,72.4808372 L14.7464198,70.1308372 Z M130.16652,72.3866372 L130.35652,74.4946372 L121.69652,75.2706372 L121.50752,73.1646372 L130.16652,72.3866372 Z M73.5024132,69.6427562 L73.5972198,69.6531372 C76.3922198,70.1661372 79.9992198,71.7591372 81.3172198,74.4641372 C81.5642198,74.9681372 80.9872198,75.3801372 80.5692198,75.0411372 C79.4402198,74.1261372 78.5602198,73.0391372 77.2982198,72.2681372 C76.0562198,71.5091372 74.7172198,71.0301372 73.2942198,70.7521372 C72.5722198,70.6111372 72.8832198,69.5231372 73.5972198,69.6531372 Z M96.4259162,66.7865372 C96.4239198,66.2245372 97.2749198,66.1035372 97.4089198,66.6535372 C97.8049198,68.2865372 98.0569198,69.8955372 98.6389198,71.4835372 C98.8869198,72.1615372 97.8109198,72.4465372 97.5629198,71.7805372 C96.9769198,70.2075372 96.4349198,68.4795372 96.4259162,66.7865372 Z M65.5364198,67.7267372 C69.8994198,66.8567372 74.8194198,66.8757372 78.8774198,68.9047372 C79.4394198,69.1857372 79.0304198,70.0177372 78.4654198,69.8817372 C74.1714198,68.8517372 70.3004198,68.1447372 65.8894198,69.0047372 C65.0554198,69.1667372 64.7004198,67.8937372 65.5364198,67.7267372 Z M94.1101198,65.5489372 C94.2381198,65.1939372 94.6731198,65.0379372 94.9641198,65.3229372 C95.4201198,65.7719372 95.5001198,66.3009372 95.6281198,66.9059372 L95.6281198,66.9059372 L96.0401198,68.8419372 C96.2301198,69.7309372 94.8851198,70.1109372 94.6731198,69.2189372 C94.5201198,68.5779372 94.3671198,67.9369372 94.2141198,67.2949372 C94.0711198,66.6969372 93.8911198,66.1499372 94.1101198,65.5489372 Z M16.9519198,28.2745372 C16.3189198,27.7295372 17.1399198,26.7325372 17.8259198,27.1425372 C25.0199198,31.4435372 30.9729198,37.6465372 35.8339198,44.4275372 C40.6209198,51.1045372 45.3439198,59.2895372 46.5879198,67.5285372 C46.7199198,68.4035372 45.4479198,69.1575372 45.0159198,68.1915372 C44.8849198,67.8995372 44.7599198,67.6055372 44.6339198,67.3115372 C43.6029198,66.6105372 42.5589198,66.0935372 41.1989198,66.0595372 C40.3749198,66.0405372 40.3759198,64.7565372 41.1989198,64.7815372 C42.0629198,64.8075372 42.9719198,64.9895372 43.8039198,65.3345372 C43.5599198,64.7335372 43.3199198,64.1315372 43.0789198,63.5305372 C42.3659198,63.2145372 41.6579198,62.8865372 40.8989198,62.6755372 C39.5259198,62.2955372 38.1429198,62.2175372 36.7299198,62.3425372 C35.9729198,62.4105372 35.8049198,61.1265372 36.5499198,61.0185372 C38.2759198,60.7695372 40.3549198,60.7595372 42.1849198,61.2975372 C42.1049198,61.0995372 42.0229198,60.9025372 41.9419198,60.7055372 C41.0369198,60.1795372 40.1469198,59.6255372 39.1869198,59.1975372 C37.0789198,58.2545372 34.8609198,57.6915372 32.5789198,57.3745372 C31.7489198,57.2585372 31.9529198,55.8195372 32.7779198,55.9135372 C35.1749198,56.1855372 38.1689198,56.7485372 40.7279198,57.8895372 C40.5559198,57.5125372 40.3829198,57.1365372 40.2029198,56.7625372 C38.4449198,53.1345372 36.4109198,49.6465372 34.1029198,46.3405372 C29.2959198,39.4575372 23.2929198,33.7205372 16.9519198,28.2745372 Z M68.2166571,65.47375 L68.7234198,65.4877372 C69.4304198,65.5167372 69.4234198,66.5357372 68.7234198,66.5807372 C66.3264198,66.7317372 63.9754198,67.1107372 61.7004198,67.8937372 C60.9454198,68.1547372 60.6344198,66.9707372 61.3734198,66.7067372 C63.7644198,65.8467372 66.1814198,65.3797372 68.7234198,65.4877372 Z M123.63032,56.1995372 C124.45832,55.9085372 125.18832,55.9635372 125.82232,56.3675372 C126.45532,56.7705372 126.93832,57.4485372 127.27232,58.3995372 C127.44632,58.8945372 127.51832,59.3925372 127.48832,59.8935372 C127.45732,60.3955372 127.33432,60.8715372 127.11932,61.3205372 C126.90332,61.7695372 126.60032,62.1595372 126.20632,62.4885372 L126.20632,62.4885372 L124.74832,61.4495372 C125.14332,60.9975372 125.40932,60.5765372 125.54932,60.1845372 C125.68732,59.7925372 125.68332,59.3835372 125.53332,58.9585372 C125.30332,58.3005372 124.92132,58.0655372 124.39032,58.2525372 C124.15532,58.3345372 123.99432,58.4755372 123.90732,58.6755372 C123.81932,58.8765372 123.76732,59.1205372 123.74932,59.4085372 C123.73132,59.6975372 123.71532,60.0175372 123.69832,60.3715372 C123.69132,60.5995372 123.66732,60.8625372 123.62632,61.1595372 C123.58632,61.4555372 123.50832,61.7545372 123.39532,62.0545372 C123.28032,62.3555372 123.10532,62.6315372 122.86932,62.8835372 C122.63332,63.1365372 122.31532,63.3325372 121.91732,63.4725372 C121.45632,63.6345372 121.01132,63.6545372 120.58132,63.5315372 C120.15232,63.4085372 119.76632,63.1645372 119.42232,62.7975372 C119.07932,62.4315372 118.81032,61.9705372 118.61432,61.4135372 C118.41032,60.8345372 118.33032,60.3105372 118.37232,59.8435372 C118.41532,59.3775372 118.53132,58.9725372 118.72432,58.6315372 C118.91632,58.2915372 119.13332,58.0165372 119.37732,57.8095372 L119.37732,57.8095372 L120.74932,58.9835372 C120.50432,59.2595372 120.33632,59.5435372 120.24432,59.8315372 C120.15232,60.1205372 120.16232,60.4225372 120.27332,60.7405372 C120.37432,61.0255372 120.51432,61.2305372 120.69332,61.3545372 C120.87232,61.4785372 121.06732,61.5035372 121.27832,61.4295372 C121.46732,61.3635372 121.59632,61.2195372 121.66832,60.9995372 C121.73932,60.7795372 121.78032,60.5065372 121.78932,60.1815372 C121.79832,59.8575372 121.80632,59.5155372 121.81132,59.1575372 C121.81132,58.7315372 121.86532,58.3235372 121.97532,57.9335372 C122.08332,57.5445372 122.27032,57.1985372 122.53232,56.8975372 C122.79532,56.5955372 123.16132,56.3635372 123.63032,56.1995372 Z M70.1628198,51.0839372 C71.1918198,51.0779372 72.3668198,51.0379372 73.2378198,51.6489372 C73.7578198,52.0129372 73.7638198,52.9309372 73.0488198,53.0929372 C72.0758198,53.3149372 71.1428198,52.9999372 70.1628198,52.9109372 C69.1268198,52.8169372 68.0938198,52.8349372 67.0578198,52.9279372 C66.1948198,53.0039372 66.0128198,51.5759372 66.8548198,51.4209372 C67.9478198,51.2189372 69.0498198,51.0889372 70.1628198,51.0839372 Z M118.75832,42.7760372 L119.95832,44.4870372 L114.39132,48.3990372 L115.74632,50.3300372 L114.20232,51.4160372 L110.28832,45.8390372 L111.83332,44.7540372 L113.18932,46.6870372 L118.75832,42.7760372 Z M104.91242,28.8129372 L106.72542,30.3259372 L106.27342,32.1329372 L108.37042,33.8819372 L110.06742,33.1149372 L111.88042,34.6279372 L102.46642,38.8069372 L104.91242,28.8129372 Z M105.55842,33.6229372 L104.86942,35.9269372 L107.02242,34.8449372 L105.55842,33.6229372 Z" id="Combined-Shape"></path>
        </g>
    </g>
</svg>