<?xml version="1.0" encoding="UTF-8"?>
<svg width="32px" height="32px" viewBox="0 0 32 32" version="1.1" xmlns="http://www.w3.org/2000/svg" xmlns:xlink="http://www.w3.org/1999/xlink">
    <title>icons/tik-tok</title>
    <g id="icons/tik-tok" stroke="none" stroke-width="1" fill="none" fill-rule="evenodd">
        <rect id="Rectangle" fill-rule="nonzero" x="0" y="0" width="32" height="32"></rect>
        <path d="M28.1904762,0 L3.80952381,0 C1.70895238,0 0,1.70895238 0,3.80952381 L0,28.1904762 C0,30.2910476 1.70895238,32 3.80952381,32 L28.1904762,32 C30.2910476,32 32,30.2910476 32,28.1904762 L32,3.80952381 C32,1.70895238 30.2910476,0 28.1904762,0 M25.1474286,13.960381 C24.9726946,13.9773601 24.7972695,13.9862585 24.6217143,13.9870476 C22.6961076,13.9873164 20.9001504,13.0167146 19.8453333,11.4057143 L19.8453333,20.1958095 C19.8453333,23.783872 16.936634,26.6925714 13.3485714,26.6925714 C9.76050891,26.6925714 6.85180952,23.783872 6.85180952,20.1958095 C6.85180952,16.607747 9.76050891,13.6990476 13.3485714,13.6990476 C13.4841905,13.6990476 13.6167619,13.7112381 13.7500952,13.719619 L13.7500952,16.9211429 C13.6167619,16.9051429 13.4857143,16.8807619 13.3485714,16.8807619 C11.5173004,16.8807619 10.0327619,18.3653004 10.0327619,20.1965714 C10.0327619,22.0278425 11.5173004,23.512381 13.3485714,23.512381 C15.1801905,23.512381 16.7977143,22.0693333 16.7977143,20.2377143 L16.8297143,5.30895238 L19.8925714,5.30895238 C20.1813876,8.05556938 22.3960661,10.2009288 25.1504762,10.4022857 L25.1504762,13.960381" id="tik-tok" fill="#000000" fill-rule="nonzero"></path>
    </g>
</svg>