<?xml version="1.0" encoding="UTF-8"?>
<svg width="24px" height="24px" viewBox="0 0 24 24" version="1.1" xmlns="http://www.w3.org/2000/svg" xmlns:xlink="http://www.w3.org/1999/xlink">
    <!-- Generator: Sketch 51.3 (57544) - http://www.bohemiancoding.com/sketch -->
    <title>icons/dark/tik-tok</title>
    <desc>Created with Sketch.</desc>
    <defs></defs>
    <g id="lg-1440-px" stroke="none" stroke-width="1" fill="none" fill-rule="evenodd">
        <g id="Elements" transform="translate(-276.000000, -833.000000)" fill-rule="nonzero">
            <rect id="Rectangle-4-Copy-73" x="272" y="829" width="32" height="32"></rect>
            <g id="icons/dark/tik-tok" transform="translate(276.000000, 833.000000)">
                <rect id="Rectangle" x="0" y="0" width="24" height="24"></rect>
                <path d="M21.1428571,0 L2.85714286,0 C1.28171429,0 0,1.28171429 0,2.85714286 L0,21.1428571 C0,22.7182857 1.28171429,24 2.85714286,24 L21.1428571,24 C22.7182857,24 24,22.7182857 24,21.1428571 L24,2.85714286 C24,1.28171429 22.7182857,0 21.1428571,0 M18.8605714,10.4702857 C18.7295209,10.4830201 18.5979521,10.4896939 18.4662857,10.4902857 C17.0220807,10.4904873 15.6751128,9.76253596 14.884,8.55428571 L14.884,15.1468571 C14.884,17.837904 12.7024755,20.0194286 10.0114286,20.0194286 C7.32038168,20.0194286 5.13885714,17.837904 5.13885714,15.1468571 C5.13885714,12.4558103 7.32038168,10.2742857 10.0114286,10.2742857 C10.1131429,10.2742857 10.2125714,10.2834286 10.3125714,10.2897143 L10.3125714,12.6908571 C10.2125714,12.6788571 10.1142857,12.6605714 10.0114286,12.6605714 C8.6379753,12.6605714 7.52457143,13.7739753 7.52457143,15.1474286 C7.52457143,16.5208818 8.6379753,17.6342857 10.0114286,17.6342857 C11.3851429,17.6342857 12.5982857,16.552 12.5982857,15.1782857 L12.6222857,3.98171429 L14.9194286,3.98171429 C15.1360407,6.04167703 16.7970496,7.6506966 18.8628571,7.80171429 L18.8628571,10.4702857" id="tik-tok" fill="#000000"></path>
            </g>
        </g>
    </g>
</svg>