<?xml version="1.0" encoding="UTF-8"?>
<svg width="32px" height="32px" viewBox="0 0 32 32" version="1.1" xmlns="http://www.w3.org/2000/svg" xmlns:xlink="http://www.w3.org/1999/xlink">
    <title>icons/trash</title>
    <g id="icons/trash" stroke="none" stroke-width="1" fill="none" fill-rule="evenodd">
        <rect id="Rectangle" fill-rule="nonzero" x="0" y="0" width="32" height="32"></rect>
        <g id="trash" transform="translate(1.000000, 0.000000)" fill="#000000" fill-rule="nonzero">
            <polygon id="Fill-1" points="7.236 24.677 9.236 24.677 9.236 13.131 7.236 13.131"></polygon>
            <polygon id="Fill-2" points="13.996 24.677 15.996 24.677 15.996 13.131 13.996 13.131"></polygon>
            <polygon id="Fill-3" points="20.756 24.677 22.756 24.677 22.756 13.131 20.756 13.131"></polygon>
            <path d="M26.126,28.6724 C26.126,29.4044 25.53,30.0004 24.798,30.0004 L5.194,30.0004 C4.462,30.0004 3.866,29.4044 3.866,28.6724 L3.866,9.6654 L26.126,9.6654 L26.126,28.6724 Z M2,2.0004 L27.992,2.0004 L27.992,7.6654 L27.126,7.6654 L2.866,7.6654 L2,7.6654 L2,2.0004 Z M28.375,0.0004 L1.617,0.0004 C0.726,0.0004 0,0.7254 0,1.6164 L0,8.0484 C0,8.9404 0.726,9.6654 1.617,9.6654 L1.866,9.6654 L1.866,28.6724 C1.866,30.5074 3.359,32.0004 5.194,32.0004 L24.798,32.0004 C26.633,32.0004 28.126,30.5074 28.126,28.6724 L28.126,9.6654 L28.375,9.6654 C29.267,9.6654 29.992,8.9404 29.992,8.0484 L29.992,1.6164 C29.992,0.7254 29.267,0.0004 28.375,0.0004 L28.375,0.0004 Z" id="Fill-4"></path>
        </g>
    </g>
</svg>