<?xml version="1.0" encoding="UTF-8"?>
<svg width="32px" height="32px" viewBox="0 0 32 32" version="1.1" xmlns="http://www.w3.org/2000/svg" xmlns:xlink="http://www.w3.org/1999/xlink">
    <title>icons/tumblr</title>
    <g id="icons/tumblr" stroke="none" stroke-width="1" fill="none" fill-rule="evenodd">
        <rect id="Rectangle" fill-rule="nonzero" x="0" y="0" width="32" height="32"></rect>
        <path d="M32,0 L32,32 L0,32 L0,0 L32,0 Z M17.3969784,5.47008547 L14.4699488,5.47008547 C14.4217554,5.47008547 14.337636,5.51222607 14.3257442,5.61914064 C14.1545011,7.17571677 13.4255915,9.90772795 10.3931624,11.0001323 L10.3931624,13.5790868 L12.4160336,13.5790868 L12.4160336,20.1023762 C12.4160336,22.336078 14.0653746,25.5093775 18.4194296,25.4345998 C19.8885148,25.4094655 21.5200805,24.7952382 21.8803419,24.2649169 L20.9191025,21.4179882 C20.54745,21.5950537 19.8368164,21.7491107 19.3066889,21.7623656 C17.7065427,21.8051315 17.3959769,20.6395751 17.3830836,19.7946373 L17.3830836,13.5792119 L21.3967805,13.5792119 L21.3967805,10.5560929 L17.3969784,10.5560929 L17.3969784,5.47008547 Z" id="tumblr" fill="#000000" fill-rule="nonzero"></path>
    </g>
</svg>