<?xml version="1.0" encoding="UTF-8"?>
<svg width="24px" height="24px" viewBox="0 0 24 24" version="1.1" xmlns="http://www.w3.org/2000/svg" xmlns:xlink="http://www.w3.org/1999/xlink">
    <!-- Generator: Sketch 51.3 (57544) - http://www.bohemiancoding.com/sketch -->
    <title>icons/dark/twitter</title>
    <desc>Created with Sketch.</desc>
    <defs></defs>
    <g id="lg-1440-px" stroke="none" stroke-width="1" fill="none" fill-rule="evenodd">
        <g id="Elements" transform="translate(-372.000000, -770.000000)" fill-rule="nonzero">
            <rect id="Rectangle-4-Copy-62" x="368" y="765" width="32" height="32"></rect>
            <g id="icons/dark/twitter" transform="translate(372.000000, 769.000000)">
                <rect id="Rectangle" x="0" y="0" width="24" height="24"></rect>
                <path d="M1.95399252e-14,19.8883142 C0.385207945,19.934698 0.777175464,19.9584272 1.17458576,19.9584272 C3.48144409,19.9584272 5.60456491,19.155485 7.28971799,17.8084726 C5.13508175,17.7679091 3.3166685,16.3158614 2.69013497,14.3204599 C2.99071656,14.3791113 3.29919895,14.4105413 3.61646,14.4105413 C4.06557665,14.4105413 4.50055964,14.3492035 4.91377154,14.2344079 C2.66116537,13.7730766 0.963985515,11.743111 0.963985515,9.30965961 C0.963985515,9.28852719 0.963985515,9.26748432 0.964336662,9.24653099 C1.62826731,9.62270591 2.3874465,9.84862576 3.19464501,9.8746831 C1.8734555,8.97404819 1.00410403,7.43675448 1.00410403,5.69431516 C1.00410403,4.77389099 1.24692198,3.91113325 1.67075606,3.16934963 C4.09928673,6.20794031 7.72742236,8.20746085 11.8196862,8.41690458 C11.7357621,8.04932591 11.6921321,7.66598747 11.6921321,7.27235145 C11.6921321,4.49872186 13.8968068,2.25 16.6161747,2.25 C18.0323494,2.25 19.3120158,2.85997465 20.2102491,3.83609526 C21.3318117,3.61080222 22.385603,3.1928102 23.3369472,2.61731004 C22.9692966,3.79006958 22.1886097,4.77433871 21.1719522,5.3959541 C22.1679798,5.27453225 23.1169538,5.00455668 24,4.6051003 C23.3398442,5.61229273 22.5049929,6.49689924 21.5430264,7.20501426 C21.5525074,7.4203679 21.5572479,7.63697517 21.5572479,7.8547465 C21.5572479,14.4916682 16.6046746,22.1447368 7.54789861,22.1447368 C4.76725557,22.1447368 2.17904093,21.3133195 1.95399252e-14,19.8883142 Z" id="twitter" fill="#000000"></path>
            </g>
        </g>
    </g>
</svg>