<?xml version="1.0" encoding="UTF-8"?>
<svg width="32px" height="32px" viewBox="0 0 32 32" version="1.1" xmlns="http://www.w3.org/2000/svg" xmlns:xlink="http://www.w3.org/1999/xlink">
    <title>icons/upload</title>
    <g id="icons/upload" stroke="none" stroke-width="1" fill="none" fill-rule="evenodd">
        <rect id="Rectangle" fill-rule="nonzero" x="0" y="0" width="32" height="32"></rect>
        <g id="Group-5" fill="#000000" fill-rule="nonzero">
            <path d="M29.9268,14.3364 L29.9268,27.8284 C29.9268,28.9314 29.0298,29.8284 27.9268,29.8284 L3.9998,29.8284 C2.8978,29.8284 1.9998,28.9314 1.9998,27.8284 L1.9998,14.3364 L-0.0002,14.3364 L-0.0002,27.8284 C-0.0002,30.0344 1.7938,31.8284 3.9998,31.8284 L27.9268,31.8284 C30.1328,31.8284 31.9268,30.0344 31.9268,27.8284 L31.9268,14.3364 L29.9268,14.3364 Z" id="Fill-2"></path>
            <polygon id="Fill-1" points="15.9642 0.0001 8.7832 8.0601 10.2772 9.3911 14.9642 4.1291 14.9642 19.4201 16.9642 19.4201 16.9642 4.1301 21.6492 9.3911 23.1432 8.0601"></polygon>
        </g>
    </g>
</svg>