<?xml version="1.0" encoding="UTF-8"?>
<svg width="24px" height="24px" viewBox="0 0 24 24" version="1.1" xmlns="http://www.w3.org/2000/svg" xmlns:xlink="http://www.w3.org/1999/xlink">
    <!-- Generator: Sketch 51.3 (57544) - http://www.bohemiancoding.com/sketch -->
    <title>icons/dark/user</title>
    <desc>Created with Sketch.</desc>
    <defs></defs>
    <g id="lg-1440-px" stroke="none" stroke-width="1" fill="none" fill-rule="evenodd">
        <g id="Elements" transform="translate(-1236.000000, -577.000000)" fill-rule="nonzero">
            <rect id="Rectangle-4-Copy-35" x="1232" y="573" width="32" height="32"></rect>
            <g id="icons/dark/user" transform="translate(1236.000000, 577.000000)">
                <rect id="Rectangle" x="0" y="0" width="24" height="24"></rect>
                <path d="M20.090325,22.5 L3.750075,22.5 L3.750075,18.5415 C3.750075,15.73875 5.197575,13.1595 7.542825,11.664 C8.714325,12.69 10.243575,13.31775 11.919825,13.31775 C13.596825,13.31775 15.126075,12.69 16.298325,11.664 C18.642825,13.1595 20.090325,15.73875 20.090325,18.5415 L20.090325,22.5 Z M11.919825,1.5 C14.764575,1.5 17.079075,3.8145 17.079075,6.65925 C17.079075,9.504 14.764575,11.81775 11.919825,11.81775 C9.075075,11.81775 6.762075,9.504 6.762075,6.65925 C6.762075,3.8145 9.075075,1.5 11.919825,1.5 Z M17.328075,10.53 C18.111825,9.43725 18.579075,8.103 18.579075,6.65925 C18.579075,2.98725 15.591825,0 11.919825,0 C8.248575,0 5.262075,2.98725 5.262075,6.65925 C5.262075,8.103 5.729325,9.43725 6.512325,10.53 C3.864825,12.31875 2.250075,15.3105 2.250075,18.5415 L2.250075,24 L21.590325,24 L21.590325,18.5415 C21.590325,15.31125 19.975575,12.318 17.328075,10.53 Z" id="user" fill="#000000"></path>
            </g>
        </g>
    </g>
</svg>