<?xml version="1.0" encoding="UTF-8"?>
<svg width="24px" height="24px" viewBox="0 0 24 24" version="1.1" xmlns="http://www.w3.org/2000/svg" xmlns:xlink="http://www.w3.org/1999/xlink">
    <!-- Generator: Sketch 51.3 (57544) - http://www.bohemiancoding.com/sketch -->
    <title>icons/dark/vimeo</title>
    <desc>Created with Sketch.</desc>
    <defs></defs>
    <g id="lg-1440-px" stroke="none" stroke-width="1" fill="none" fill-rule="evenodd">
        <g id="Elements" transform="translate(-756.000000, -769.000000)" fill-rule="nonzero">
            <rect id="Rectangle-4-Copy-66" x="752" y="765" width="32" height="32"></rect>
            <g id="icons/dark/vimeo" transform="translate(756.000000, 769.000000)">
                <rect id="Rectangle" x="0" y="0" width="24" height="24"></rect>
                <path d="M23.9882496,6.29125608 C23.8806936,8.62194771 22.2491887,11.8131913 19.0938179,15.8650281 C15.8308289,20.0961251 13.0698302,22.2116839 10.8108633,22.2116839 C9.41242764,22.2116839 8.22918688,20.9208457 7.26101679,18.3391485 L5.32475945,11.2394969 C4.6076156,8.65782044 3.83668337,7.3669615 3.01198347,7.3669615 C2.83270269,7.3669615 2.20519923,7.74345944 1.12947309,8.4964553 L0,7.04425194 C1.17326994,6.01332013 2.33864974,4.9734433 3.49603745,3.92471243 C5.07373322,2.56214946 6.2570154,1.84502632 7.04586328,1.77330158 C8.91041659,1.59402079 10.057826,2.86694337 10.4881124,5.59204859 C10.9542507,8.53230732 11.2769602,10.3610086 11.4562203,11.0781525 C11.9940834,13.5164209 12.5857141,14.735555 13.2311332,14.735555 C13.7331236,14.735555 14.4861401,13.9467072 15.4901208,12.3690114 C16.4941222,10.7912949 17.0319646,9.59009709 17.1036686,8.76539719 C17.2470974,7.40283423 16.709255,6.7215631 15.4901208,6.7215631 C14.9164057,6.7215631 14.3247543,6.84707622 13.7152079,7.09806103 C14.8984901,3.26137766 17.1574777,1.39682436 20.4921707,1.50440111 C22.9662911,1.57612585 24.1316577,3.17175798 23.9882082,6.2912975 L23.9882496,6.29125608 Z" id="icons/vimeo" fill="#000000"></path>
            </g>
        </g>
    </g>
</svg>