<?xml version="1.0" encoding="UTF-8"?>
<svg width="32px" height="32px" viewBox="0 0 32 32" version="1.1" xmlns="http://www.w3.org/2000/svg" xmlns:xlink="http://www.w3.org/1999/xlink">
    <title>icons/whatsapp</title>
    <g id="icons/whatsapp" stroke="none" stroke-width="1" fill="none" fill-rule="evenodd">
        <rect id="Rectangle" fill-rule="nonzero" x="0" y="0" width="32" height="32"></rect>
        <path d="M27.2153602,4.65030291 C24.220684,1.65312139 20.2380052,0.00168461065 15.994903,0 C7.25207607,0 0.136496658,7.11285811 0.132997851,15.8557282 C0.131831582,18.6504109 0.862261482,21.3784435 2.25025107,23.7830308 L0,32 L8.40862607,29.7950174 C10.7253545,31.0582163 13.3338229,31.7239398 15.9885533,31.7250629 L15.9950758,31.7250629 C24.7369956,31.7250629 31.8532229,24.6112977 31.8567662,15.8683844 C31.8584495,11.631459 30.2101228,7.64748442 27.2153602,4.65030291 M15.9950758,29.0469207 L15.9896764,29.0469207 C13.6240511,29.0460136 11.3037375,28.4106994 9.27961297,27.2098744 L8.79815989,26.9242249 L3.80842953,28.2327354 L5.14030863,23.3693077 L4.82679827,22.8707061 C3.5071002,20.772286 2.81006015,18.3469218 2.81109568,15.8567217 C2.81399091,8.59000248 8.72822695,2.67809898 16.0003024,2.67809898 C19.5216138,2.67943803 22.8317873,4.05213654 25.3209075,6.54328693 C27.8100278,9.03443733 29.1800482,12.3457771 29.1787101,15.8673477 C29.1756855,23.1345853 23.2615358,29.0469207 15.9950758,29.0469207 M23.2265909,19.1762254 C22.8302323,18.9779165 20.8816993,18.019373 20.5183849,17.8871527 C20.1551138,17.7549323 19.8909323,17.6888438 19.6266644,18.0855048 C19.3624829,18.4821226 18.6029394,19.3745775 18.3716726,19.638975 C18.1405354,19.9034157 17.909355,19.9365031 17.5129963,19.738151 C17.1166809,19.5398421 15.8396596,19.1214971 14.3257994,17.7716489 C13.1476518,16.7211429 12.35217,15.4235608 12.1209896,15.026943 C11.8898092,14.630282 12.0964116,14.4158181 12.2948069,14.2183299 C12.4730732,14.0407978 12.6911223,13.7555803 12.8893016,13.5241839 C13.0874378,13.2928307 13.1534831,13.1275661 13.2855739,12.8631686 C13.4177078,12.5987279 13.3516625,12.3673315 13.2525728,12.1690226 C13.1534831,11.9707137 12.3608954,10.0205393 12.0305822,9.22726046 C11.7089079,8.45467209 11.3821366,8.55920435 11.1388616,8.5471097 C10.9079403,8.5356198 10.6434565,8.53315767 10.379275,8.53315767 C10.1150503,8.53315767 9.68569053,8.63233373 9.32237616,9.02895155 C8.959105,9.42561256 7.93529367,10.384156 7.93529367,12.3342872 C7.93529367,14.2844184 9.35542045,16.1684179 9.55359978,16.4328585 C9.7517359,16.6972992 12.3482825,20.6992862 16.32405,22.4154725 C17.2696349,22.8236666 18.0078831,23.0674168 18.5834584,23.2501323 C19.5329309,23.5515912 20.3969202,23.509044 21.0798354,23.4070602 C21.8412794,23.2933274 23.4246839,22.44856 23.7549971,21.5230608 C24.0852672,20.5975616 24.0852672,19.8042828 23.9861776,19.6390182 C23.8871311,19.4737536 23.6229064,19.3745775 23.2265909,19.1762254" id="whatsapp" fill="#000000" fill-rule="nonzero"></path>
    </g>
</svg>