<?xml version="1.0" encoding="UTF-8"?>
<svg width="24px" height="24px" viewBox="0 0 24 24" version="1.1" xmlns="http://www.w3.org/2000/svg" xmlns:xlink="http://www.w3.org/1999/xlink">
    <!-- Generator: Sketch 51.3 (57544) - http://www.bohemiancoding.com/sketch -->
    <title>icons/dark/whatsapp</title>
    <desc>Created with Sketch.</desc>
    <defs></defs>
    <g id="lg-1440-px" stroke="none" stroke-width="1" fill="none" fill-rule="evenodd">
        <g id="Elements" transform="translate(-948.000000, -769.000000)" fill-rule="nonzero">
            <rect id="Rectangle-4-Copy-68" x="944" y="765" width="32" height="32"></rect>
            <g id="icons/dark/whatsapp" transform="translate(948.000000, 769.000000)">
                <rect id="Rectangle" x="0" y="0" width="24" height="24"></rect>
                <path d="M20.4115201,3.48772718 C18.165513,1.23984104 15.1785039,0.00126345799 11.9961772,0 C5.43905705,0 0.102372493,5.33464359 0.0997483883,11.8917962 C0.0988736866,13.9878082 0.646696111,16.0338326 1.6876883,17.8372731 L0,24 L6.30646955,22.3462631 C8.04401585,23.2936622 10.0003672,23.7929549 11.991415,23.7937972 L11.9963068,23.7937972 C18.5527467,23.7937972 23.8899172,18.4584733 23.8925737,11.9012883 C23.8938371,8.72359427 22.6575921,5.73561332 20.4115201,3.48772718 M11.9963068,21.7851905 L11.9922573,21.7851905 C10.2180383,21.7845102 8.47780309,21.3080246 6.95970973,20.4074058 L6.59861992,20.1931687 L2.85632215,21.1745516 L3.85523147,17.5269808 L3.6200987,17.1530296 C2.63032515,15.5792145 2.10754511,13.7601914 2.10832262,11.8925413 C2.11049318,6.44250186 6.54617021,2.00857424 12.0002268,2.00857424 C14.6412103,2.00957852 17.1238405,3.0391024 18.9906806,4.9074652 C20.8575208,6.775828 21.8850361,9.25933285 21.8840318,11.9005108 C21.8817641,17.350939 17.4461519,21.7851905 11.9963068,21.7851905 M17.4199432,14.382169 C17.1226742,14.2334374 15.6612745,13.5145298 15.3887887,13.4153645 C15.1163353,13.3161993 14.9181992,13.2666328 14.7199983,13.5641286 C14.5218621,13.861592 13.9522046,14.5309331 13.7787545,14.7292312 C13.6054016,14.9275617 13.4320162,14.9523774 13.1347473,14.8036133 C12.8375107,14.6548816 11.8797447,14.3411229 10.7443495,13.3287367 C9.86073885,12.5408572 9.26412751,11.5676706 9.0907422,11.2702072 C8.91735689,10.9727115 9.07230867,10.8118635 9.22110515,10.6637474 C9.35480492,10.5305984 9.51834174,10.3166852 9.66697623,10.1431379 C9.81557833,9.96962301 9.86511236,9.84567455 9.96418043,9.64737643 C10.0632809,9.44904593 10.0137469,9.27549863 9.93942961,9.12676695 C9.86511236,8.97803527 9.27067158,7.51540447 9.02293662,6.92044534 C8.78168094,6.34100407 8.53660249,6.41940326 8.35414619,6.41033228 C8.18095526,6.40171485 7.98259236,6.39986825 7.78445623,6.39986825 C7.5862877,6.39986825 7.2642679,6.47425029 6.99178212,6.77171366 C6.71932875,7.06920942 5.95147025,7.78811702 5.95147025,9.25071542 C5.95147025,10.7133138 7.01656534,12.1263134 7.16519983,12.3246439 C7.31380193,12.5229744 9.26121184,15.5244647 12.2430375,16.8116044 C12.9522262,17.11775 13.5059123,17.3005626 13.9375938,17.4375992 C14.6496982,17.6636934 15.2976901,17.631783 15.8098766,17.5552952 C16.3809596,17.4699956 17.5685129,16.83642 17.8162479,16.1422956 C18.0639504,15.4481712 18.0639504,14.8532121 17.9896332,14.7292636 C17.9153483,14.6053152 17.7171798,14.5309331 17.4199432,14.382169" id="whatsapp" fill="#000000"></path>
            </g>
        </g>
    </g>
</svg>