<?xml version="1.0" encoding="UTF-8"?>
<svg width="32px" height="32px" viewBox="0 0 32 32" version="1.1" xmlns="http://www.w3.org/2000/svg" xmlns:xlink="http://www.w3.org/1999/xlink">
    <title>icons/world</title>
    <g id="icons/world" stroke="none" stroke-width="1" fill="none" fill-rule="evenodd">
        <rect id="Rectangle" fill-rule="nonzero" x="0" y="0" width="32" height="32"></rect>
        <path d="M22.3135,28.479 C23.0345,26.366 23.5665,24.203 23.9095,22 L28.6295,22 C27.2965,24.795 25.0705,27.078 22.3135,28.479 M12.1775,29.456 C11.2245,27.041 10.5395,24.549 10.1205,22 L21.8805,22 C21.4615,24.549 20.7765,27.041 19.8225,29.456 C18.6055,29.802 17.3265,30 16.0005,30 C14.6735,30 13.3945,29.803 12.1775,29.456 M3.3705,22 L8.0915,22 C8.4345,24.203 8.9655,26.366 9.6875,28.479 C6.9295,27.079 4.7035,24.795 3.3705,22 M9.6875,3.521 C8.9665,5.634 8.4345,7.797 8.0915,10 L3.3705,10 C4.7045,7.205 6.9305,4.921 9.6875,3.521 M19.8235,2.544 C20.7775,4.958 21.4615,7.451 21.8805,10 L10.1205,10 C10.5395,7.451 11.2245,4.958 12.1775,2.544 C13.3945,2.197 14.6735,2 16.0005,2 C17.3265,2 18.6055,2.198 19.8235,2.544 M9.6235,16 C9.6235,14.655 9.7035,13.321 9.8455,12 L22.1555,12 C22.2975,13.321 22.3775,14.655 22.3775,16 C22.3775,17.345 22.2975,18.679 22.1555,20 L9.8455,20 C9.7035,18.679 9.6235,17.345 9.6235,16 M2.0005,16 C2.0005,14.609 2.2105,13.269 2.5895,12 L7.8325,12 C7.6965,13.322 7.6235,14.656 7.6235,16 C7.6235,17.344 7.6965,18.678 7.8325,20 L2.5895,20 C2.2105,18.731 2.0005,17.391 2.0005,16 M30.0005,16 C30.0005,17.391 29.7895,18.731 29.4105,20 L24.1685,20 C24.3045,18.678 24.3775,17.344 24.3775,16 C24.3775,14.656 24.3045,13.322 24.1685,12 L29.4105,12 C29.7895,13.269 30.0005,14.609 30.0005,16 M28.6295,10 L23.9095,10 C23.5665,7.797 23.0345,5.634 22.3135,3.521 C25.0705,4.922 27.2965,7.205 28.6295,10 M16.0005,0 C7.1775,0 0.0005,7.178 0.0005,16 C0.0005,24.822 7.1775,32 16.0005,32 C24.8225,32 32.0005,24.822 32.0005,16 C32.0005,7.178 24.8225,0 16.0005,0" id="Fill-1" fill="#000000" fill-rule="nonzero"></path>
    </g>
</svg>