<?xml version="1.0" encoding="UTF-8"?>
<svg width="24px" height="24px" viewBox="0 0 24 24" version="1.1" xmlns="http://www.w3.org/2000/svg" xmlns:xlink="http://www.w3.org/1999/xlink">
    <!-- Generator: Sketch 51.3 (57544) - http://www.bohemiancoding.com/sketch -->
    <title>icons/dark/world</title>
    <desc>Created with Sketch.</desc>
    <defs></defs>
    <g id="lg-1440-px" stroke="none" stroke-width="1" fill="none" fill-rule="evenodd">
        <g id="Elements" transform="translate(-1236.000000, -705.000000)" fill-rule="nonzero">
            <rect id="Rectangle-4-Copy-59" x="1232" y="701" width="32" height="32"></rect>
            <g id="icons/dark/world" transform="translate(1236.000000, 705.000000)">
                <rect id="Rectangle" x="0" y="0" width="24" height="24"></rect>
                <path d="M16.735125,21.35925 C17.275875,19.7745 17.674875,18.15225 17.932125,16.5 L21.472125,16.5 C20.472375,18.59625 18.802875,20.3085 16.735125,21.35925 M9.133125,22.092 C8.418375,20.28075 7.904625,18.41175 7.590375,16.5 L16.410375,16.5 C16.096125,18.41175 15.582375,20.28075 14.866875,22.092 C13.954125,22.3515 12.994875,22.5 12.000375,22.5 C11.005125,22.5 10.045875,22.35225 9.133125,22.092 M2.527875,16.5 L6.068625,16.5 C6.325875,18.15225 6.724125,19.7745 7.265625,21.35925 C5.197125,20.30925 3.527625,18.59625 2.527875,16.5 M7.265625,2.64075 C6.724875,4.2255 6.325875,5.84775 6.068625,7.5 L2.527875,7.5 C3.528375,5.40375 5.197875,3.69075 7.265625,2.64075 M14.867625,1.908 C15.583125,3.7185 16.096125,5.58825 16.410375,7.5 L7.590375,7.5 C7.904625,5.58825 8.418375,3.7185 9.133125,1.908 C10.045875,1.64775 11.005125,1.5 12.000375,1.5 C12.994875,1.5 13.954125,1.6485 14.867625,1.908 M7.217625,12 C7.217625,10.99125 7.277625,9.99075 7.384125,9 L16.616625,9 C16.723125,9.99075 16.783125,10.99125 16.783125,12 C16.783125,13.00875 16.723125,14.00925 16.616625,15 L7.384125,15 C7.277625,14.00925 7.217625,13.00875 7.217625,12 M1.500375,12 C1.500375,10.95675 1.657875,9.95175 1.942125,9 L5.874375,9 C5.772375,9.9915 5.717625,10.992 5.717625,12 C5.717625,13.008 5.772375,14.0085 5.874375,15 L1.942125,15 C1.657875,14.04825 1.500375,13.04325 1.500375,12 M22.500375,12 C22.500375,13.04325 22.342125,14.04825 22.057875,15 L18.126375,15 C18.228375,14.0085 18.283125,13.008 18.283125,12 C18.283125,10.992 18.228375,9.9915 18.126375,9 L22.057875,9 C22.342125,9.95175 22.500375,10.95675 22.500375,12 M21.472125,7.5 L17.932125,7.5 C17.674875,5.84775 17.275875,4.2255 16.735125,2.64075 C18.802875,3.6915 20.472375,5.40375 21.472125,7.5 M12.000375,0 C5.383125,0 0.000375,5.3835 0.000375,12 C0.000375,18.6165 5.383125,24 12.000375,24 C18.616875,24 24.000375,18.6165 24.000375,12 C24.000375,5.3835 18.616875,0 12.000375,0" id="Fill-1" fill="#000000"></path>
            </g>
        </g>
    </g>
</svg>