<?xml version="1.0" encoding="UTF-8"?>
<svg width="24px" height="24px" viewBox="0 0 24 24" version="1.1" xmlns="http://www.w3.org/2000/svg" xmlns:xlink="http://www.w3.org/1999/xlink">
    <!-- Generator: Sketch 51.3 (57544) - http://www.bohemiancoding.com/sketch -->
    <title>icons/dark/youtube</title>
    <desc>Created with Sketch.</desc>
    <defs></defs>
    <g id="lg-1440-px" stroke="none" stroke-width="1" fill="none" fill-rule="evenodd">
        <g id="Elements" transform="translate(-660.000000, -769.000000)" fill-rule="nonzero">
            <rect id="Rectangle-4-Copy-65" x="656" y="765" width="32" height="32"></rect>
            <g id="icons/dark/youtube" transform="translate(660.000000, 769.000000)">
                <rect id="Rectangle" x="0" y="0" width="24" height="24"></rect>
                <path d="M12.5317057,20.3299203 L7.60783604,20.2398686 C6.01359587,20.2084888 4.41538813,20.2711282 2.85240757,19.9460283 C0.474753454,19.460302 0.306312241,17.0786803 0.130056126,15.0809507 C-0.112807007,12.2723949 -0.0187877148,9.41286183 0.439526277,6.6277507 C0.698259674,5.0650106 1.71648139,4.13251236 3.29112419,4.03103885 C8.60670084,3.66277658 13.9576249,3.70641981 19.2614191,3.87822744 C19.8215673,3.89397748 20.3855628,3.98006164 20.9378961,4.07804849 C23.6643353,4.55595986 23.7308221,7.2548666 23.9075591,9.52683918 C24.0838153,11.8222565 24.0093933,14.1294562 23.6725109,16.4092437 C23.4022355,18.2968433 22.8851294,19.8797819 20.7028478,20.0325934 C17.9685937,20.2324144 15.2970992,20.3932812 12.5551504,20.3420635 C12.5552707,20.3299203 12.5395206,20.3299203 12.5317057,20.3299203 Z M9.63694549,15.5510472 C11.6974348,14.3679911 13.7186091,13.2046527 15.7673159,12.0295317 C13.7029793,10.8464757 11.6856523,9.68313724 9.63694549,8.50801632 L9.63694549,15.5510472 Z" id="icons/youtube" fill="#000000"></path>
            </g>
        </g>
    </g>
</svg>