<?xml version="1.0" encoding="UTF-8"?>
<svg width="32px" height="32px" viewBox="0 0 32 32" version="1.1" xmlns="http://www.w3.org/2000/svg" xmlns:xlink="http://www.w3.org/1999/xlink">
    <title>icons/youtube</title>
    <g id="icons/youtube" stroke="none" stroke-width="1" fill="none" fill-rule="evenodd">
        <rect id="Rectangle" fill-rule="nonzero" x="0" y="0" width="32" height="32"></rect>
        <path d="M16.708941,27.1065605 L10.1437814,26.9864915 C8.01812782,26.9446517 5.88718417,27.028171 3.8032101,26.5947044 C0.633004605,25.9470693 0.408416322,22.7715738 0.173408168,20.1079343 C-0.150409343,16.3631932 -0.0250502864,12.5504824 0.586035036,8.83700094 C0.931012899,6.75334747 2.28864186,5.51001647 4.38816559,5.37471846 C11.4756011,4.88370211 18.6101665,4.94189308 25.6818921,5.17096992 C26.4287564,5.19196997 27.1807504,5.30674885 27.9171948,5.43739799 C31.5524471,6.07461314 31.6410961,9.67315546 31.8767455,12.7024522 C32.1117537,15.7630086 32.0125244,18.839275 31.5633479,21.8789916 C31.2029807,24.3957911 30.5135059,26.5063759 27.6037971,26.7101245 C23.9581249,26.9765525 20.3961323,27.1910416 16.7402006,27.1227513 C16.7403609,27.1065605 16.7193608,27.1065605 16.708941,27.1065605 Z M12.8492607,20.7347296 C15.5965797,19.1573215 18.2914788,17.6062036 21.0230879,16.0393757 C18.2706391,14.4619676 15.5808698,12.9108497 12.8492607,11.3440218 L12.8492607,20.7347296 Z" fill="#000000" fill-rule="nonzero"></path>
    </g>
</svg>