<?xml version="1.0" standalone="no"?>
<!DOCTYPE svg PUBLIC "-//W3C//DTD SVG 1.1//EN" "http://www.w3.org/Graphics/SVG/1.1/DTD/svg11.dtd" >
<svg xmlns="http://www.w3.org/2000/svg">
<metadata>Generated by IcoMoon</metadata>
<defs>
<font id="icomoon" horiz-adv-x="1024">
<font-face units-per-em="1024" ascent="960" descent="-64" />
<missing-glyph horiz-adv-x="1024" />
<glyph unicode="&#x20;" horiz-adv-x="512" d="" />
<glyph unicode="&#xe900;" glyph-name="arrow-down-light" d="M487.008 960v-956.32l-335.104 376.992-23.904-21.28 374.976-421.888 375.008 421.888-23.904 21.28-335.072-376.992v956.32z" />
<glyph unicode="&#xe901;" glyph-name="arrow-down" d="M469.024 960v-875.84l-293.184 329.824-47.84-42.528 373.024-419.616 373.024 419.616-47.84 42.528-293.184-329.824v875.84z" />
<glyph unicode="&#xe902;" glyph-name="arrow-left-light" d="M421.92 832l-421.92-375.008 421.92-375.008 21.216 23.904-376.96 335.136h956.288v31.968h-956.288l376.96 335.104z" />
<glyph unicode="&#xe903;" glyph-name="arrow-left" d="M419.616 832l-419.616-373.024 419.616-373.024 42.528 47.84-329.824 293.184h875.84v64h-875.84l329.824 293.184z" />
<glyph unicode="&#xe904;" glyph-name="arrow-right-light" d="M600.608 832l-21.248-23.904 376.96-335.104h-956.32v-31.968h956.32l-376.96-335.136 21.248-23.904 421.856 375.008z" />
<glyph unicode="&#xe905;" glyph-name="arrow-right" d="M588.512 832l-42.528-47.84 329.824-293.184h-875.808v-64h875.808l-329.824-293.184 42.528-47.84 419.648 373.024z" />
<glyph unicode="&#xe906;" glyph-name="arrow-up-light" d="M503.008 960l-375.008-421.856 23.904-21.248 335.136 376.96v-956.32h31.968v956.32l335.104-376.96 23.904 21.248z" />
<glyph unicode="&#xe907;" glyph-name="arrow-up" d="M501.024 960l-373.024-419.648 47.84-42.528 293.184 329.856v-875.84h64v875.84l293.184-329.856 47.84 42.528z" />
<glyph unicode="&#xe908;" glyph-name="behance" d="M278.302 289.131c13.281 0 25.889 1.192 37.754 3.858 12.051 2.642 22.708 6.851 31.717 13.070 9.009 5.962 16.462 14.145 21.895 24.55 5.433 10.334 8.034 23.731 8.034 39.911 0 31.751-8.87 54.267-26.493 67.968-17.67 13.491-41.237 20.201-70.214 20.201h-146.349v-169.557h143.655zM270.872 551.229c23.846 0 43.605 5.705 59.231 17.255 15.487 11.386 23.010 30.208 23.010 55.997 0 14.332-2.508 26.163-7.523 35.352-5.178 9.212-12.051 16.39-20.734 21.417-8.614 5.261-18.343 8.861-29.627 10.825-11.099 2.174-22.731 3.039-34.643 3.039h-125.939v-143.885h136.225zM288.286 800c29.233 0 55.632-2.548 79.757-7.809 23.985-5.144 44.464-13.678 61.762-25.415 17.043-11.714 30.37-27.309 39.913-46.972 9.334-19.336 14.001-43.582 14.001-72.223 0-31.003-6.989-56.909-20.967-77.601-14.071-20.669-34.759-37.62-62.389-50.783 37.638-10.872 65.501-30.068 83.983-57.33 18.575-27.472 27.654-60.322 27.654-98.83 0-31.237-5.921-58.124-17.786-80.734-11.981-22.89-28.281-41.431-48.365-55.74-20.247-14.449-43.512-25.041-69.564-31.938-25.773-6.897-52.521-10.358-79.919-10.358h-296.366v615.731h288.286zM858.988 523.112c-14.593 16.624-39.344 25.624-69.515 25.624-19.637 0-35.872-3.402-48.893-10.327-12.716-6.828-23.133-15.345-31.109-25.358-7.93-10.182-13.326-20.919-16.47-32.403-3.167-11.195-5.044-21.353-5.607-30.328h199.912c-2.933 32.21-13.654 56.048-28.318 72.793zM717.799 281.377c18.417-18.482 44.998-27.771 79.463-27.771 24.798 0 46.218 6.442 64.166 19.278 17.807 12.836 28.646 26.54 32.846 40.8h108.203c-17.385-55.397-43.779-94.918-79.768-118.732-35.591-23.886-78.97-35.805-129.552-35.805-35.239 0-66.935 5.863-95.417 17.42-28.458 11.702-52.248 28.109-72.237 49.462-19.496 21.498-34.652 46.856-45.444 76.677-10.675 29.653-16.047 62.49-16.047 98.079 0 34.382 5.584 66.52 16.517 96.221 11.144 29.822 26.581 55.542 46.852 77.112 20.317 21.691 44.412 38.797 72.495 51.295 28.060 12.45 59.005 18.723 93.282 18.723 37.866 0 71.017-7.48 99.428-22.752 28.318-15.031 51.521-35.443 69.75-60.97 18.253-25.479 31.203-54.625 39.321-87.318 8.047-32.621 10.863-66.713 8.54-102.422h-322.802c0-36.36 11.942-70.79 30.406-89.296zM654.841 696.646h250.114v62.222h-250.114z" />
<glyph unicode="&#xe909;" glyph-name="bell" d="M181.315 157.12l94.976 178.304c2.464 4.64 3.744 9.792 3.744 15.040v309.984c0 129.888 105.696 235.552 235.552 235.552 129.888 0 235.584-105.664 235.584-235.552v-309.984c0-5.248 1.28-10.4 3.744-15.040l94.976-178.304h-668.576zM515.587 0c-51.488 0-93.376 41.728-93.696 93.12h187.392c-0.352-51.392-42.208-93.12-93.696-93.12v0zM931.395 140.16l-116.224 218.304v301.984c0 165.184-134.4 299.552-299.584 299.552s-299.552-134.368-299.552-299.552v-301.984l-116.288-218.304c-5.28-9.92-4.96-21.888 0.832-31.52 5.76-9.632 16.16-15.52 27.424-15.52h229.888c0.352-86.688 70.912-157.12 157.696-157.12 86.752 0 157.344 70.432 157.696 157.12h229.888c11.232 0 21.632 5.888 27.424 15.52s6.080 21.6 0.8 31.52v0z" />
<glyph unicode="&#xe90a;" glyph-name="buy-me-a-cofee" horiz-adv-x="853" d="M614.315 960.004c54.837 0 108.826-41.49 122.951-94.455v0l12.782-47.951h6.674c40.042 0 72.633-32.556 72.633-72.598v0-69.173c0-40.042-32.591-72.633-72.633-72.633v0h-6.815l-54.237-527.113c-7.768-75.564-75.917-137.039-151.905-137.039v0h-247.526c-75.988 0-144.137 61.475-151.905 137.039v0l-54.272 527.113h-6.815c-40.042 0-72.598 32.591-72.598 72.633v0 69.173c0 40.042 32.556 72.598 72.598 72.598v0h6.709l12.782 47.987c14.124 52.966 68.149 94.42 122.915 94.42v0zM678.897 603.192h-517.826l53.53-519.874c4.096-39.936 41.49-73.657 81.638-73.657v0h247.526c40.183 0 77.542 33.721 81.638 73.657v0l53.495 519.874zM542.278 541.085c63.77 0 89.759-50.988 89.759-50.988v0l-39.018-344.841c-5.932-57.944-58.474-105.366-116.771-105.366v0h-112.463c-58.297 0-110.839 47.422-116.807 105.366v0l-38.983 344.841c0 0 0.224-0.284 0.689-0.796l2.134-2.16c7.708-7.277 31.923-25.469 81.357-25.469 120.655 0 150.563 79.413 250.103 79.413zM83.247 746.976l-1.977-71.15 675.452-2.013c1.13 0 2.013 0.918 2.013 2.013v0 69.173l-675.487 1.977zM614.315 889.383h-388.661c-22.74 0-48.799-20.056-54.696-42.055v0l-7.945-29.731h513.977l-7.945 29.767c-5.862 21.998-31.956 42.019-54.731 42.019v0z" />
<glyph unicode="&#xe90b;" glyph-name="calendar" d="M64 5.002h897.696v788h-897.696v-788zM961.696-58.998h-897.696c-35.296 0-64 28.704-64 64v788c0 35.296 28.704 64 64 64h897.696c35.296 0 64-28.704 64-64v-788c0-35.296-28.704-64-64-64v0zM993.686 466.33h-961.696c-17.664 0-32 14.336-32 32s14.336 32 32 32h961.696c17.664 0 32-14.336 32-32s-14.336-32-32-32zM806.282 660.003c-17.664 0-32 14.336-32 32v236c0 17.664 14.336 32 32 32s32-14.336 32-32v-236c0-17.664-14.336-32-32-32zM215.61 660.003c-17.664 0-32 14.336-32 32v236c0 17.664 14.336 32 32 32s32-14.336 32-32v-236c0-17.664-14.336-32-32-32z" />
<glyph unicode="&#xe90c;" glyph-name="chat" d="M159.562 896c-52.672 0-95.552-42.88-95.552-95.552v-485.728c0-52.704 42.88-95.552 95.552-95.552h381.344v-149.632l175.328 149.632h149.888c52.704 0 95.552 42.848 95.552 95.552v485.728c0 52.672-42.848 95.552-95.552 95.552h-706.56zM476.906-69.216v224.384h-317.344c-87.968 0-159.552 71.584-159.552 159.552v485.728c0 87.968 71.584 159.552 159.552 159.552h706.56c87.968 0 159.552-71.584 159.552-159.552v-485.728c0-87.968-71.584-159.552-159.552-159.552h-126.24l-262.976-224.384z" />
<glyph unicode="&#xe90d;" glyph-name="check" d="M512 0c-247.040 0-448 200.96-448 448s200.96 448 448 448c247.040 0 448-200.96 448-448s-200.96-448-448-448zM512 960c-282.304 0-512-229.696-512-512s229.696-512 512-512c282.304 0 512 229.696 512 512s-229.696 512-512 512zM470.499 374.861l-131.136 131.136-45.248-45.248 176.384-176.384 259.392 259.392-45.248 45.248z" />
<glyph unicode="&#xe90e;" glyph-name="checkbox-check" d="M765.473 704l-332.048-332.048-174.714 174.529-130.712-130.712 305.425-305.24 462.575 462.945z" />
<glyph unicode="&#xe90f;" glyph-name="clock" d="M512 0c-247.040 0-448 200.96-448 448s200.96 448 448 448c247.040 0 448-200.96 448-448s-200.96-448-448-448zM512 960c-282.304 0-512-229.696-512-512s229.696-512 512-512c282.304 0 512 229.696 512 512s-229.696 512-512 512zM544 741.546h-64v-366.848h249.44v64h-185.44z" />
<glyph unicode="&#xe910;" glyph-name="close-light" d="M1000.864 960l-489.12-489.152-489.088 489.152-22.656-22.624 489.152-489.12-489.152-489.12 22.656-22.624 489.088 489.088 489.12-489.088 22.624 22.624-489.088 489.12 489.088 489.12z" />
<glyph unicode="&#xe911;" glyph-name="close" d="M977.44 960l-466.112-466.112-466.080 466.112-45.248-45.28 466.080-466.080-466.080-466.112 45.248-45.248 466.080 466.112 466.112-466.112 45.248 45.248-466.112 466.112 466.112 466.080z" />
<glyph unicode="&#xe912;" glyph-name="credit-card" d="M175.296 229.642h218.624v64h-218.624zM932.282 102.986h-840.544c-15.296 0-27.744 12.448-27.744 27.712v300.32h896v-300.32c0-15.264-12.416-27.712-27.712-27.712zM91.738 736.010h840.544c15.296 0 27.712-12.448 27.712-27.744v-117.248h-896v117.248c0 15.296 12.448 27.744 27.744 27.744zM932.282 800.010h-840.544c-50.592 0-91.744-41.152-91.744-91.744v-577.568c0-50.56 41.152-91.712 91.744-91.712h840.544c50.56 0 91.712 41.152 91.712 91.712v577.568c0 50.592-41.152 91.744-91.712 91.744z" />
<glyph unicode="&#xe913;" glyph-name="delivery" d="M929.501 219.11c-14.176 52.32-61.6 91.136-118.368 91.136-56.8 0-104.192-38.816-118.368-91.136h-30.528v341.344h209.664l70.624-119.168h-160.928c-17.696 0-32-14.336-32-32s14.304-32 32-32h178.4v-158.176h-30.496zM811.133 128.006c-30.592 0-55.552 23.424-58.528 53.216 0.352 1.984 1.184 3.808 1.184 5.888s-0.832 3.904-1.184 5.888c2.976 29.824 27.936 53.248 58.528 53.248 32.576 0 59.104-26.528 59.104-59.136s-26.528-59.104-59.104-59.104v0zM198.525 128.006c-32.576 0-59.104 26.496-59.104 59.104s26.528 59.136 59.104 59.136c30.528 0 55.488-23.392 58.528-53.152-0.384-2.016-1.216-3.872-1.216-5.984s0.832-3.968 1.216-5.984c-3.040-29.76-28-53.12-58.528-53.12v0zM63.997 768.006h534.24v-548.896h-281.344c-14.176 52.32-61.6 91.136-118.368 91.136-56.736 0-104.192-38.816-118.368-91.136h-16.16v548.896zM1019.517 436.902l-101.824 171.872c-5.76 9.696-16.224 15.68-27.52 15.68h-227.936v175.552c0 17.664-14.304 32-32 32h-598.24c-17.696 0-32-14.336-32-32v-612.896c0-17.664 14.304-32 32-32h48.16c14.176-52.32 61.632-91.104 118.368-91.104 56.768 0 104.192 38.784 118.368 91.104h375.872c14.176-52.32 61.568-91.104 118.368-91.104 56.768 0 104.192 38.784 118.368 91.104h62.496c17.696 0 32 14.336 32 32v233.472c0 5.728-1.536 11.36-4.48 16.32v0z" />
<glyph unicode="&#xe914;" glyph-name="down-light" d="M998.4 736l-487.264-548.16-487.232 548.16-23.904-21.248 511.136-575.072 511.168 575.072z" />
<glyph unicode="&#xe915;" glyph-name="down" d="M960 768l-456.064-513.088-456.096 513.088-47.84-42.528 503.936-566.912 503.936 566.912z" />
<glyph unicode="&#xe916;" glyph-name="download" d="M957.658 502.672v-431.744c0-35.296-28.704-64-64-64h-765.664c-35.264 0-64 28.704-64 64v431.744h-64v-431.744c0-70.592 57.408-128 128-128h765.664c70.592 0 128 57.408 128 128v431.744h-64zM740.595 596.483l-47.808 42.56-149.952-168.352v489.312h-64v-489.344l-149.952 168.384-47.808-42.56 229.76-257.952z" />
<glyph unicode="&#xe917;" glyph-name="edit" d="M668.125 138.531l151.936 151.904 102.144-262.432-254.080 110.528zM251.805 882.755l535.040-535.040-174.56-174.528-535.040 535.008 174.56 174.56zM1009.725-20.381l-147.808 379.712c-0.032 0.064-0.096 0.096-0.096 0.16-1.568 3.936-3.904 7.68-7.104 10.848l-580.288 580.288c-12.48 12.512-32.736 12.512-45.248 0l-219.808-219.808c-5.984-6.016-9.376-14.144-9.376-22.624s3.392-16.64 9.376-22.624l580.288-580.288c2.848-2.816 6.176-5.12 9.856-6.72l0.704-0.288h0.032l366.912-159.616c4.096-1.792 8.416-2.656 12.736-2.656 8.096 0 16.096 3.072 22.208 8.928 9.312 8.96 12.288 22.624 7.616 34.688v0z" />
<glyph unicode="&#xe918;" glyph-name="expand" d="M0 960.013v-354.496h64v245.216l344.544-344.544 45.248 45.248-344.544 344.544h245.248v64.032zM570.211 344.557l344.544-344.576h-245.248v-63.968h354.496v354.496h-64v-245.28l-344.544 344.576z" />
<glyph unicode="&#xe919;" glyph-name="facebook" d="M967.101 960c31.192 0 56.489-25.286 56.489-56.493v0-910.612c0-31.196-25.293-56.493-56.489-56.493v0h-910.608c-31.207 0-56.493 25.297-56.493 56.496v0 910.608c0 31.203 25.286 56.493 56.493 56.493v0zM746.285 806.592c-117.944 0-198.691-71.991-198.691-204.202v-113.925h-133.392v-154.482h133.392v-396.392h159.533v396.392h133.051l19.92 154.482h-152.975v98.63c0 44.726 12.418 75.205 76.558 75.205l81.801 0.038v138.167c-14.148 1.879-62.709 6.086-119.198 6.086z" />
<glyph unicode="&#xe91a;" glyph-name="full-screen" d="M0 960.013v-354.496h64v290.464h290.496v64.032zM959.99 290.499v-290.496h-290.464v-64h354.496v354.496zM669.514 960.013v-64.032h290.464v-290.464h64.032v354.496zM0 290.499v-354.496h354.496v64h-290.496v290.496z" />
<glyph unicode="&#xe91b;" glyph-name="github" d="M512 960c-282.885 0-512-229.115-512-512 0-240.618 165.104-440.32 387.856-496.618-2.571 6.405-3.835 15.382-3.835 24.315v87.062h-64.011c-34.555 0-66.582 15.338-80.656 43.531-16.645 30.72-19.216 78.085-61.44 107.542-12.811 10.24-2.571 20.48 11.504 19.216 26.885-7.669 48.629-25.622 69.109-52.464 20.48-26.885 29.456-33.291 67.845-33.291 17.909 0 46.058 1.264 71.68 5.142 14.075 35.862 38.389 67.845 67.845 83.184-171.509 20.48-253.429 104.971-253.429 220.182 0 49.936 21.744 97.302 57.605 138.262-11.504 39.696-26.885 121.616 5.142 153.6 76.822 0 122.88-49.936 134.384-62.704 38.389 12.811 80.656 20.48 124.144 20.48 44.795 0 85.755-7.669 124.144-20.48 11.504 12.811 57.605 62.704 134.384 62.704 30.72-30.72 16.645-113.904 3.835-153.6 35.862-39.696 56.342-88.325 56.342-138.262 0-115.211-80.656-199.702-250.858-217.611 47.365-24.315 80.656-93.424 80.656-144.624v-116.605c0-3.835-1.264-7.669-1.264-11.504 199.658 69.109 343.018 258.527 343.018 482.544 0 282.885-229.115 512-512 512v0z" />
<glyph unicode="&#xe91c;" glyph-name="hamburger-bite" d="M0 415.158h1024v64.032h-1024zM512 62.358h512v64h-512zM0 767.99h1024v64.032h-1024z" />
<glyph unicode="&#xe91d;" glyph-name="hamburger-two" d="M0 255.171h1024v64h-1024zM0 608.003h1024v64h-1024z" />
<glyph unicode="&#xe91e;" glyph-name="hamburger" d="M0 415.158h1024v64.032h-1024zM0 62.358h1024v64h-1024zM0 767.99h1024v64.032h-1024z" />
<glyph unicode="&#xe91f;" glyph-name="heart-fill" d="M941.066 814.010c-52.832 52.864-121.056 81.984-192.032 81.984-92.48 0-179.2-49.216-237.024-133.12-57.824 83.904-144.576 133.12-237.024 133.12-71.008 0-139.232-29.12-192.096-81.984-35.552-35.584-93.44-113.696-81.216-236.992 12.864-129.888 110.048-339.264 499.84-599.104 3.168-2.112 6.816-3.2 10.496-3.2s7.296 1.024 10.528 3.2c389.824 259.904 486.944 469.216 499.808 599.104 12.192 123.296-45.664 201.408-81.28 236.992z" />
<glyph unicode="&#xe920;" glyph-name="heart" d="M289.805 832c-58.016 0-113.952-23.968-157.44-67.488-29.376-29.344-77.12-93.888-66.944-196.416 11.296-114.016 98.176-298.752 446.592-532.896 348.448 234.176 435.296 418.88 446.592 532.896 10.144 102.528-37.6 167.040-66.944 196.384l-0.032 0.032c-43.488 43.52-99.392 67.488-157.408 67.488-75.872 0-147.232-40.448-195.872-110.944l-26.336-38.24-26.336 38.24c-48.64 70.496-120 110.944-195.872 110.944zM512.013-31.712c-9.824 0-19.36 2.912-27.552 8.352-375.872 250.592-469.984 456.512-482.72 585.152-12.768 128.768 48 210.624 85.376 247.968 55.584 55.616 127.584 86.24 202.688 86.24 84 0 163.072-37.728 222.208-104.832 59.136 67.104 138.176 104.832 222.208 104.832 75.104 0 147.072-30.624 202.656-86.24 37.376-37.344 98.176-119.2 85.408-247.968-12.704-128.608-106.784-334.528-482.656-585.12-8.16-5.472-17.728-8.384-27.616-8.384z" />
<glyph unicode="&#xe921;" glyph-name="instagram" d="M508.125 867.739c135.702 0 151.631-0.608 205.266-3.042 49.603-2.23 76.42-10.544 94.366-17.641 23.793-9.328 40.731-20.277 58.475-38.121s28.834-34.877 37.908-58.804c6.856-18.047 15.324-45.015 17.542-94.897 2.42-53.937 3.025-69.956 3.025-206.422s-0.605-152.485-3.025-206.422c-2.218-49.882-10.485-76.851-17.542-94.897-9.275-23.927-20.164-40.96-37.908-58.804s-34.682-28.996-58.475-38.121c-17.946-6.894-44.763-15.411-94.366-17.641-53.635-2.433-69.565-3.042-205.266-3.042s-151.631 0.608-205.266 3.042c-49.603 2.23-76.42 10.544-94.366 17.641-23.793 9.328-40.731 20.277-58.475 38.121s-28.834 34.877-37.908 58.804c-6.856 18.047-15.324 45.015-17.542 94.897-2.42 53.937-3.025 69.956-3.025 206.422s0.605 152.485 3.025 206.422c2.218 49.882 10.485 76.851 17.542 94.897 9.275 23.927 20.164 40.96 37.908 58.804s34.682 28.996 58.475 38.121c17.946 6.894 44.763 15.411 94.366 17.641 53.635 2.636 69.565 3.042 205.266 3.042v0zM508.125 959.797c-137.92 0-155.26-0.608-209.501-3.042-54.039-2.433-90.938-11.152-123.2-23.724-33.472-12.977-61.701-30.619-89.93-59.007s-45.57-56.979-58.676-90.436c-12.501-32.444-21.172-69.551-23.592-124.097-2.42-54.343-3.025-71.781-3.025-210.478s0.605-156.135 3.025-210.68c2.42-54.343 11.090-91.45 23.592-124.097 12.905-33.66 30.447-62.048 58.676-90.436s56.66-45.827 89.93-59.007c32.262-12.572 69.161-21.291 123.402-23.724s71.379-3.042 209.501-3.042c138.121 0 155.26 0.608 209.501 3.042 54.039 2.433 90.938 11.152 123.402 23.724 33.472 12.977 61.701 30.619 89.93 59.007s45.57 56.979 58.676 90.436c12.501 32.444 21.172 69.551 23.592 124.097s3.025 71.781 3.025 210.68c0 138.899-0.605 156.135-3.025 210.68-2.42 54.343-11.090 91.45-23.592 124.097-12.905 33.66-30.447 62.048-58.676 90.436s-56.66 45.827-89.93 59.007c-32.262 12.572-69.161 21.291-123.402 23.724-54.442 2.23-71.783 2.839-209.702 2.839v0 0zM508.125 711.401c-143.969 0-260.918-117.405-260.918-262.387s116.949-262.387 260.918-262.387c143.969 0 260.918 117.608 260.918 262.387s-116.949 262.387-260.918 262.387v0zM508.125 278.685c-93.559 0-169.375 76.242-169.375 170.329s75.815 170.329 169.375 170.329c93.559 0 169.375-76.242 169.375-170.329s-75.815-170.329-169.375-170.329v0zM840.22 721.743c0-33.82-27.263-61.237-60.894-61.237s-60.894 27.417-60.894 61.237c0 33.82 27.263 61.237 60.894 61.237s60.894-27.417 60.894-61.237z" />
<glyph unicode="&#xe922;" glyph-name="ko-fi" d="M807.164 403.595c-39.402-4.923-71.409-1.229-71.409-1.229v241.254h48.479c32.044 0 62.954-13.341 83.858-37.617 14.716-17.093 26.492-41.157 26.492-74.386 0-81.24-41.86-113.247-87.42-128.022zM545.042 423.877c-52.89-61.711-170.291-168.858-170.291-168.858s-5.127-5.025-13.151-0.987c-3.226 2.384-4.601 3.818-4.601 3.818-18.827 18.725-143.024 129.426-171.279 167.892-30.106 40.982-44.193 114.622-3.84 157.52 40.346 42.913 127.59 46.117 185.227-17.276 0 0 66.472 75.659 147.259 40.894s77.722-127.795 30.676-183.003zM1014.707 572.965c-14.146 74.693-54.352 121.22-95.561 149.994-42.613 29.755-93.659 45.041-145.635 45.041h-737.646c-25.659 0-35.496-25.051-35.591-37.595-0.007-1.638 0.044-8.185 0.044-8.185s-1.207-326.349 1.083-500.656c6.963-102.897 110.065-102.861 110.065-102.861s336.618 0.987 498.059 1.982c7.57 0.051 15.133 0.863 22.477 2.699 91.919 23.003 101.42 108.39 100.44 155.992 184.752-10.269 315.107 120.108 282.266 293.588z" />
<glyph unicode="&#xe923;" glyph-name="left-light" d="M799.040 960l-575.040-511.168 575.040-511.136 21.248 23.904-548.128 487.232 548.128 487.264z" />
<glyph unicode="&#xe924;" glyph-name="left" d="M758.912 960l-566.912-503.936 566.912-503.904 42.528 47.808-513.088 456.096 513.088 456.064z" />
<glyph unicode="&#xe925;" glyph-name="linkedin" d="M877.714 82.286h-151.166v239.086c0 57.038-0.963 130.39-78.542 130.39-78.684 0-90.66-62.161-90.66-126.297v-243.179h-150.996v491.681h144.909v-67.227h2.067c20.159 38.665 69.482 79.419 143.040 79.419 153.063 0 181.349-101.799 181.349-234.221v-269.652zM292.571 569.905v-487.619h-146.286v487.619h146.286zM235.726 813.714c49.31 0 89.354-40.043 89.354-89.382 0-49.368-40.043-89.411-89.354-89.411-49.513 0-89.44 40.043-89.44 89.411 0 49.339 39.928 89.382 89.44 89.382zM948.25 960h-872.7c-41.672 0-75.551-33.052-75.551-73.842v-876.288c0-40.761 33.878-73.87 75.551-73.87h872.7c41.758 0 75.75 33.109 75.75 73.87v876.288c0 40.789-33.992 73.842-75.75 73.842z" />
<glyph unicode="&#xe926;" glyph-name="load" d="M960 448c0-39.328-5.088-78.368-15.168-116-52.224-195.488-230.24-332-432.832-332-146.976 0-284 73.344-367.008 191.52l150.624-33.28 13.824 62.496-258.24 57.088-26.432-263.168 63.712-6.4 13.408 133.664c95.616-127.456 247.584-205.92 410.112-205.92 231.52 0 434.944 156.032 494.656 379.456 11.488 43.040 17.344 87.616 17.344 132.544h-64zM512 896c150.56 0 287.456-73.568 370.24-195.52l-151.872 33.536-13.792-62.496 258.272-57.056 26.4 263.168-63.68 6.368-13.312-132.544c-95.456 130.336-246.464 208.544-412.256 208.544-282.304 0-512-229.696-512-512h64c0 247.040 200.96 448 448 448z" />
<glyph unicode="&#xe927;" glyph-name="localization" d="M578.624 72.563c-25.76-24.256-50.080-47.2-71.552-68.704-7.488-7.424-12.736-5.76-18.496-0.064-19.424 19.424-41.088 40.064-64 61.92-132.128 125.888-296.576 282.56-296.576 457.184 0 205.728 167.36 373.088 373.088 373.088s373.088-167.36 373.088-373.088c0-171.808-163.808-326.208-295.552-450.336zM501.088 959.987c-240.992 0-437.088-196.096-437.088-437.088 0-202.048 175.424-369.216 316.416-503.52 22.528-21.472 43.808-41.76 62.912-60.864 14.592-14.528 33.92-22.528 54.464-22.528 20.512 0 39.84 8 54.496 22.56 21.12 21.152 44.96 43.648 70.336 67.52 140.608 132.512 315.552 297.408 315.552 496.832 0 240.992-196.096 437.088-437.088 437.088zM501.126 425.219c-52.224 0-94.72 42.496-94.72 94.72 0 52.192 42.496 94.624 94.72 94.624s94.688-42.432 94.688-94.624c0-52.224-42.464-94.72-94.688-94.72zM501.126 678.563c-87.52 0-158.72-71.168-158.72-158.624 0-87.52 71.2-158.72 158.72-158.72 87.488 0 158.688 71.2 158.688 158.72 0 87.456-71.2 158.624-158.688 158.624z" />
<glyph unicode="&#xe928;" glyph-name="lock" d="M919.718 41.811c0-23.072-18.752-41.824-41.824-41.824h-740.064c-23.040 0-41.824 18.752-41.824 41.824v409.6c0 23.072 18.784 41.824 41.824 41.824h740.064c23.072 0 41.824-18.752 41.824-41.824v-409.6zM275.942 655.955c0 132.352 104.032 240.032 231.936 240.032 127.872 0 231.904-107.68 231.904-240.032v-98.72h-463.84v98.72zM877.894 557.235h-74.112v98.72c0 167.648-132.736 304.032-295.904 304.032-163.2 0-295.936-136.384-295.936-304.032v-98.72h-74.112c-58.368 0-105.824-47.456-105.824-105.824v-409.6c0-58.336 47.456-105.824 105.824-105.824h740.064c58.368 0 105.824 47.488 105.824 105.824v409.6c0 58.368-47.456 105.824-105.824 105.824v0zM475.872 146.752h64v199.744h-64z" />
<glyph unicode="&#xe929;" glyph-name="long-arrow-left-light" d="M120.529 544l-120.529-107.162 120.529-107.117 29.885 33.62-57.339 50.993h930.925v45.007h-930.925l57.339 51.038z" />
<glyph unicode="&#xe92a;" glyph-name="long-arrow-right-light" d="M903.471 544l-29.885-33.62 57.339-51.038h-930.925v-45.007h930.925l-57.339-50.993 29.885-33.62 120.529 107.117z" />
<glyph unicode="&#xe92b;" glyph-name="mail-round" d="M64 128v608.832l403.296-295.712c12.736-9.344 28.704-14.016 44.704-14.016s32 4.672 44.736 14.016l403.264 295.712v-608.832h-896zM894.24 768l-375.328-275.264c-2.976-2.176-10.848-2.176-13.792 0l-375.36 275.264h764.48zM960 832h-896c-35.296 0-64-28.704-64-64v-640c0-35.296 28.704-64 64-64h896c35.296 0 64 28.704 64 64v640c0 35.296-28.704 64-64 64v0z" />
<glyph unicode="&#xe92c;" glyph-name="mail" d="M0 64h1024v768h-1024v-768zM129.76 768h764.48l-382.24-280.32-382.24 280.32zM960 736.864v-608.864h-896v608.864l448-328.544 448 328.544z" />
<glyph unicode="&#xe92d;" glyph-name="meetup" d="M917.44 823.972c-44.362 8.258-88.526 9.183-128.628-17.243-13.279-8.787-26.095-6.673-37.657 3.534-8.919 7.763-17.309 15.988-25.963 23.981-40.96 37.822-95.001 39.639-138.934 5.153-17.738-13.874-32.636-31.182-51.861-43.272-17.243-10.802-34.585-13.874-53.644-3.7-18.168 9.678-36.93 18.168-55.692 26.69-18.994 8.588-37.326 19.159-58.731 20.975-67.551 5.748-138.306-34.42-168.134-95.463-13.213-27.020-24.014-55.065-34.254-83.34-47.302-130.61-85.818-263.994-125.688-396.916-17.837-59.458 3.237-118.024 53.611-150.165 39.308-25.071 82.382-31.249 126.91-17.837 36.104 10.835 55.825 39.87 69.698 72.473 45.915 108.313 87.205 218.376 131.006 327.581 12.024 30.059 23.684 60.185 36.468 89.848 12.883 30.059 49.978 40.299 72.010 20.348 13.378-12.222 16.946-28.342 15.624-45.585-1.453-18.498-8.588-35.543-15.327-52.521-28.408-72.010-57.443-143.756-86.049-215.734-5.781-14.501-12.024-28.936-14.6-44.561-4.36-26.756 6.276-50.539 28.177-60.020 22.363-9.645 45.585-11.198 68.806-2.841 26.954 9.778 43.074 30.951 55.494 55.362 42.678 83.803 85.058 167.87 127.736 251.706 19.687 38.747 39.771 77.295 59.887 115.778 7.465 14.27 16.252 27.747 30.225 36.666 12.618 7.994 26.228 8.588 39.143 1.321 12.618-7.069 13.477-19.985 12.949-32.702-0.33-6.937-2.213-13.543-4.823-19.951-5.516-13.213-10.702-26.69-16.846-39.639-35.477-74.653-71.515-149.042-106.694-223.86-14.798-31.546-30.258-63.323-28.408-96.52 0-76.668 49.317-144.516 119.147-167.507 35.014-11.561 71.085-17.045 107.751-18.63 26.162-1.156 52.29 0.661 76.437 12.717 18.961 9.513 27.912 25.204 27.086 46.080-0.892 21.009-10.306 36.699-30.39 45.089-7.003 2.907-14.105 5.252-21.537 6.573-22.132 3.997-44.461 7.3-66.527 11.66-36.435 7.267-51.695 26.525-52.191 63.356-0.429 32.57 8.423 63.323 18.432 93.713 18.333 55.626 43.074 108.676 66.725 162.188 22.924 51.596 46.906 102.829 63.092 157.234 8.919 29.828 13.114 59.788 5.021 90.674-12.288 46.84-40.398 78.286-88.857 87.304z" />
<glyph unicode="&#xe92e;" glyph-name="minus" d="M0 480h1024v-64h-1024v64z" />
<glyph unicode="&#xe92f;" glyph-name="pinterest" d="M0 448c2.662 145.306 53.965 266.65 154.010 363.93s219.341 146.739 357.99 148.070c149.299-2.662 271.667-53.658 367.002-152.985s143.667-219.034 144.998-359.015c-2.663-143.974-53.965-265.011-154.010-363.008-100.045-97.894-219.341-147.558-357.99-148.889-48.026 0-95.949 7.373-143.974 22.016 9.318 14.643 18.637 31.334 27.955 49.971 10.649 22.63 23.962 65.331 40.038 128 3.994 17.306 10.035 40.653 18.023 70.042 9.318-15.974 25.293-30.617 48.026-44.032 60.006-27.955 123.289-25.293 189.952 7.987 69.325 40.038 117.35 101.99 143.974 185.958 23.962 87.961 20.992 169.677-9.012 244.94-30.003 75.367-83.66 129.639-160.973 163.021-97.28 27.955-192 24.986-283.955-9.011s-155.955-92.365-192-175.002c-9.318-30.617-14.95-61.030-16.998-91.034s-1.024-59.29 2.97-87.962c3.994-28.672 14.029-54.374 30.003-77.004s37.376-40.038 64-52.019c6.656-2.663 11.981-2.663 15.974 0 5.325 2.663 10.649 13.312 15.974 31.949s7.373 31.335 6.041 37.99c-1.331 2.663-3.994 7.373-7.987 14.029-27.955 45.363-37.376 92.979-27.955 142.95 9.319 49.971 30.003 92.365 61.952 126.976 49.357 44.032 107.008 67.994 172.954 71.987s122.368-14.029 168.96-53.965c25.293-29.286 41.677-64.614 48.947-105.984s7.373-80.998 0-118.989c-7.373-37.991-20.378-73.626-39.015-107.008-33.382-52.019-72.704-78.644-117.964-79.975-26.624 1.331-48.333 11.674-65.024 31.027s-21.709 41.677-14.951 66.97c2.663 14.643 10.65 43.315 23.962 86.016s20.685 74.65 22.016 95.949c-3.994 50.688-27.341 76.697-70.042 78.029-33.382-3.994-57.958-19.047-74.035-44.954s-24.678-55.706-26.009-88.986c3.994-38.707 10.035-65.331 18.022-79.975-14.643-60.006-26.009-108.032-33.997-143.974-2.663-9.318-10.035-37.99-22.016-86.016s-18.637-84.685-19.968-109.978v-56.013c-94.618 44.032-169.37 107.622-223.949 190.976s-81.92 175.718-81.92 276.992z" />
<glyph unicode="&#xe930;" glyph-name="plus" d="M480 960v-480h-480v-64h480v-480h64v480h480v64h-480v480z" />
<glyph unicode="&#xe931;" glyph-name="right-light" d="M245.248 960l-21.248-23.904 548.128-487.264-548.128-487.232 21.248-23.904 575.040 511.136z" />
<glyph unicode="&#xe932;" glyph-name="right" d="M234.496 960l-42.496-47.872 513.088-456.064-513.088-456.096 42.496-47.808 566.912 503.904z" />
<glyph unicode="&#xe933;" glyph-name="search" d="M180.282 218.56c-74.976 74.976-116.288 174.656-116.288 280.704 0 106.016 41.312 205.696 116.288 280.672 77.376 77.408 179.040 116.096 280.704 116.096 101.632 0 203.296-38.688 280.672-116.096 154.784-154.752 154.784-406.592 0-561.376-154.752-154.784-406.592-154.784-561.376 0v0zM1019.418-13.92l-211.008 211.008c157.472 180.864 150.592 456.032-21.472 628.128-179.744 179.712-472.192 179.744-651.904 0-87.072-87.072-135.040-202.816-135.040-325.952s47.968-238.88 135.040-325.952c89.856-89.856 207.904-134.784 325.92-134.784 108.032 0 215.776 38.048 302.208 113.312l211.008-211.008 45.248 45.248z" />
<glyph unicode="&#xe934;" glyph-name="secure-pay" d="M756.266 3.485h-664.544c-50.56 0-91.712 41.152-91.712 91.744v449.76c0 50.592 41.152 91.744 91.712 91.744h547.328v-64h-547.328c-15.296 0-27.712-12.448-27.712-27.744v-449.76c0-15.296 12.416-27.744 27.712-27.744h664.544c15.296 0 27.744 12.448 27.744 27.744v386.080h64v-386.080c0-50.592-41.152-91.744-91.744-91.744zM32 314.845h784v160h-784zM149.024 159.197h178.528v64h-178.528zM671.040 513.309h289.92v158.144h-289.92v-158.144zM963.52 449.309h-295.040c-33.856 0-61.44 27.52-61.44 61.408v163.296c0 33.888 27.584 61.44 61.44 61.44h295.040c33.856 0 61.44-27.552 61.44-61.44v-163.296c0-33.888-27.584-61.408-61.44-61.408v0zM921.219 676.813c-17.664 0-32 14.336-32 32v46.72c0 42.176-32.832 76.48-73.216 76.48s-73.216-34.304-73.216-76.48v-46.72c0-17.664-14.336-32-32-32s-32 14.336-32 32v46.72c0 77.472 61.568 140.48 137.216 140.48s137.216-63.008 137.216-140.48v-46.72c0-17.664-14.336-32-32-32z" />
<glyph unicode="&#xe935;" glyph-name="share" d="M960.352 354.016v-318.016c0-17.632-14.336-32-32-32h-832.352c-17.632 0-32 14.368-32 32v828.032c0 17.632 14.368 31.968 32 31.968h414.336v64h-414.336c-52.928 0-96-43.040-96-95.968v-828.032c0-52.928 43.072-96 96-96h832.352c52.928 0 96 43.072 96 96v318.016h-64zM788 738.592c-240.416 0-436-195.584-436-436h64c0 205.12 166.88 372 372 372h66.208l-91.264-81.344 42.56-47.776 178.816 159.264-178.816 159.264-42.56-47.776 87.104-77.632h-62.048z" />
<glyph unicode="&#xe936;" glyph-name="shopping-bag" d="M960 624.97v-559.616c0-35.296-28.704-64-64-64h-768c-35.296 0-64 28.704-64 64v559.616h-64v-559.616c0-70.592 57.408-128 128-128h768c70.592 0 128 57.408 128 128v559.616h-64zM301.923 685.923c0 115.84 94.24 210.080 210.080 210.080s210.080-94.24 210.080-210.080v-164.96h64v164.96c0 151.136-122.944 274.080-274.080 274.080s-274.080-122.944-274.080-274.080v-164.96h64v164.96z" />
<glyph unicode="&#xe937;" glyph-name="smile" d="M512 165.267c-94.048 0-181.696 46.592-234.4 124.64-9.92 14.656-6.080 34.528 8.576 44.416 14.592 9.92 34.56 6.016 44.416-8.576 40.832-60.416 108.64-96.48 181.408-96.48 72.832 0 140.704 36.128 181.536 96.64 9.856 14.688 29.728 18.528 44.448 8.64 14.624-9.888 18.496-29.76 8.608-44.416-52.704-78.208-140.448-124.864-234.592-124.864zM376.374 516.874c0-31.52-25.568-57.088-57.088-57.088-31.552 0-57.088 25.568-57.088 57.088s25.536 57.088 57.088 57.088c31.52 0 57.088-25.568 57.088-57.088zM761.843 516.874c0-31.52-25.568-57.088-57.088-57.088-31.552 0-57.088 25.568-57.088 57.088s25.536 57.088 57.088 57.088c31.52 0 57.088-25.568 57.088-57.088zM512 896c-247.040 0-448-200.96-448-448s200.96-448 448-448c247.040 0 448 200.96 448 448s-200.96 448-448 448zM512-64c-282.304 0-512 229.696-512 512s229.696 512 512 512c282.304 0 512-229.696 512-512s-229.696-512-512-512z" />
<glyph unicode="&#xe938;" glyph-name="spotify" d="M512 960c-282.779 0-512-229.221-512-512s229.221-512 512-512c282.779 0 512 229.221 512 512 0 282.744-229.221 511.965-512 512zM746.811 221.574c-9.188-15.093-28.858-19.809-43.881-10.621-120.218 73.472-271.564 90.067-449.777 49.366-17.189-3.948-34.308 6.813-38.221 24.002-3.948 17.189 6.778 34.308 24.002 38.221 195.018 44.545 362.33 25.364 497.292-57.087 15.023-9.258 19.809-28.858 10.586-43.881v0zM809.453 360.937c-11.564-18.796-36.16-24.665-54.921-13.136-137.581 84.582-347.412 109.073-510.183 59.672-21.102-6.393-43.392 5.52-49.82 26.587-6.359 21.102 5.555 43.357 26.622 49.785 185.934 56.423 417.111 29.102 575.131-68.022 18.796-11.564 24.735-36.125 13.171-54.886zM814.833 506.135c-165.042 97.998-437.27 107.012-594.835 59.218-25.294-7.686-52.056 6.603-59.707 31.897s6.603 52.056 31.932 59.742c180.868 54.886 481.5 44.3 671.487-68.476 22.744-13.521 30.22-42.902 16.735-65.611-13.451-22.779-42.902-30.29-65.611-16.77z" />
<glyph unicode="&#xe939;" glyph-name="star-fill" d="M812.768-21.088c13.632-0.192 24.832 10.4 25.056 23.68 0 1.728-0.16 3.488-0.512 5.216l-66.88 316.544 245.44 217.792c10.112 8.896 10.88 24.096 1.728 33.952-4.064 4.352-9.568 7.104-15.584 7.744l-330.304 35.968-137.28 294.272c-5.76 12.032-20.448 17.28-32.832 11.68-5.312-2.368-9.536-6.528-12.032-11.68l-137.312-294.272-330.272-35.968c-13.568-1.44-23.328-13.312-21.856-26.496 0.672-5.856 3.52-11.232 7.968-15.168l245.472-217.824-66.848-316.544c-2.816-12.992 5.728-25.728 19.072-28.448 5.952-1.216 12.096-0.256 17.344 2.656l288.864 159.68 288.832-159.68c3.648-1.984 7.744-3.072 11.936-3.104z" />
<glyph unicode="&#xe93a;" glyph-name="star" d="M60.767 558.332l0.064-0.032c-0.032 0-0.032 0.032-0.064 0.032v0zM963.167 558.268c-0.032-0.032-0.064-0.032-0.064-0.064l0.064 0.064zM56.127 541.596v0zM512.031 195.452l269.76-149.12-62.656 295.392 227.808 202.144-306.56 33.408-128.352 275.072-128.384-275.072-306.56-33.408 227.808-202.144-62.368-295.264 269.504 148.992zM225.663 37.148c0 0-0.032 0-0.064-0.032l0.064 0.032zM238.367 26.812v-0.064c0 0 0 0.032 0 0.064v0zM229.695-25.796c-3.68 0-7.424 0.352-11.104 1.12-14.656 3.008-27.168 11.456-35.232 23.84-7.936 12.192-10.656 26.72-7.584 40.928l58.816 278.432-216.192 191.84c-10.080 8.864-16.512 21.184-18.048 34.528-1.632 14.432 2.464 28.608 11.584 39.968 9.248 11.552 22.496 18.784 37.312 20.352l291.648 31.776 121.12 259.52c5.696 11.968 15.328 21.312 27.168 26.624 27.232 12.288 59.904 0.512 72.736-26.336l121.216-259.808 291.712-31.776c13.248-1.44 25.568-7.584 34.592-17.28 10.080-10.848 15.232-24.928 14.496-39.616-0.736-14.72-7.264-28.224-18.4-38.016l-216.096-191.776 58.848-278.56c0.832-3.808 1.216-7.808 1.184-11.808-0.448-30.208-24.8-54.048-55.808-53.888-9.152 0.096-18.24 2.464-26.272 6.88l-255.36 141.184-255.328-141.152c-8.224-4.608-17.568-6.976-27.008-6.976v0z" />
<glyph unicode="&#xe93b;" glyph-name="taller-veganista-logo" d="M643.281 8.617l-19.705-72.616-45.473 60.087 17.569 3.372 22.279-34.289 7.841 40.082 17.488 3.365zM394.668 21.67l21.87-7.205c7.629-2.516 12.807-6.246 15.536-11.198 2.721-4.944 3.116-10.357 1.185-16.216-1.382-4.206-3.599-7.519-6.649-9.962-3.043-2.436-6.78-3.752-11.198-3.957v0l8.031-27.897-16.998 5.595-5.925 25.11-4.44 1.463-6.89-20.875-14.438 4.754 19.917 60.387zM508.701-18.743l1.030-0.015c2.45-0.168 4.418-1.112 5.895-2.86 1.477-1.733 2.136-3.745 1.982-6.049-0.146-2.231-1.068-4.125-2.772-5.683-1.69-1.558-3.767-2.253-6.217-2.085-2.458 0.161-4.425 1.126-5.895 2.889-1.477 1.77-2.136 3.774-1.982 6.012 0.146 2.289 1.075 4.206 2.765 5.734 1.697 1.521 3.767 2.194 6.224 2.041zM735.201 49.108l5.895-11.264-24.166-12.632 5.222-9.977 22.565 11.791 5.72-10.942-22.557-11.791 6.736-12.88 24.152 12.632 5.888-11.271-37.149-19.412-29.455 56.327 37.149 19.419zM405.010 4.489l-5.179-15.696 6.32-2.085c2.911-0.958 5.405-1.024 7.512-0.183 2.114 0.841 3.577 2.487 4.389 4.966 0.827 2.531 0.651 4.74-0.556 6.634s-3.262 3.321-6.166 4.279v0l-6.32 2.085zM302.207 74.061l34.604-23.632-7.183-10.503-22.491 15.375-6.349-9.304 21.007-14.351-6.963-10.196-21.014 14.351-8.192-12.003 22.491-15.36-7.175-10.503-34.597 23.64 35.862 52.487zM824.027 117.974c5.31 1.287 10.562 1.39 15.755 0.307v0l-4.681-14.577c-2.765 0.761-5.581 0.892-8.433 0.41-2.86-0.483-5.61-2.019-8.251-4.637-2.472-2.443-4.198-5.244-5.179-8.375-0.987-3.145-1.039-6.378-0.168-9.684 0.87-3.313 2.772-6.451 5.712-9.428 2.933-2.97 6.071-4.959 9.392-5.976s6.583-1.097 9.808-0.263c3.211 0.841 6.122 2.538 8.726 5.113 3.321 3.284 5.135 6.605 5.435 9.969 0.307 3.365-0.336 6.649-1.909 9.867v0l-11.893-11.761-8.294 8.397 22.696 22.44c3.752-3.365 6.715-7.088 8.909-11.184s3.504-8.316 3.92-12.661c0.424-4.345-0.154-8.645-1.733-12.888s-4.286-8.265-8.126-12.061c-4.732-4.667-9.947-7.826-15.638-9.45-5.691-1.609-11.366-1.668-17.028-0.161-5.669 1.507-10.862 4.659-15.587 9.435-4.732 4.776-7.76 10.021-9.092 15.718-1.339 5.705-1.090 11.381 0.746 17.028s5.12 10.803 9.86 15.492c4.725 4.667 9.75 7.658 15.053 8.931zM231.23 144.578l9.86-11.571-38.327-32.614 16.406-19.244-10.101-8.594-26.251 30.815 48.413 41.209zM694.348 957.776c22.396 8.119 38.605-6.963 38.605-29.484-0.007-26.573-16.238-48.611-26.756-71.848-11.327-25.027-11.197-51.967-9.815-78.789l0.382-6.993c0.331-5.823 0.68-11.633 0.94-17.407 2.677-59.568-9.56-117.826-35.913-171.052 31.978-12.069 61.499-33.646 82.593-57.278 4.564-5.105 2.611-14.416-2.845-17.423 25.059-21.914 45.648-47.806 60.701-78.299 2.692-5.442 0.483-10.086-3.284-12.208 15.397-11.344 30.047-23.808 39.636-40.682v0l0.41-0.761c15.536 5.054 31.386 9.157 47.44 12.215 4.257 0.819 6.071-5.347 1.807-6.554-15.301-4.359-30.588-8.287-45.7-12.807 6.203-14.073 9.004-30.076 8.85-45.7 0.797-0.029 1.587-0.051 2.377-0.073 4.601-0.124 4.593-7.329 0-7.139-0.878 0.037-1.755 0.073-2.64 0.11-0.293-4.454-0.819-8.858-1.595-13.129-0.973-5.42-5.793-6.641-9.83-5.127 0.19-32.073-18.344-60.752-40.419-85.307-16.187-18.015-33.331-35.518-51.054-52.034-14.555-13.553-30.552-29.791-49.035-37.581-31.364-46.643-108.478-50.973-158.325-45.509-70.32 7.717-141.012 30.011-199.497 70.59 0.168-2.333 0.161-4.71 0.11-7.007-0.139-6.48-7.402-11.169-13.202-7.578-12.741 7.877-22.484 18.747-28.123 31.781-0.366-0.987-0.702-2.004-0.987-3.087-2.487-9.501-14.599-7.907-17.708 0-10.24 25.958-9.501 54.213 2.692 78.519-1.931-0.666-3.862-1.353-5.808-1.997-8.989-2.992-14.921 7.49-11.388 14.819 14.065 29.199 22.594 59.465 24.956 91.845 2.165 29.601-0.161 59.253-0.161 88.883-20.048 19.946-40.953 38.788-62.683 57.695-32.848 28.592-62.969 59.348-86.301 96.344-20.356 32.3-35.233 67.76-44.815 104.682-1.661 6.406-3.187 12.93-4.69 19.506l-1.8 7.912c-6.611 29.072-13.64 58.646-30.586 83.144-2.425 3.509-5.299 6.789-8.267 10.026l-4.476 4.848c-6.934 7.564-13.406 15.404-14.898 25.888-1.829 12.902 3.92 24.905 16.53 29.557 15.55 5.742 37.237 0.731 53.16-1.726 17.086-2.633 33.924-6.715 50.352-12.083 131.299-42.964 220.423-157.681 257.499-286.596 13.232 18.344 33.214 33.295 53.914 40.024 6.846 2.224 11.513-5.727 8.989-11.045 5.003 2.721 10.196 5.186 15.536 7.344 4.045 58.719 21.687 114.556 48.252 167.175 24.539 48.618 56.912 93.506 95.422 132.023 17.101 17.101 38.166 40.938 61.447 49.371zM709.752 931.116c-9.384 13.283-32.995-13.385-40.068-19.668-88.152-78.197-139.235-182.981-163.416-296.55 13.678 3.628 27.78 5.113 41.457 3.628 12.003-1.287 11.856-17.137 0-18.564-31.971-3.833-58.47-9.684-87.091-25.132-7.446-4.023-16.486 6.488-9.399 12.178 1.302 1.039 2.655 2.055 4.008 3.065-6.385-3.803-12.537-7.929-18.256-13.005-7.804-6.927-14.636-14.98-21.182-23.142 2.948-12.017 5.5-24.123 7.556-36.286 1.946-11.571-15.17-16.75-17.913-4.93-17.73 76.31-49.459 154.2-100.403 214.491-44.295 52.421-103.022 93.118-169.231 112.26-16.472 4.762-33.346 8.272-50.395 10.072-0.753 0.080-1.515 0.177-2.281 0.283l-2.308 0.337c-7.326 1.096-14.683 2.195-18.465-4.373-4.33-7.534-0.973-7.483 4.169-13.509 2.465-2.904 4.974-5.749 7.314-8.763 19.405-25.059 28.965-55.186 36.454-85.577 8.324-33.733 15.718-67.16 30.332-98.911 14.797-32.124 34.575-61.974 58.5-87.998 44.851-48.801 107.995-84.056 143.272-141.173 6.166-9.984-8.528-21.526-16.34-12.61-6.115 6.971-12.347 13.714-18.644 20.356 6.627-52.597 4.089-104.448-14.365-154.053 1.404 0.41 2.809 0.812 4.206 1.221 9.523 2.772 14.314-8.082 9.977-14.563-0.066-1.148-0.402-2.37-1.148-3.65-10.906-18.6-15.28-39.139-12.368-59.553 0.651 0.38 1.317 0.658 2.004 0.827 1.997 2.677 7.365 2.070 8.682-1.653 0.227-0.636 0.512-1.243 0.761-1.865 1.061-1.324 1.77-2.882 1.88-4.557 4.176-8.982 10.138-16.903 17.584-23.245 0.351 0.848 0.761 1.682 1.331 2.494 0.271 0.388 0.578 0.731 0.892 1.046-1.148 4.754 3.299 9.955 9.019 7.014 59.121-30.442 120.181-54.967 186.222-65.207 32.695-5.076 67.957-8.309 100.476-0.395 32.366 7.877 53.68 26.441 71.175 53.95 4.286 6.751 13.21 4.996 16.121-0.746 8.075 6.612 16.501 12.939 23.962 19.756 13.392 12.237 26.456 24.825 39.307 37.639 27.948 27.889 57.754 62.288 52.59 104.602-7.439 0.307-14.877 0.614-22.316 0.922-4.155 0.168-4.176 6.576 0 6.466v0l22.945-0.644c1.485 2.121 4.323 3.006 6.59 2.033-0.556 12.961-1.646 25.556-6.678 37.786-7.402-2.531-14.753-5.281-22.016-8.426-4.059-1.77-7.621 4.169-3.518 6.020 7.336 3.291 14.782 6.334 22.301 9.157-0.49 0.907-0.98 1.807-1.529 2.706-10.123 16.603-26.163 29.601-40.828 42.035-3.643 3.087-1.624 8.243 1.836 10.174-0.432 0.578-0.87 1.148-1.302 1.719-1.368 1.785-1.733 3.672-1.456 5.456-17.957 31.803-41.136 60.080-69.8 83.061-3.979 3.196-1.851 8.719 1.851 10.891-13.707 11.461-28.372 21.438-44.756 29.484-23.398 11.491-48.45 17.232-72.96 25.673-4.308 1.485-5.53 9.253 0 10.035 14.863 2.077 30.062 1.090 45.034-2.224 15.492 30.135 26.405 62.201 31.898 95.715 5.976 36.447 2.128 72.075 1.456 108.661-0.614 33.178 6.32 61.067 21.482 90.397 4.425 8.558 22.733 37.53 15.792 47.36zM585.641 132.677c-3.708 2.896 1.499 8.031 5.171 5.164 8.741-6.824 18.483-10.16 29.118-12.771 3.511-0.856 2.787-6.568-0.863-6.341-12.39 0.775-23.757 6.4-33.426 13.948zM519.208 170.627c-1.543 3.094 2.648 6.905 5.069 3.913 15.089-18.637 29.981-35.591 51.024-47.784 2.516-1.456 0.307-4.974-2.238-3.818-21.833 9.925-42.935 25.776-53.855 47.689zM494.387 175.63c-1.17 4.206 5.179 7.051 7.153 3.013 6.824-13.97 15.792-27.056 28.197-36.637 4.842-3.738 0.154-12.112-4.893-8.368-14.482 10.745-25.549 24.459-30.457 41.991zM875.789 203.608l75.22-2.311-8.075-15.265-13.612 0.483-9.333-17.657 8.068-10.979-8.068-15.265-44.2 60.994zM469.594 177.547c-1.624 3.321 2.597 7.095 5.347 4.125 7.395-8.009 14.775-15.996 23.932-22.031 5.018-3.306 0.278-11.432-4.725-8.075-10.057 6.744-19.178 14.987-24.554 25.98zM438.857 182.941c-2.392 3.196 2.692 6.707 5.347 4.125 5.413-5.274 11.088-10.416 17.276-14.768 4.381-3.087 0.088-10.357-4.206-7.19-7.036 5.179-13.173 10.832-18.417 17.832zM180.441 230.934l6.554-13.714-45.4-21.701 10.898-22.799-11.966-5.712-17.459 36.513 57.373 27.414zM900.043 190.793l11.015-13.758 6.517 12.332-17.532 1.426zM766.746 387.295c5.895 2.692 13.268-1.748 11.366-8.748-1.419-5.164-4.82-9.084-9.114-12.025-0.007-0.271-0.037-0.556-0.154-0.819-2.853-6.722-10.467-21.065-19.141-22.111 3.35-24.883 4.396-51.639-1.989-75.147 6.232-4.308 12.727-8.316 19.646-11.388 11.513-5.127 19.207-1.346 28.606 5.749 5.061 3.811 9.743-4.008 6.283-8.148-7.673-9.201-17.042-16.194-29.74-13.305-2.107 0.483-4.184 1.185-6.239 1.96-4.462-5.566-11.93-14.16-17.876-17.32-6.875-3.672-20.012-1.083-25.958 0.395-5.456-4.784-11.783-9.019-19.178-12.551-22.521-10.781-50.308-14.855-75.169-14.98-20.612-0.11-51.010 2.984-65.104 19.778-2.348 2.809-1.185 8.865 3.43 8.272 9.757-1.251 17.481-5.8 26.917-8.645 10.386-3.131 21.043-4.557 31.876-4.762 20.641-0.395 42.723 2.077 62.318 8.748 52.856 18.003 54.527 69.035 52.565 116.349l-0.19 4.356-0.1 2.168c-0.029 0.658 0.080 1.243 0.285 1.777-1.434 0.958-2.809 1.96-4.096 2.787-6.085 3.906-12.171 7.819-18.249 11.725-1.17 0.753-1.814 1.755-2.099 2.816-2.128 0.68-4.25 1.39-6.371 2.099-8.704 2.97-5.2 15.733 3.803 13.78 10.401-2.253 21.153-4.615 31.846-3.269 9.34 1.163 13.941 6.839 21.826 10.459zM409.823 247.599c3.76 1.295 6.81-4.059 3.891-6.678-3.511-3.16-7.183-6.246-8.967-10.759-0.914-2.311-3.035-3.928-5.654-3.204-2.209 0.607-4.111 3.335-3.204 5.639 2.611 6.612 7.036 12.624 13.934 15.002zM391.502 253.799c2.721 1.009 5.186-3.131 2.896-4.974-5.515-4.454-10.825-8.865-14.585-14.972-2.64-4.293-9.501-0.263-6.751 3.942 4.557 6.963 10.555 13.078 18.439 16.004zM351.178 246.989c12.507 12.149 30.281 22.279 48.245 20.224 2.428-0.278 3.299-3.818 0.614-4.506-16.589-4.257-31.444-8.229-44.405-20.165-2.977-2.736-7.365 1.616-4.454 4.447zM644.973 285.020c5.193 1.843 7.329-6.312 2.26-8.199-25.6-9.494-50.081-21.27-75.227-31.817-4.191-1.755-6.715 5.010-3.013 7.153 23.837 13.795 50.081 23.669 75.981 32.863zM923.132 343.399l65.755-11.586-45.195-36.14 34.531-6.085-2.538-14.438-65.755 11.586 45.195 36.14-34.531 6.085 2.538 14.438zM87.197 341.616l72.090-21.936-61.345-43.586-2.794 17.050 11.14 7.834-3.226 19.705-13.071 3.891-2.794 17.042zM387.754 418.882c-2.004 5.493 4.981 9.523 9.216 7.285 0.717-0.132 1.441-0.344 2.18-0.739 16.095-8.475 33.782-8.722 51.716-8.194l7.183 0.235c19.173 0.642 38.422 1.036 56.111-7.861 29.36-14.76 47.565-45.232 48.443-77.729 0.197-7.446-7.175-10.021-12.515-7.848-2.553-3.599-5.522-6.905-8.814-9.911 7.614 2.055 15.228 4.008 22.799 5.895 34.392 8.558 69.522 15.038 104.821 18.439 6.283 0.607 6.056-8.938 0-9.691-50.856-6.305-102.1-18.235-151.362-34.341 1.58-2.311 3.072-4.63 4.454-6.978 3.365-5.691-4.33-11.293-8.945-6.905-3.218 3.065-6.385 6.115-9.545 9.157-12.083-4.176-24.042-8.602-35.825-13.253-4.857-1.924-7.782 5.793-3.467 8.236 9.179 5.193 18.776 9.611 28.592 13.575-1.009 1.097-1.719 2.384-2.114 3.789-23.559 22.565-47.082 43.674-77.349 59.443-5.003 2.597-1.434 11.257 3.862 9.165v0l1.536-0.644c-13.67 13.78-24.24 30.347-30.976 48.874zM115.116 319.563l2.26-13.765 14.833 9.45-17.093 4.315zM506.713 392.93c6.422-11.008 9.15-23.874 6.985-37.076-2.363-14.431-10.533-24.232-20.89-33.163 2.926-2.736 5.778-5.522 8.492-8.382 15.638 2.384 33.163 12.017 41.413 25.322 0.351 0.563 0.739 1.031 1.141 1.456-3.496 22.696-17.532 41.574-37.142 51.844zM342.988 329.976c12.859 8.624 32.432 18.995 48.413 15.77 3.65-0.731 2.779-5.442 0-6.554-6.971-2.801-14.921-3.050-22.148-5.274-7.987-2.443-15.397-6.027-22.491-10.408-4.14-2.545-7.739 3.811-3.774 6.466zM383.224 329.667l5.442-0.168c4.059-0.132 4.052-6.166 0-6.29-1.814-0.059-3.628-0.11-5.442-0.168-4.272-0.132-4.264 6.766 0 6.627v0zM355.759 355.43c11.279 5.142 24.042 8.624 36.513 7.248 5.010-0.549 5.259-7.885 0-7.995-11.871-0.234-22.652-1.28-33.755-5.786-3.767-1.521-6.393 4.871-2.757 6.532zM476.586 378.36c0 8.404-5.595 16.011-14.804 14.811-7.227-0.944-13.21-6.81-13.21-15.206 0-8.404 5.939-14.621 13.21-15.206 10.006-0.805 14.804 7.205 14.804 15.601zM593.774 417.193c-4.491 4.513 2.37 11.344 6.971 6.971 7.629-7.241 14.585-15.067 20.78-23.581 5.771-7.936 13.371-17.701 14.987-27.538 0.695-4.25-4.63-8.792-8.104-4.718-5.954 7.014-9.179 16.325-14.263 24.079-5.895 8.997-12.793 17.174-20.37 24.788zM436.29 397.251l-0.81-0.056c-3.269-0.432-5.968-3.079-5.968-6.883 0-3.796 2.684-6.612 5.968-6.875 4.52-0.366 6.7 3.255 6.7 7.058 0 3.796-2.538 7.241-6.7 6.7zM140.774 447.043l13.736-1.368-4.923-49.584-13.744 1.368 1.704 17.181-49.532 4.908 1.514 15.214 49.54-4.908 1.704 17.189zM984.989 430.543l1.39-15.419-63.342-5.676-1.382 15.404 63.334 5.691zM570.532 450.613l0.693-0.076c20.443-3.752 46.826-15.404 56.466-35.189 1.807-3.686-2.414-6.7-5.471-4.22-8.258 6.693-14.694 14.643-23.925 20.283-9.084 5.552-18.878 9.055-29.286 11.088-5.281 1.031-3.006 8.989 2.216 8.038zM738.201 471.504c-0.015 4.111 6.21 4.996 7.19 0.973 2.896-11.944 4.74-23.713 8.997-35.328 1.814-4.959-6.056-7.044-7.87-2.172-4.286 11.505-8.251 24.144-8.316 36.528zM512.266 464.627c31.912 6.363 67.899 6.224 97.58-8.616 4.111-2.055 1.119-8.141-3.013-7.146-31.408 7.534-59.721 12.705-91.984 6.415-6.1-1.185-8.697 8.126-2.582 9.348zM721.263 480.556c0.936 2.597 4.118 3.738 6.246 1.653 3.335-3.284 3.92-7.153 4.857-11.579v0l3.013-14.16c1.39-6.502-8.448-9.282-9.999-2.757-1.119 4.688-2.238 9.377-3.357 14.073-1.046 4.374-2.363 8.375-0.761 12.771zM156.905 753.192c-4.63 3.986 1.375 11.279 6.393 8.28 52.619-31.459 96.161-76.829 131.716-126.427 35.013-48.837 69.559-108.705 78.658-168.967 0.965-6.4-8.338-11.915-11.498-4.849-0.958 2.136-1.872 4.286-2.794 6.437-7.541 5.127-15.177 8.909-25.125 9.157-6.027 0.139-6.020 9.531 0 9.348 6.32-0.19 12.968-1.521 19.054-4.045-1.785 4.396-3.54 8.799-5.303 13.195-5.215 2.311-10.394 4.71-15.945 6.254-10.043 2.779-20.158 3.35-30.493 2.436-5.537-0.497-6.766 8.894-1.317 9.684 12.624 1.821 27.831 1.894 41.216-2.041-0.585 1.448-1.185 2.889-1.777 4.33-6.619 3.847-13.129 7.899-20.151 11.030-15.419 6.897-31.642 11.015-48.333 13.334-6.071 0.848-4.579 11.374 1.456 10.686 17.532-1.989 39.431-6.107 58.149-14.453-1.258 2.757-2.523 5.508-3.84 8.243-12.859 26.536-27.736 52.048-44.617 76.229-35.16 50.344-79.067 92.306-125.447 132.14zM531.87 481.106l3.707-0.102c5.171-0.212 5.12-7.665 0-7.995-17.532-1.104-34.728-3.877-51.368-9.604-5.522-1.909-7.797 6.751-2.392 8.682 17.488 6.29 35.167 9.706 53.76 8.916zM937.182 548.941c6.056 2.128 11.396 1.726 16.033-1.229 4.63-2.948 8.163-7.907 10.606-14.863 1.273-3.621 1.799-7.263 1.58-10.928-0.227-3.672-1.126-7.153-2.699-10.437-1.58-3.284-3.796-6.137-6.678-8.543v0l-10.664 7.6c2.889 3.306 4.835 6.385 5.859 9.253 1.009 2.867 0.98 5.859-0.117 8.967-1.682 4.813-4.476 6.532-8.36 5.164-1.719-0.6-2.896-1.631-3.533-3.094-0.644-1.47-1.024-3.255-1.156-5.361-0.132-2.114-0.249-4.454-0.373-7.044-0.051-1.668-0.227-3.591-0.527-5.764-0.293-2.165-0.863-4.352-1.69-6.546-0.841-2.202-2.121-4.22-3.847-6.064-1.726-1.851-4.052-3.284-6.963-4.308-3.372-1.185-6.627-1.331-9.772-0.432-3.138 0.9-5.961 2.684-8.477 5.369-2.509 2.677-4.476 6.049-5.91 10.123-1.492 4.235-2.077 8.068-1.77 11.483 0.315 3.408 1.163 6.371 2.575 8.865 1.404 2.487 2.992 4.498 4.776 6.012v0l10.035-8.587c-1.792-2.019-3.021-4.096-3.694-6.203-0.673-2.114-0.6-4.323 0.212-6.649 0.739-2.085 1.763-3.584 3.072-4.491s2.736-1.090 4.279-0.549c1.382 0.483 2.326 1.536 2.853 3.145 0.519 1.609 0.819 3.606 0.885 5.983 0.066 2.37 0.124 4.871 0.161 7.49 0 3.116 0.395 6.1 1.2 8.953 0.79 2.845 2.158 5.376 4.074 7.578 1.924 2.209 4.601 3.906 8.031 5.105zM546.105 586.357c7.526 0.044 16.121 0.336 22.491-4.133 3.803-2.662 3.847-9.377-1.382-10.562-7.117-1.624-13.941 0.68-21.109 1.331-7.578 0.688-15.133 0.556-22.711-0.124-6.312-0.556-7.643 9.889-1.485 11.023 7.995 1.477 16.055 2.428 24.196 2.465zM901.547 647.124l8.777-12.515-40.719-28.613 9.911-14.124-11.293-7.943-28.628 40.792 11.301 7.936 9.918-14.139 40.733 28.606zM800.274 749.254l13.261-11.067-3.306-13.217 15.338-12.793 12.412 5.61 13.261-11.067-68.857-30.566 17.891 73.099zM804.999 714.072l-5.040-16.852 15.748 7.914-10.708 8.938z" />
<glyph unicode="&#xe93c;" glyph-name="taller-veganista-mascot-fill" d="M953.882 283.118c-11.443 20.25-29.261 35.098-47.718 48.691 4.838 1.306 8.422 6.426 5.325 12.672-17.946 36.25-42.522 67.072-72.55 93.005 7.245 0.973 10.598 11.955 5.427 17.715-25.114 27.802-59.955 52.915-97.664 66.867 31.206 62.131 45.722 130.202 42.598 199.885-1.843 40.704-7.219 82.714 10.163 121.037 12.058 26.598 30.771 51.942 30.797 82.381 0 24.55-17.178 41.062-41.754 32.205-26.752-9.651-51.046-37.248-70.682-56.909-44.646-44.621-82.125-96.589-110.592-152.934-31.206-61.773-51.661-127.539-56.653-196.506-7.706-2.816-15.232-6.144-22.554-9.856 0.947 2.227 1.869 4.454 2.816 6.707 2.995 7.194-6.246 11.366-11.674 8.934-25.37-11.213-46.054-27.93-61.747-49.894-42.598 150.835-145.613 285.747-299.136 336-19.098 6.246-38.656 11.008-58.522 14.054-17.971 2.765-42.65 8.55-60.237 2.125-13.824-5.043-19.84-18.15-17.818-32.205 2.816-19.302 21.299-31.155 31.718-46.259 26.010-37.76 32.051-85.581 43.315-128.998 11.085-42.752 28.288-83.738 51.84-121.114 44.8-71.066 112.896-120.883 172.493-178.765 0.41-34.867 3.226-69.786 0.742-104.627-2.688-38.042-12.646-73.472-29.133-107.725-3.405-7.117 2.33-17.229 11.034-14.362 3.61 1.203 7.168 2.432 10.752 3.661-15.718-28.851-17.203-62.797-4.89-94.003 3.021-7.654 14.746-9.19 17.126 0 0.691 2.586 1.587 4.89 2.637 7.117 6.349-16.333 18.074-29.901 33.766-39.45 5.658-3.43 12.646 1.024 12.8 7.322 0.077 3.789 0.154 7.68-0.461 11.341 68.813-47.36 151.219-73.984 233.856-83.046 58.394-6.4 145.254-1.459 182.016 52.122 1.024 0.051 2.074 0.333 3.123 0.845 22.374 10.342 42.163 31.104 59.827 47.949 19.456 18.56 38.63 37.76 56.448 57.882 24.909 28.083 45.184 60.902 44.467 97.459 4.147-2.611 10.368-1.946 11.341 4.096 4.403 27.93 1.459 59.597-12.646 84.582z" />
<glyph unicode="&#xe93d;" glyph-name="taller-veganista-mascot" d="M777.985 957.426c25.922 9.402 44.667-8.057 44.667-34.114 0-21.285-9.001-40.052-18.58-58.509l-3.203-6.144c-3.201-6.139-6.363-12.27-9.174-18.477-17.086-37.77-11.636-79.305-9.825-119.385 3.097-68.93-11.052-136.336-41.544-197.911 36.999-13.972 71.147-38.937 95.562-66.272 5.281-5.916 3.021-16.689-3.3-20.167 29.002-25.346 52.825-55.304 70.241-90.586 3.106-6.296 0.559-11.679-3.8-14.133 17.806-13.126 34.757-27.546 45.86-47.070v0l0.474-0.88c17.975 5.848 36.314 10.604 54.89 14.141 4.925 0.939 7.024-6.195 2.090-7.591-17.713-5.035-35.4-9.588-52.876-14.818 7.176-16.282 10.409-34.799 10.24-52.876 0.914-0.034 1.836-0.059 2.75-0.076 5.323-0.152 5.315-8.48 0-8.268v0l-3.047 0.135c-0.347-5.162-0.965-10.248-1.853-15.191-1.126-6.279-6.703-7.693-11.382-5.941 0.228-37.101-21.225-70.284-46.749-98.702-18.737-20.835-38.582-41.095-59.087-60.204-16.833-15.673-35.341-34.469-56.735-43.482-36.289-53.967-125.512-58.969-183.178-52.647-81.37 8.92-163.163 34.714-230.832 81.666 0.203-2.691 0.195-5.45 0.127-8.107-0.169-7.498-8.564-12.914-15.275-8.767-14.734 9.114-26.015 21.69-32.531 36.779-0.423-1.151-0.812-2.327-1.142-3.58-2.869-10.993-16.892-9.14-20.488 0-11.848 30.043-10.993 62.726 3.114 90.848-2.243-0.77-4.468-1.549-6.719-2.302-10.401-3.461-17.264 8.657-13.177 17.137 16.266 33.784 26.133 68.803 28.884 106.276 2.497 34.249-0.203 68.549-0.203 102.832-23.188 23.087-47.375 44.878-72.518 66.763-38.006 33.073-72.865 68.659-99.853 111.472-23.56 37.372-40.765 78.391-51.852 121.111-2.306 8.895-4.388 17.985-6.469 27.141l-2.089 9.173c-7.367 32.146-15.631 64.554-34.34 91.61-2.808 4.060-6.135 7.855-9.57 11.601l-5.181 5.609c-8.024 8.752-15.513 17.825-17.239 29.962-2.116 14.92 4.545 28.807 19.126 34.198 17.992 6.643 43.093 0.838 61.516-2.006 19.769-3.047 39.242-7.769 58.258-13.981 151.916-49.711 255.027-182.441 297.933-331.598 15.301 21.225 38.43 38.523 62.379 46.308 7.913 2.581 13.32-6.626 10.392-12.779 5.797 3.148 11.806 6 17.967 8.497 4.697 67.948 25.109 132.545 55.846 193.434 28.384 56.244 65.841 108.189 110.406 152.745 19.786 19.786 44.159 47.366 71.088 57.124zM795.816 926.579c-10.858 15.368-38.176-15.487-46.359-22.756-102.002-90.476-161.098-211.714-189.085-343.108 15.825 4.198 32.142 5.916 47.976 4.198 13.887-1.498 13.71-19.837 0-21.479-36.999-4.443-67.652-11.213-100.775-29.087-8.615-4.655-19.075 7.515-10.866 14.091 1.515 1.21 3.064 2.378 4.638 3.546-7.388-4.401-14.505-9.174-21.123-15.038-9.038-8.014-16.934-17.332-24.517-26.776 3.419-13.913 6.372-27.91 8.742-41.984 2.26-13.388-17.535-19.38-20.717-5.712-20.522 88.292-57.234 178.413-116.169 248.172-51.251 60.653-119.199 107.74-195.804 129.896-19.058 5.501-38.582 9.571-58.317 11.653-1.741 0.184-3.523 0.451-5.307 0.717l-2.672 0.39c-7.546 1.045-14.772 1.343-18.688-5.457-3.579-6.22-2.619-7.971 0.386-11.006l2.029-2.021c0.745-0.756 1.552-1.608 2.4-2.605 2.86-3.351 5.763-6.652 8.463-10.138 22.46-28.994 33.513-63.852 42.187-99.006v0l3.367-13.758c8.385-34.347 16.809-68.278 31.736-100.693 17.103-37.16 39.995-71.697 67.677-101.816 51.894-56.464 124.953-97.255 165.77-163.341 7.134-11.552-9.868-24.906-18.906-14.581-7.075 8.065-14.285 15.868-21.572 23.544 7.667-60.856 4.722-120.84-16.621-178.244 1.616 0.474 3.241 0.948 4.866 1.413 11.019 3.207 16.553-9.351 11.535-16.849-0.068-1.329-0.457-2.742-1.329-4.223-12.61-21.521-17.687-45.276-14.302-68.896 0.753 0.432 1.523 0.753 2.319 0.956 2.31 3.089 8.522 2.387 10.054-1.921 0.254-0.736 0.584-1.43 0.863-2.158 1.236-1.523 2.048-3.334 2.183-5.272 4.815-10.384 11.729-19.549 20.336-26.886 0.398 0.973 0.889 1.946 1.549 2.877 0.313 0.449 0.669 0.846 1.032 1.21-1.329 5.501 3.817 11.518 10.426 8.116 68.396-35.222 139.061-63.598 215.463-75.446 37.837-5.865 78.628-9.614 116.262-0.457 37.439 9.114 62.109 30.593 82.343 62.422 4.968 7.811 15.292 5.78 18.652-0.855 9.351 7.642 19.101 14.962 27.733 22.85 15.495 14.167 30.61 28.723 45.471 43.55 32.345 32.269 66.822 72.069 60.856 121.027v0l-25.828 1.066c-4.798 0.203-4.815 7.617 0 7.481v0l26.556-0.745c1.718 2.454 5.002 3.478 7.617 2.353-0.643 15.005-1.896 29.569-7.727 43.719-8.556-2.92-17.061-6.102-25.456-9.749-4.705-2.040-8.827 4.824-4.079 6.965 8.488 3.808 17.103 7.329 25.803 10.595-0.567 1.049-1.134 2.090-1.769 3.131-11.713 19.219-30.271 34.249-47.248 48.636-4.206 3.571-1.879 9.538 2.133 11.772-0.508 0.669-1.007 1.329-1.523 1.989-1.566 2.065-1.989 4.248-1.667 6.313-20.776 36.796-47.595 69.514-80.761 96.104-4.612 3.698-2.141 10.088 2.141 12.601-15.859 13.27-32.836 24.813-51.784 34.114-27.073 13.304-56.058 19.938-84.417 29.704-4.993 1.718-6.406 10.714 0 11.611 17.188 2.403 34.774 1.269 52.097-2.556 17.933 34.858 30.559 71.951 36.923 110.736 6.906 42.162 2.454 83.384 1.667 125.715-0.702 38.387 7.32 70.664 24.855 104.592 5.128 9.901 26.311 43.423 18.28 54.797zM652.214 2.767c-4.291 3.351 1.735 9.292 5.983 5.975 10.113-7.896 21.386-11.746 33.69-14.768 4.062-0.999 3.224-7.608-0.999-7.346-14.336 0.897-27.479 7.405-38.675 16.139zM575.35 46.677c-1.786 3.58 3.064 7.989 5.865 4.528 17.459-21.563 34.689-41.18 59.037-55.288 2.911-1.684 0.355-5.755-2.581-4.418-25.27 11.484-49.685 29.823-62.32 55.178zM546.628 52.463c-1.354 4.866 6 8.158 8.277 3.487 7.904-16.164 18.271-31.304 32.624-42.39 5.611-4.324 0.195-14.014-5.653-9.673-16.765 12.423-29.569 28.291-35.248 48.577zM517.945 54.683c-1.879 3.842 3.004 8.209 6.186 4.773 8.556-9.267 17.095-18.508 27.69-25.49 5.805-3.825 0.33-13.227-5.467-9.343-11.628 7.803-22.189 17.34-28.41 30.060zM482.388 60.929c-2.767 3.69 3.114 7.76 6.178 4.765 6.262-6.102 12.838-12.051 19.981-17.086 5.078-3.563 0.11-11.983-4.858-8.319-8.141 5.983-15.242 12.533-21.301 20.641zM861.756 297.367c6.821 3.114 15.352-2.023 13.151-10.122-1.642-5.975-5.577-10.511-10.545-13.913 0-0.313-0.042-0.643-0.178-0.948-3.309-7.769-12.119-24.373-22.147-25.583 3.876-28.79 5.086-59.747-2.302-86.947 7.21-4.985 14.725-9.614 22.731-13.185 13.32-5.924 22.215-1.549 33.107 6.66 5.848 4.409 11.264-4.638 7.261-9.428-8.877-10.646-19.718-18.737-34.41-15.394-2.437 0.559-4.841 1.371-7.219 2.268-5.171-6.44-13.811-16.384-20.683-20.040-7.955-4.248-23.154-1.244-30.026 0.457-6.313-5.535-13.642-10.435-22.198-14.522-26.057-12.474-58.207-17.188-86.972-17.332-23.848-0.127-59.028 3.453-75.327 22.883-2.717 3.25-1.371 10.257 3.969 9.571 11.289-1.447 20.226-6.711 31.143-10.003 12.017-3.622 24.348-5.272 36.881-5.509 23.882-0.457 49.431 2.403 72.095 10.122 53.636 18.267 61.724 65.92 61.372 114.289l-0.067 5.093c-0.142 7.64-0.462 15.272-0.813 22.784-0.034 0.762 0.093 1.439 0.33 2.056-1.659 1.109-3.25 2.268-4.739 3.224-7.041 4.519-14.082 9.047-21.115 13.566-1.346 0.872-2.099 2.031-2.429 3.258-2.463 0.787-4.917 1.608-7.371 2.429-10.071 3.436-6.026 18.204 4.401 15.944 12.034-2.607 24.474-5.34 36.856-3.783 10.799 1.346 16.122 7.913 25.245 12.102zM448.797 135.735c4.341 1.498 7.87-4.697 4.494-7.727-4.062-3.656-8.31-7.227-10.375-12.449-1.058-2.674-3.521-4.545-6.542-3.707-2.556 0.702-4.756 3.859-3.707 6.525 3.021 7.65 8.15 14.607 16.13 17.357zM427.59 142.908c3.148 1.168 6-3.622 3.351-5.755-6.389-5.154-12.525-10.257-16.875-17.323-3.055-4.968-11.002-0.305-7.811 4.561 5.272 8.057 12.212 15.132 21.335 18.517zM380.935 135.029c14.471 14.057 35.036 25.778 55.829 23.4 2.801-0.322 3.808-4.418 0.702-5.213-19.194-4.925-36.382-9.521-51.378-23.332-3.444-3.165-8.522 1.87-5.154 5.145zM720.863 179.032c6.009 2.133 8.48-7.303 2.615-9.487-29.62-10.985-57.945-24.61-87.040-36.813-4.849-2.031-7.769 5.797-3.487 8.277 27.58 15.961 57.945 27.386 87.912 38.023zM423.254 333.914c-2.319 6.356 5.763 11.019 10.663 8.429 0.829-0.152 1.676-0.398 2.53-0.855 18.618-9.805 39.081-10.092 59.829-9.481l8.311 0.272c22.183 0.743 44.454 1.199 64.921-9.096 33.97-17.078 55.034-52.334 56.049-89.934 0.228-8.615-8.302-11.594-14.48-9.081-2.962-4.164-6.389-7.989-10.198-11.467 8.81 2.378 17.62 4.638 26.379 6.821 39.792 9.901 80.439 17.4 121.281 21.335 7.27 0.702 7.007-10.342 0-11.213-58.842-7.295-118.132-21.098-175.129-39.733 1.828-2.674 3.554-5.357 5.154-8.074 3.893-6.584-5.010-13.067-10.342-7.989-3.732 3.546-7.396 7.075-11.044 10.595-13.989-4.832-27.826-9.952-41.459-15.335-5.619-2.226-9.004 6.703-4.011 9.529 10.612 6.009 21.724 11.12 33.081 15.715-1.168 1.261-1.989 2.75-2.446 4.375-27.259 26.108-54.475 50.531-89.494 68.769-5.789 3.013-1.659 13.033 4.468 10.612v0l1.777-0.745c-15.817 15.944-28.046 35.112-35.84 56.548zM560.893 303.888c7.43-12.737 10.587-27.623 8.082-42.906-2.725-16.689-12.186-28.029-24.17-38.362 3.385-3.165 6.686-6.389 9.825-9.698 18.093 2.759 38.37 13.904 47.916 29.298 0.406 0.652 0.855 1.193 1.32 1.684-4.045 26.26-20.277 48.103-42.974 59.984zM371.459 231.047c14.878 9.978 37.524 21.978 56.015 18.246 4.223-0.846 3.216-6.296 0-7.583-8.065-3.241-17.256-3.529-25.625-6.102-9.241-2.827-17.814-6.973-26.023-12.043-4.781-2.945-8.954 4.409-4.367 7.481zM418.013 230.689l6.296-0.195c4.688-0.144 4.688-7.134 0-7.278-2.099-0.068-4.198-0.127-6.296-0.195-4.942-0.152-4.934 7.828 0 7.667v0zM386.235 260.499c13.050 5.949 27.817 9.978 42.246 8.387 5.797-0.635 6.085-9.123 0-9.25-13.735-0.271-26.209-1.481-39.056-6.694-4.358-1.76-7.396 5.636-3.19 7.557zM526.035 287.030c0 9.724-6.474 18.525-17.129 17.137-8.361-1.092-15.284-7.879-15.284-17.594 0-9.724 6.872-16.926 15.284-17.594 11.577-0.931 17.129 8.336 17.129 18.051zM661.624 331.959c-5.205 5.222 2.742 13.126 8.065 8.065 8.827-8.378 16.875-17.433 24.043-27.284 6.677-9.182 15.47-20.48 17.34-31.862 0.804-4.917-5.357-10.172-9.377-5.459-6.889 8.116-10.621 18.889-16.502 27.86-6.821 10.418-14.801 19.871-23.569 28.68zM479.411 308.886l-0.938-0.065c-3.783-0.499-6.906-3.571-6.906-7.964s3.097-7.65 6.906-7.955c5.23-0.423 7.743 3.766 7.743 8.167 0 4.392-2.928 8.378-7.743 7.752zM634.74 370.628l0.803-0.088c23.645-4.341 54.17-17.823 65.333-40.715 2.082-4.265-2.801-7.752-6.339-4.883-9.555 7.743-17.002 16.943-27.682 23.467-10.502 6.423-21.843 10.477-33.885 12.83-6.11 1.193-3.478 10.401 2.573 9.301zM828.73 394.799c-0.017 4.756 7.185 5.78 8.319 1.126 3.351-13.82 5.484-27.436 10.409-40.875 2.099-5.738-7.007-8.15-9.106-2.513-4.959 13.32-9.538 27.936-9.622 42.263zM567.318 386.843c36.923 7.363 78.56 7.202 112.902-9.969 4.756-2.378 1.303-9.419-3.487-8.268-36.339 8.717-69.099 14.7-106.428 7.422-7.058-1.371-10.062 9.402-2.987 10.815zM809.132 405.273c1.083 3.004 4.765 4.324 7.227 1.913 3.859-3.8 4.536-8.277 5.628-13.397 1.159-5.459 2.31-10.925 3.478-16.384 1.599-7.523-9.775-10.739-11.569-3.19-1.295 5.433-2.59 10.849-3.884 16.282-1.21 5.061-2.733 9.69-0.88 14.776zM156.157 720.718c-5.357 4.612 1.591 13.050 7.396 9.58 60.881-36.399 111.261-88.893 152.398-146.28 40.511-56.506 80.481-125.774 91.009-195.499 1.117-7.405-9.648-13.786-13.304-5.611-1.109 2.471-2.166 4.959-3.241 7.447-8.717 5.932-17.552 10.308-29.061 10.595-6.973 0.161-6.965 11.027 0 10.815 7.312-0.22 15.005-1.76 22.046-4.68-2.065 5.086-4.096 10.181-6.136 15.267-6.034 2.674-12.026 5.45-18.449 7.236-11.619 3.216-23.324 3.876-35.281 2.818-6.406-0.575-7.828 10.291-1.523 11.205 14.607 2.107 32.209 2.192 47.688-2.361-0.677 1.676-1.371 3.343-2.056 5.018-7.659 4.435-15.191 9.131-23.315 12.762-17.84 7.972-36.61 12.737-55.914 15.419-7.033 0.982-5.306 13.16 1.676 12.364 20.285-2.302 45.623-7.066 67.279-16.723-1.456 3.19-2.92 6.372-4.443 9.538-14.878 30.703-32.091 60.221-51.632 88.199-40.672 58.25-91.475 106.809-145.137 152.889zM590 405.909l4.289-0.118c5.983-0.245 5.924-8.869 0-9.25-20.285-1.278-40.181-4.485-59.434-11.112-6.389-2.209-9.021 7.811-2.767 10.045 20.235 7.278 40.689 11.23 62.202 10.316zM606.47 527.696c8.708 0.042 18.66 0.381 26.023-4.79 4.401-3.080 4.451-10.849-1.599-12.22-4.946-1.127-9.763-0.618-14.618 0.132l-4.873 0.779c-1.632 0.252-3.275 0.479-4.933 0.63-8.767 0.796-17.51 0.643-26.277-0.144-7.303-0.643-8.852 11.442-1.726 12.753 9.258 1.709 18.593 2.81 28.003 2.86z" />
<glyph unicode="&#xe93e;" glyph-name="telegram" d="M949.988 886.241l-910.429-357.696c0 0-43.17-14.647-39.316-41.628 3.084-26.981 38.545-39.316 38.545-39.316l228.956-77.090 549.649 349.216c0 0 31.607 19.272 30.836 0 0 0 5.396-3.084-11.563-19.272-14.647-13.876-344.591-309.9-437.869-393.157l4.625-2.313 373.885-286.773c62.443-26.981 84.799 29.294 84.799 29.294l161.894 817.921c0.765 53.192-74.012 20.814-74.012 20.814z" />
<glyph unicode="&#xe93f;" glyph-name="tik-tok" d="M902.095 960h-780.19c-67.218 0-121.905-54.686-121.905-121.905v-780.19c0-67.218 54.686-121.905 121.905-121.905h780.19c67.218 0 121.905 54.686 121.905 121.905v780.19c0 67.218-54.686 121.905-121.905 121.905zM804.718 513.268c-5.591-0.543-11.205-0.828-16.823-0.853-61.619-0.009-119.090 31.051-152.844 82.603v-281.283c0-114.818-93.078-207.896-207.896-207.896s-207.896 93.078-207.896 207.896c0 114.818 93.078 207.896 207.896 207.896 4.34 0 8.582-0.39 12.849-0.658v-102.449c-4.267 0.512-8.46 1.292-12.849 1.292-58.601 0-106.106-47.505-106.106-106.106s47.505-106.106 106.106-106.106c58.612 0 110.373 46.178 110.373 104.789l1.024 477.72h98.011c9.242-87.892 80.112-156.543 168.253-162.987v-113.859z" />
<glyph unicode="&#xe940;" glyph-name="trash" d="M263.552 170.336h64v369.472h-64zM479.872 170.336h64v369.472h-64zM696.192 170.336h64v369.472h-64zM868.032 42.483c0-23.424-19.072-42.496-42.496-42.496h-627.328c-23.424 0-42.496 19.072-42.496 42.496v608.224h712.32v-608.224zM96 895.987h831.744v-181.28h-831.744v181.28zM940 959.987h-856.256c-28.512 0-51.744-23.2-51.744-51.712v-205.824c0-28.544 23.232-51.744 51.744-51.744h7.968v-608.224c0-58.72 47.776-106.496 106.496-106.496h627.328c58.72 0 106.496 47.776 106.496 106.496v608.224h7.968c28.544 0 51.744 23.2 51.744 51.744v205.824c0 28.512-23.2 51.712-51.744 51.712v0z" />
<glyph unicode="&#xe941;" glyph-name="triangle-down" d="M0 704l512-576 512 576z" />
<glyph unicode="&#xe942;" glyph-name="triangle-left" d="M832 960l-576-512 576-512z" />
<glyph unicode="&#xe943;" glyph-name="triangle-right" d="M256 960v-1024l576 512z" />
<glyph unicode="&#xe944;" glyph-name="triangle-up" d="M0 128h1024l-512 576z" />
<glyph unicode="&#xe945;" glyph-name="tumblr" d="M1024 960v-1024h-1024v1024h1024zM556.703 784.957h-93.665c-1.542 0-4.234-1.348-4.615-4.77-5.48-49.81-28.805-137.235-125.843-172.192v-82.527h64.732v-208.745c0-71.478 52.779-173.024 192.109-170.631 47.011 0.804 99.221 20.46 110.749 37.43l-30.76 91.102c-11.893-5.666-34.633-10.596-51.597-11.020-51.205-1.369-61.143 35.929-61.555 62.967v198.894h128.438v96.74h-127.994v162.752z" />
<glyph unicode="&#xe946;" glyph-name="twitter" d="M0 111.432c16.436-1.979 33.159-2.991 50.116-2.991 98.426 0 189.012 34.259 260.912 91.731-91.931 1.731-169.517 63.685-196.249 148.822 12.825-2.502 25.987-3.843 39.523-3.843 19.162 0 37.722 2.617 55.352 7.515-96.111 19.683-168.524 106.295-168.524 210.123 0 0.902 0 1.799 0.015 2.693 28.328-16.050 60.719-25.689 95.16-26.801-56.371 38.427-93.463 104.018-93.463 178.362 0 39.271 10.36 76.082 28.444 107.732 103.617-129.647 258.418-214.959 433.021-223.896-3.581 15.683-5.442 32.039-5.442 48.834 0 118.342 94.066 214.287 210.092 214.287 60.423 0 115.023-26.026 153.347-67.673 47.853 9.613 92.815 27.447 133.406 52.002-15.686-50.038-48.996-92.033-92.373-118.555 42.497 5.181 82.987 16.7 120.663 33.743-28.167-42.974-63.787-80.717-104.831-110.93 0.405-9.188 0.607-18.43 0.607-27.722 0-283.175-211.31-609.706-597.732-609.706-118.641 0-229.071 35.474-322.044 96.274z" />
<glyph unicode="&#xe947;" glyph-name="up-light" d="M511.136 736l-511.136-575.040 23.904-21.28 487.232 548.16 487.264-548.16 23.904 21.28z" />
<glyph unicode="&#xe948;" glyph-name="up" d="M503.904 768l-503.904-566.912 47.808-42.528 456.096 513.088 456.064-513.088 47.808 42.528z" />
<glyph unicode="&#xe949;" glyph-name="upload" d="M957.658 501.235v-431.744c0-35.296-28.704-64-64-64h-765.664c-35.264 0-64 28.704-64 64v431.744h-64v-431.744c0-70.592 57.408-128 128-128h765.664c70.592 0 128 57.408 128 128v431.744h-64zM510.854 959.997l-229.792-257.92 47.808-42.592 149.984 168.384v-489.312h64v489.28l149.92-168.352 47.808 42.592z" />
<glyph unicode="&#xe94a;" glyph-name="user" d="M857.187 0h-697.184v168.896c0 119.584 61.76 229.632 161.824 293.44 49.984-43.776 115.232-70.56 186.752-70.56 71.552 0 136.8 26.784 186.816 70.56 100.032-63.808 161.792-173.856 161.792-293.44v-168.896zM508.579 896c121.376 0 220.128-98.752 220.128-220.128s-98.752-220.096-220.128-220.096c-121.376 0-220.064 98.72-220.064 220.096s98.688 220.128 220.064 220.128v0zM739.331 510.72c33.44 46.624 53.376 103.552 53.376 165.152 0 156.672-127.456 284.128-284.128 284.128-156.64 0-284.064-127.456-284.064-284.128 0-61.6 19.936-118.528 53.344-165.152-112.96-76.32-181.856-203.968-181.856-341.824v-232.896h825.184v232.896c0 137.824-68.896 265.536-181.856 341.824v0z" />
<glyph unicode="&#xe94b;" glyph-name="vimeo" d="M1023.499 691.573c-4.589-99.443-74.2-235.603-208.829-408.481-139.221-180.527-257.023-270.791-353.406-270.791-59.667 0-110.152 55.076-151.46 165.228l-82.614 302.918c-30.598 110.152-63.491 165.228-98.678 165.228-7.649 0-34.423-16.064-80.32-48.192l-48.191 61.961c50.060 43.986 99.782 88.355 149.164 133.1 67.315 58.136 117.802 88.733 151.459 91.794 79.554 7.649 128.51-46.662 146.869-162.933 19.889-125.451 33.658-203.476 41.306-234.074 22.949-104.033 48.192-156.049 75.73-156.049 21.418 0 53.547 33.658 96.383 100.973s65.785 118.567 68.845 153.754c6.12 58.136-16.828 87.204-68.845 87.204-24.479 0-49.722-5.355-75.73-16.064 50.487 163.698 146.87 243.253 289.15 238.663 105.562-3.060 155.285-71.141 149.164-204.241l0.002 0.002z" />
<glyph unicode="&#xe94c;" glyph-name="warning" d="M87.446 65.766l424.576 735.36 424.544-735.36h-849.12zM1019.734 49.766l-480 831.36c-11.456 19.84-44 19.84-55.456 0l-480-831.36c-5.696-9.92-5.696-22.080 0-32 5.728-9.92 16.288-16 27.744-16h960c11.424 0 21.984 6.080 27.712 16 5.696 9.92 5.696 22.080 0 32v0zM478.688 308.614h64v227.328h-64zM468.509 214.454c0-24.032 19.456-43.488 43.488-43.488s43.52 19.456 43.52 43.488c0 24-19.488 43.488-43.52 43.488s-43.488-19.488-43.488-43.488z" />
<glyph unicode="&#xe94d;" glyph-name="whatsapp" d="M870.892 811.19c-95.83 95.91-223.275 148.756-359.055 148.81-279.77 0-507.469-227.611-507.581-507.383-0.037-89.43 23.336-176.727 67.752-253.674l-72.008-262.943 269.076 70.559c74.135-40.422 157.606-61.726 242.558-61.761h0.209c279.741 0 507.461 227.64 507.574 507.414 0.054 135.582-52.693 263.069-148.525 358.979zM511.842 30.499h-0.173c-75.7 0.029-149.95 20.359-214.722 58.785l-15.406 9.141-159.671-41.872 42.62 155.63-10.032 15.955c-42.23 67.149-64.536 144.761-64.502 224.448 0.093 232.535 189.348 421.716 422.055 421.716 112.682-0.043 218.608-43.969 298.259-123.686s123.493-185.68 123.45-298.37c-0.097-232.552-189.35-421.746-421.876-421.746zM743.251 346.361c-12.683 6.346-75.037 37.019-86.663 41.25s-20.078 6.346-28.535-6.347c-8.454-12.692-32.759-41.25-40.16-49.711-7.396-8.462-14.794-9.521-27.478-3.174-12.682 6.346-53.547 19.733-101.99 62.928-37.701 33.616-63.156 75.139-70.554 87.831s-0.786 19.556 5.562 25.876c5.705 5.681 12.682 14.808 19.024 22.213 6.34 7.403 8.454 12.692 12.681 21.152 4.228 8.462 2.115 15.867-1.056 22.213s-28.534 68.751-39.104 94.136c-10.294 24.723-20.75 21.378-28.535 21.765-7.389 0.368-15.853 0.446-24.307 0.446s-22.195-3.174-33.821-15.865c-11.625-12.693-44.387-43.367-44.387-105.771s45.444-122.692 51.786-131.154c6.34-8.462 89.43-136.526 216.654-191.444 30.259-13.062 53.883-20.862 72.301-26.709 30.383-9.647 58.031-8.285 79.884-5.022 24.366 3.639 75.035 30.672 85.605 60.288 10.569 29.616 10.569 55.001 7.398 60.289-3.169 5.288-11.625 8.462-24.307 14.809z" />
<glyph unicode="&#xe94e;" glyph-name="world" d="M714.032 48.672c23.072 67.616 40.096 136.832 51.072 207.328h151.040c-42.656-89.44-113.888-162.496-202.112-207.328zM389.68 17.408c-30.496 77.28-52.416 157.024-65.824 238.592h376.32c-13.408-81.568-35.328-161.312-65.856-238.592-38.944-11.072-79.872-17.408-122.304-17.408-42.464 0-83.392 6.304-122.336 17.408zM107.856 256h151.072c10.976-70.496 27.968-139.712 51.072-207.328-88.256 44.8-159.488 117.888-202.144 207.328zM310 847.328c-23.072-67.616-40.096-136.832-51.072-207.328h-151.072c42.688 89.44 113.92 162.528 202.144 207.328zM634.352 878.592c30.528-77.248 52.416-157.024 65.824-238.592h-376.32c13.408 81.568 35.328 161.344 65.824 238.592 38.944 11.104 79.872 17.408 122.336 17.408 42.432 0 83.36-6.336 122.336-17.408zM307.952 448c0 43.040 2.56 85.728 7.104 128h393.92c4.544-42.272 7.104-84.96 7.104-128s-2.56-85.728-7.104-128h-393.92c-4.544 42.272-7.104 84.96-7.104 128zM64.016 448c0 44.512 6.72 87.392 18.848 128h167.776c-4.352-42.304-6.688-84.992-6.688-128s2.336-85.696 6.688-128h-167.776c-12.128 40.608-18.848 83.488-18.848 128zM960.016 448c0-44.512-6.752-87.392-18.88-128h-167.744c4.352 42.304 6.688 84.992 6.688 128s-2.336 85.696-6.688 128h167.744c12.128-40.608 18.88-83.488 18.88-128zM916.144 640h-151.040c-10.976 70.496-28 139.712-51.072 207.328 88.224-44.832 159.456-117.888 202.112-207.328zM512.016 960c-282.336 0-512-229.696-512-512s229.664-512 512-512c282.304 0 512 229.696 512 512s-229.696 512-512 512z" />
<glyph unicode="&#xe94f;" glyph-name="youtube" d="M534.686 92.59l-210.085 3.842c-68.021 1.339-136.211-1.334-202.898 12.537-101.447 20.724-108.633 122.34-116.154 207.577-10.362 119.832-6.351 241.838 13.204 360.67 11.039 66.677 54.483 106.464 121.668 110.793 226.798 15.713 455.104 13.85 681.399 6.52 23.9-0.672 47.963-4.345 71.53-8.526 116.328-20.391 119.165-135.544 126.706-232.482 7.52-97.938 4.345-196.378-10.029-293.649-11.532-80.538-33.595-148.076-126.706-154.596-116.662-8.526-230.645-15.389-347.635-13.204 0.005 0.518-0.667 0.518-1 0.518zM411.176 296.489c87.914 50.477 174.151 100.113 261.562 150.251-88.078 50.477-174.151 100.113-261.562 150.251v-300.503z" />
</font>
</defs>
</svg>
