<?xml version="1.0" encoding="UTF-8"?>
<svg width="32px" height="32px" viewBox="0 0 32 32" version="1.1" xmlns="http://www.w3.org/2000/svg" xmlns:xlink="http://www.w3.org/1999/xlink">
    <title>icons/behance</title>
    <defs>
        <polygon id="path-1" points="17.6253354 4.87075934 31.5931674 4.87075934 31.5931674 20.0265817 17.6253354 20.0265817"></polygon>
        <polygon id="path-3" points="0 20.0353308 31.347685 20.0353308 31.347685 -0.0365813502 0 -0.0365813502"></polygon>
    </defs>
    <g id="icons/behance" stroke="none" stroke-width="1" fill="none" fill-rule="evenodd">
        <rect id="Rectangle" fill-rule="nonzero" x="0" y="0" width="32" height="32"></rect>
        <g id="behance" transform="translate(0.000000, 5.000000)">
            <path d="M8.69692984,15.9646492 C9.11196772,15.9646492 9.50596345,15.9273861 9.87674029,15.8440923 C10.2533218,15.7615292 10.586368,15.6300126 10.8678971,15.4356603 C11.1494263,15.2493452 11.3823409,14.9936186 11.5521292,14.6684804 C11.7219174,14.3455342 11.8031835,13.9268731 11.8031835,13.421265 C11.8031835,12.4290456 11.5260079,11.725432 10.9752846,11.2972726 C10.4231101,10.8756889 9.68663554,10.6659931 8.78109837,10.6659931 L4.20770034,10.6659931 L4.20770034,15.9646492 L8.69692984,15.9646492 Z M8.46474083,7.77409002 C9.20992245,7.77409002 9.82740013,7.59581202 10.3157226,7.23487213 C10.7996916,6.87904676 11.034783,6.29087548 11.034783,5.48497123 C11.034783,5.03708427 10.9564192,4.66737661 10.7996916,4.38023211 C10.6378849,4.09235698 10.4231101,3.86804818 10.1517392,3.71095896 C9.88254501,3.54656325 9.57852252,3.43404353 9.22588545,3.37266913 C8.87905311,3.30471891 8.51553218,3.27768495 8.14330417,3.27768495 L4.20770034,3.27768495 L4.20770034,7.77409002 L8.46474083,7.77409002 Z M9.00893383,0 C9.9224525,0 10.7474491,0.0796405839 11.5013378,0.244036285 C12.250873,0.404778747 12.890844,0.671465107 13.431409,1.03825018 C13.9639926,1.40430461 14.3804816,1.89164653 14.6786994,2.50612113 C14.9703868,3.11036667 15.1162306,3.86804818 15.1162306,4.76309144 C15.1162306,5.7319301 14.8978278,6.5414876 14.4610222,7.18811069 C14.0213142,7.83400313 13.3748129,8.36372261 12.51136,8.77507718 C13.6875425,9.11482831 14.5582513,9.71468995 15.1358215,10.566625 C15.716294,11.4251359 16,12.4516957 16,13.6550722 C16,14.6312174 15.8149744,15.4714621 15.4441976,16.1779983 C15.0697928,16.8933023 14.5604281,17.4727057 13.9327922,17.919862 C13.3000771,18.3714022 12.5730352,18.7023856 11.7589225,18.9179266 C10.9535169,19.1334677 10.1176364,19.2416035 9.26143939,19.2416035 L0,19.2416035 L0,0 L9.00893383,0 Z" id="Fill-1" fill="#000000" fill-rule="nonzero"></path>
            <mask id="mask-2" fill="white">
                <use xlink:href="#path-1"></use>
            </mask>
            <g id="path-1"></g>
            <path d="M26.8433695,8.6527594 C26.3873433,8.13326218 25.6138584,7.85202493 24.6710133,7.85202493 C24.0573574,7.85202493 23.55001,7.95833714 23.1431056,8.17473147 C22.7457323,8.38810986 22.4202088,8.65426737 22.170934,8.96717207 C21.9231256,9.2853547 21.7544985,9.62087901 21.6562549,9.97977696 C21.5572782,10.329627 21.4986253,10.6470557 21.4810295,10.9275389 L27.7282949,10.9275389 C27.6366498,9.92096595 27.3015952,9.17602654 26.8433695,8.6527594 M22.4312062,16.2069577 C23.0067376,16.7845119 23.8374091,17.074797 24.9144227,17.074797 C25.689374,17.074797 26.35875,16.8734824 26.9196183,16.4723612 C27.4760875,16.0712399 27.8148079,15.6429752 27.9460438,15.1973687 L31.3273826,15.1973687 C30.7841102,16.9285235 29.959304,18.1635546 28.834635,18.90774 C27.7224296,19.6541874 26.3668148,20.0266571 24.7861196,20.0266571 C23.6849116,20.0266571 22.694411,19.8434382 21.8043535,19.4822783 C20.9150291,19.1165945 20.1716038,18.6038831 19.5469506,17.9366044 C18.9376937,17.2648018 18.4640717,16.4723612 18.1268176,15.5404329 C17.7932293,14.6137826 17.6253354,13.5876059 17.6253354,12.4754748 C17.6253354,11.4010429 17.7998277,10.3967319 18.1414808,9.4685736 C18.4897323,8.53664536 18.9721523,7.73289495 19.6056034,7.05883034 C20.2405209,6.38099581 20.9934773,5.84641884 21.8710711,5.45585345 C22.7479318,5.06679603 23.7149712,4.87075934 24.7861196,4.87075934 C25.9694415,4.87075934 27.0053981,5.10449539 27.8932562,5.58176932 C28.7781816,6.05150337 29.5032779,6.6893766 30.072944,7.48709511 C30.6433433,8.28330564 31.0480482,9.19412224 31.301722,10.215775 C31.5531962,11.2351657 31.6411755,12.3005497 31.5685926,13.4164508 L21.4810295,13.4164508 C21.4810295,14.5527096 21.8542084,15.6286494 22.4312062,16.2069577" id="Fill-3" fill="#000000" fill-rule="nonzero" mask="url(#mask-2)"></path>
            <mask id="mask-4" fill="white">
                <use xlink:href="#path-3"></use>
            </mask>
            <g id="path-3"></g>
            <polygon id="Fill-6" fill="#000000" fill-rule="nonzero" mask="url(#mask-4)" points="20.4637839 3.22980832 28.279838 3.22980832 28.279838 1.28538625 20.4637839 1.28538625"></polygon>
        </g>
    </g>
</svg>