<?xml version="1.0" encoding="UTF-8"?>
<svg width="32px" height="32px" viewBox="0 0 32 32" version="1.1" xmlns="http://www.w3.org/2000/svg" xmlns:xlink="http://www.w3.org/1999/xlink">
    <title>icons/bell</title>
    <g id="icons/bell" stroke="none" stroke-width="1" fill="none" fill-rule="evenodd">
        <rect id="Rectangle" fill-rule="nonzero" x="0" y="0" width="32" height="32"></rect>
        <path d="M5.66610109,25.09 L8.63410109,19.518 C8.71110109,19.373 8.75110109,19.212 8.75110109,19.048 L8.75110109,9.361 C8.75110109,5.302 12.0541011,2 16.1121011,2 C20.1711011,2 23.4741011,5.302 23.4741011,9.361 L23.4741011,19.048 C23.4741011,19.212 23.5141011,19.373 23.5911011,19.518 L26.5591011,25.09 L5.66610109,25.09 Z M16.1121011,30 C14.5031011,30 13.1941011,28.696 13.1841011,27.09 L19.0401011,27.09 C19.0291011,28.696 17.7211011,30 16.1121011,30 L16.1121011,30 Z M29.1061011,25.62 L25.4741011,18.798 L25.4741011,9.361 C25.4741011,4.199 21.2741011,0 16.1121011,0 C10.9501011,0 6.75110109,4.199 6.75110109,9.361 L6.75110109,18.798 L3.11710109,25.62 C2.95210109,25.93 2.96210109,26.304 3.14310109,26.605 C3.32310109,26.906 3.64810109,27.09 4.00010109,27.09 L11.1841011,27.09 C11.1951011,29.799 13.4001011,32 16.1121011,32 C18.8231011,32 21.0291011,29.799 21.0401011,27.09 L28.2241011,27.09 C28.5751011,27.09 28.9001011,26.906 29.0811011,26.605 C29.2621011,26.304 29.2711011,25.93 29.1061011,25.62 L29.1061011,25.62 Z" id="Fill-1" fill="#000000"></path>
    </g>
</svg>