<?xml version="1.0" encoding="UTF-8"?>
<svg width="20px" height="24px" viewBox="0 0 20 24" version="1.1" xmlns="http://www.w3.org/2000/svg" xmlns:xlink="http://www.w3.org/1999/xlink">
    <title>icons/buy-me-a-cofee-redesign</title>
    <g id="lg-1440px" stroke="none" stroke-width="1" fill="none" fill-rule="evenodd">
        <g id="Elements" transform="translate(-950.000000, -775.000000)" fill-rule="nonzero">
            <g id="icons/buy-me-a-cofee-copy" transform="translate(948.000000, 775.000000)">
                <rect id="Rectangle" x="0" y="0" width="24" height="24"></rect>
                <path d="M16.398,-8.27586211e-05 C17.6832414,-8.27586211e-05 18.9486207,0.972331034 19.2796552,2.21371034 L19.2796552,2.21371034 L19.5792414,3.33757241 L19.7356552,3.33757241 C20.6741379,3.33757241 21.438,4.1006069 21.438,5.03908966 L21.438,5.03908966 L21.438,6.66033103 C21.438,7.59881379 20.6741379,8.36267586 19.7356552,8.36267586 L19.7356552,8.36267586 L19.575931,8.36267586 L18.3047586,20.7168828 C18.1226897,22.4879172 16.5254483,23.9287448 14.7444828,23.9287448 L14.7444828,23.9287448 L8.94310345,23.9287448 C7.16213793,23.9287448 5.56489655,22.4879172 5.38282759,20.7168828 L5.38282759,20.7168828 L4.11082759,8.36267586 L3.95110345,8.36267586 C3.01262069,8.36267586 2.24958621,7.59881379 2.24958621,6.66033103 L2.24958621,6.66033103 L2.24958621,5.03908966 C2.24958621,4.1006069 3.01262069,3.33757241 3.95110345,3.33757241 L3.95110345,3.33757241 L4.10834483,3.33757241 L4.40793103,2.21288276 C4.73896552,0.971503448 6.00517241,-8.27586211e-05 7.28875862,-8.27586211e-05 L7.28875862,-8.27586211e-05 Z M17.9116552,8.36267586 L5.77510345,8.36267586 L7.02972414,20.5472276 C7.12572414,21.4832276 8.00213793,22.2735724 8.94310345,22.2735724 L8.94310345,22.2735724 L14.7444828,22.2735724 C15.6862759,22.2735724 16.5618621,21.4832276 16.6578621,20.5472276 L16.6578621,20.5472276 L17.9116552,8.36267586 Z M14.7096414,9.81831724 C16.2042621,9.81831724 16.8133655,11.0133517 16.8133655,11.0133517 L16.8133655,11.0133517 L15.8988828,19.0955586 C15.7598483,20.4536276 14.5284,21.5650759 13.1620552,21.5650759 L13.1620552,21.5650759 L10.5261931,21.5650759 C9.15984828,21.5650759 7.9284,20.4536276 7.78853793,19.0955586 L7.78853793,19.0955586 L6.87488276,11.0133517 C6.87488276,11.0133517 6.88012966,11.0200138 6.89102234,11.0320055 L6.94103669,11.0826372 C7.12170207,11.2531862 7.68922759,11.6795586 8.84784828,11.6795586 C11.6757103,11.6795586 12.3766759,9.81831724 14.7096414,9.81831724 Z M3.95110345,4.99274483 L3.90475862,6.66033103 L19.7356552,6.70750345 C19.7621379,6.70750345 19.7828276,6.68598621 19.7828276,6.66033103 L19.7828276,6.66033103 L19.7828276,5.03908966 L3.95110345,4.99274483 Z M16.398,1.65508966 L7.28875862,1.65508966 C6.7557931,1.65508966 6.14503448,2.12515862 6.00682759,2.64074483 L6.00682759,2.64074483 L5.82062069,3.33757241 L17.8669655,3.33757241 L17.6807586,2.63991724 C17.5433793,2.12433103 16.9317931,1.65508966 16.398,1.65508966 L16.398,1.65508966 Z" id="Combined-Shape" fill="#000000"></path>
            </g>
        </g>
    </g>
</svg>