<?xml version="1.0" encoding="UTF-8"?>
<svg width="32px" height="32px" viewBox="0 0 32 32" version="1.1" xmlns="http://www.w3.org/2000/svg" xmlns:xlink="http://www.w3.org/1999/xlink">
    <title>icons/calendar</title>
    <g id="icons/calendar" stroke="none" stroke-width="1" fill="none" fill-rule="evenodd">
        <rect id="Rectangle" fill-rule="nonzero" x="0" y="0" width="32" height="32"></rect>
        <path d="M2,29.8437 L30.053,29.8437 L30.053,5.2187 L2,5.2187 L2,29.8437 Z M30.053,31.8437 L2,31.8437 C0.897,31.8437 0,30.9467 0,29.8437 L0,5.2187 C0,4.1157 0.897,3.2187 2,3.2187 L30.053,3.2187 C31.156,3.2187 32.053,4.1157 32.053,5.2187 L32.053,29.8437 C32.053,30.9467 31.156,31.8437 30.053,31.8437 L30.053,31.8437 Z" id="Fill-1" fill="#000000" fill-rule="nonzero"></path>
        <path d="M31.0527,15.4272 L0.9997,15.4272 C0.4477,15.4272 -0.0003,14.9792 -0.0003,14.4272 C-0.0003,13.8752 0.4477,13.4272 0.9997,13.4272 L31.0527,13.4272 C31.6047,13.4272 32.0527,13.8752 32.0527,14.4272 C32.0527,14.9792 31.6047,15.4272 31.0527,15.4272" id="Fill-3" fill="#000000" fill-rule="nonzero"></path>
        <path d="M25.1963,9.3749 C24.6443,9.3749 24.1963,8.9269 24.1963,8.3749 L24.1963,0.9999 C24.1963,0.4479 24.6443,-0.0001 25.1963,-0.0001 C25.7483,-0.0001 26.1963,0.4479 26.1963,0.9999 L26.1963,8.3749 C26.1963,8.9269 25.7483,9.3749 25.1963,9.3749" id="Fill-4" fill="#000000" fill-rule="nonzero"></path>
        <path d="M6.7378,9.3749 C6.1858,9.3749 5.7378,8.9269 5.7378,8.3749 L5.7378,0.9999 C5.7378,0.4479 6.1858,-0.0001 6.7378,-0.0001 C7.2898,-0.0001 7.7378,0.4479 7.7378,0.9999 L7.7378,8.3749 C7.7378,8.9269 7.2898,9.3749 6.7378,9.3749" id="Fill-5" fill="#000000" fill-rule="nonzero"></path>
    </g>
</svg>