<?xml version="1.0" encoding="UTF-8"?>
<svg width="32px" height="32px" viewBox="0 0 32 32" version="1.1" xmlns="http://www.w3.org/2000/svg" xmlns:xlink="http://www.w3.org/1999/xlink">
    <title>icons/chat</title>
    <g id="icons/chat" stroke="none" stroke-width="1" fill="none" fill-rule="evenodd">
        <rect id="Rectangle" fill-rule="nonzero" x="0" y="0" width="32" height="32"></rect>
        <path d="M4.9863,2 C3.3403,2 2.0003,3.34 2.0003,4.986 L2.0003,20.165 C2.0003,21.812 3.3403,23.151 4.9863,23.151 L16.9033,23.151 L16.9033,27.827 L22.3823,23.151 L27.0663,23.151 C28.7133,23.151 30.0523,21.812 30.0523,20.165 L30.0523,4.986 C30.0523,3.34 28.7133,2 27.0663,2 L4.9863,2 Z M14.9033,32.163 L14.9033,25.151 L4.9863,25.151 C2.2373,25.151 0.0003,22.914 0.0003,20.165 L0.0003,4.986 C0.0003,2.237 2.2373,0 4.9863,0 L27.0663,0 C29.8153,0 32.0523,2.237 32.0523,4.986 L32.0523,20.165 C32.0523,22.914 29.8153,25.151 27.0663,25.151 L23.1213,25.151 L14.9033,32.163 Z" id="Fill-1" fill="#000000" fill-rule="nonzero"></path>
    </g>
</svg>