<?xml version="1.0" encoding="UTF-8"?>
<svg width="32px" height="32px" viewBox="0 0 32 32" version="1.1" xmlns="http://www.w3.org/2000/svg" xmlns:xlink="http://www.w3.org/1999/xlink">
    <title>icons/delivery</title>
    <g id="icons/delivery" stroke="none" stroke-width="1" fill="none" fill-rule="evenodd">
        <rect id="Rectangle" fill-rule="nonzero" x="0" y="0" width="32" height="32"></rect>
        <path d="M29.0469,23.1528 C28.6039,21.5178 27.1219,20.3048 25.3479,20.3048 C23.5729,20.3048 22.0919,21.5178 21.6489,23.1528 L20.6949,23.1528 L20.6949,12.4858 L27.2469,12.4858 L29.4539,16.2098 L24.4249,16.2098 C23.8719,16.2098 23.4249,16.6578 23.4249,17.2098 C23.4249,17.7618 23.8719,18.2098 24.4249,18.2098 L29.9999,18.2098 L29.9999,23.1528 L29.0469,23.1528 Z M25.3479,25.9998 C24.3919,25.9998 23.6119,25.2678 23.5189,24.3368 C23.5299,24.2748 23.5559,24.2178 23.5559,24.1528 C23.5559,24.0878 23.5299,24.0308 23.5189,23.9688 C23.6119,23.0368 24.3919,22.3048 25.3479,22.3048 C26.3659,22.3048 27.1949,23.1338 27.1949,24.1528 C27.1949,25.1718 26.3659,25.9998 25.3479,25.9998 L25.3479,25.9998 Z M6.2039,25.9998 C5.1859,25.9998 4.3569,25.1718 4.3569,24.1528 C4.3569,23.1338 5.1859,22.3048 6.2039,22.3048 C7.1579,22.3048 7.9379,23.0358 8.0329,23.9658 C8.0209,24.0288 7.9949,24.0868 7.9949,24.1528 C7.9949,24.2188 8.0209,24.2768 8.0329,24.3398 C7.9379,25.2698 7.1579,25.9998 6.2039,25.9998 L6.2039,25.9998 Z M1.9999,5.9998 L18.6949,5.9998 L18.6949,11.4858 L18.6949,23.1528 L9.9029,23.1528 C9.4599,21.5178 7.9779,20.3048 6.2039,20.3048 C4.4309,20.3048 2.9479,21.5178 2.5049,23.1528 L1.9999,23.1528 L1.9999,5.9998 Z M31.8599,16.3468 L28.6779,10.9758 C28.4979,10.6728 28.1709,10.4858 27.8179,10.4858 L20.6949,10.4858 L20.6949,4.9998 C20.6949,4.4478 20.2479,3.9998 19.6949,3.9998 L0.9999,3.9998 C0.4469,3.9998 -0.0001,4.4478 -0.0001,4.9998 L-0.0001,24.1528 C-0.0001,24.7048 0.4469,25.1528 0.9999,25.1528 L2.5049,25.1528 C2.9479,26.7878 4.4309,27.9998 6.2039,27.9998 C7.9779,27.9998 9.4599,26.7878 9.9029,25.1528 L19.6949,25.1528 L21.6489,25.1528 C22.0919,26.7878 23.5729,27.9998 25.3479,27.9998 C27.1219,27.9998 28.6039,26.7878 29.0469,25.1528 L30.9999,25.1528 C31.5529,25.1528 31.9999,24.7048 31.9999,24.1528 L31.9999,16.8568 C31.9999,16.6778 31.9519,16.5018 31.8599,16.3468 L31.8599,16.3468 Z" id="Fill-1" fill="#000000" fill-rule="nonzero"></path>
    </g>
</svg>