<?xml version="1.0" encoding="UTF-8"?>
<svg width="32px" height="32px" viewBox="0 0 32 32" version="1.1" xmlns="http://www.w3.org/2000/svg" xmlns:xlink="http://www.w3.org/1999/xlink">
    <title>icons/download</title>
    <g id="icons/download" stroke="none" stroke-width="1" fill="none" fill-rule="evenodd">
        <rect id="Rectangle" fill-rule="nonzero" x="0" y="0" width="32" height="32"></rect>
        <path d="M29.9268,14.2915 L29.9268,27.7835 C29.9268,28.8865 29.0298,29.7835 27.9268,29.7835 L3.9998,29.7835 C2.8978,29.7835 1.9998,28.8865 1.9998,27.7835 L1.9998,14.2915 L-0.0002,14.2915 L-0.0002,27.7835 C-0.0002,29.9895 1.7938,31.7835 3.9998,31.7835 L27.9268,31.7835 C30.1328,31.7835 31.9268,29.9895 31.9268,27.7835 L31.9268,14.2915 L29.9268,14.2915 Z" id="Fill-1" fill="#000000" fill-rule="nonzero"></path>
        <polygon id="Fill-4" fill="#000000" fill-rule="nonzero" points="23.1436 11.3599 21.6496 10.0299 16.9636 15.2909 16.9636 -0.0001 14.9636 -0.0001 14.9636 15.2919 10.2776 10.0299 8.7836 11.3599 15.9636 19.4209"></polygon>
    </g>
</svg>