<?xml version="1.0" encoding="UTF-8"?>
<svg width="32px" height="32px" viewBox="0 0 32 32" version="1.1" xmlns="http://www.w3.org/2000/svg" xmlns:xlink="http://www.w3.org/1999/xlink">
    <title>icons/edit</title>
    <g id="icons/edit" stroke="none" stroke-width="1" fill="none" fill-rule="evenodd">
        <rect id="Rectangle" fill-rule="nonzero" x="0" y="0" width="32" height="32"></rect>
        <path d="M20.8789,25.6709 L25.6269,20.9239 L28.8189,29.1249 L20.8789,25.6709 Z M7.8689,2.4139 L24.5889,19.1339 L19.1339,24.5879 L2.4139,7.8689 L7.8689,2.4139 Z M31.5539,30.6369 L26.9349,18.7709 C26.9339,18.7689 26.9319,18.7679 26.9319,18.7659 C26.8829,18.6429 26.8099,18.5259 26.7099,18.4269 L8.5759,0.2929 C8.1859,-0.0981 7.5529,-0.0981 7.1619,0.2929 L0.2929,7.1619 C0.1059,7.3499 -0.0001,7.6039 -0.0001,7.8689 C-0.0001,8.1339 0.1059,8.3889 0.2929,8.5759 L18.4269,26.7099 C18.5159,26.7979 18.6199,26.8699 18.7349,26.9199 L18.7569,26.9289 L18.7579,26.9289 L30.2239,31.9169 C30.3519,31.9729 30.4869,31.9999 30.6219,31.9999 C30.8749,31.9999 31.1249,31.9039 31.3159,31.7209 C31.6069,31.4409 31.6999,31.0139 31.5539,30.6369 L31.5539,30.6369 Z" id="edit" fill="#000000" fill-rule="nonzero"></path>
    </g>
</svg>