<?xml version="1.0" encoding="UTF-8"?>
<svg width="32px" height="32px" viewBox="0 0 32 32" version="1.1" xmlns="http://www.w3.org/2000/svg" xmlns:xlink="http://www.w3.org/1999/xlink">
    <title>icons/facebook</title>
    <g id="icons/facebook" stroke="none" stroke-width="1" fill="none" fill-rule="evenodd">
        <rect id="Rectangle" fill-rule="nonzero" x="0" y="0" width="32" height="32"></rect>
        <path d="M30.2219026,0 C31.1966442,0 31.987176,0.790172285 31.987176,1.76539326 L31.987176,1.76539326 L31.987176,30.2220225 C31.987176,31.1968839 31.196764,31.9874157 30.2219026,31.9874157 L30.2219026,31.9874157 L1.76539326,31.9874157 C0.790172285,31.9874157 0,31.1968839 0,30.2219026 L0,30.2219026 L0,1.76539326 C0,0.790292135 0.790172285,0 1.76539326,0 L1.76539326,0 Z M23.3214082,4.79400749 C19.6356554,4.79400749 17.1123296,7.04371536 17.1123296,11.1753109 L17.1123296,14.7354607 L12.9438202,14.7354607 L12.9438202,19.5630262 L17.1123296,19.5630262 L17.1123296,31.9502622 L22.0977378,31.9502622 L22.0977378,19.5630262 L26.2555805,19.5630262 L26.8780824,14.7354607 L22.097618,14.7354607 L22.097618,11.6532734 C22.097618,10.2555805 22.4856929,9.30313109 24.4900674,9.30313109 L27.0463521,9.30193258 L27.0463521,4.98420974 C26.6042247,4.92548315 25.0866816,4.79400749 23.3214082,4.79400749 Z" id="facebook" fill="#000000" fill-rule="nonzero"></path>
    </g>
</svg>