<?xml version="1.0" encoding="UTF-8"?>
<svg width="32px" height="32px" viewBox="0 0 32 32" version="1.1" xmlns="http://www.w3.org/2000/svg" xmlns:xlink="http://www.w3.org/1999/xlink">
    <title>icons/github</title>
    <g id="icons/github" stroke="none" stroke-width="1" fill="none" fill-rule="evenodd">
        <rect id="Rectangle" fill-rule="nonzero" x="0" y="0" width="32" height="32"></rect>
        <g id="github-1" fill="#000000" fill-rule="nonzero">
            <path d="M16,0 C7.15982979,0 0,7.15982979 0,16 C0,23.5193191 5.15948936,29.76 12.1205106,31.5193191 C12.0401702,31.3191489 12.0006809,31.0386383 12.0006809,30.7594894 L12.0006809,28.0388085 L10.0003404,28.0388085 C8.92051064,28.0388085 7.91965957,27.5594894 7.47982979,26.6784681 C6.95965957,25.7184681 6.87931915,24.2382979 5.55982979,23.3177872 C5.15948936,22.9977872 5.47948936,22.6777872 5.91931915,22.7172766 C6.75948936,22.9569362 7.43897872,23.5179574 8.07897872,24.356766 C8.71897872,25.1969362 8.99948936,25.3971064 10.1991489,25.3971064 C10.7588085,25.3971064 11.6384681,25.357617 12.4391489,25.2364255 C12.8789787,24.1157447 13.6388085,23.1162553 14.5593191,22.6369362 C9.19965957,21.9969362 6.63965957,19.3565957 6.63965957,15.7562553 C6.63965957,14.1957447 7.31914894,12.7155745 8.43982979,11.4355745 C8.08034043,10.1950638 7.59965957,7.63506383 8.60051064,6.63557447 C11.0011915,6.63557447 12.4405106,8.19608511 12.8,8.59506383 C13.9996596,8.1947234 15.3205106,7.95506383 16.6794894,7.95506383 C18.0793191,7.95506383 19.3593191,8.1947234 20.5589787,8.59506383 C20.9184681,8.1947234 22.3591489,6.63557447 24.7584681,6.63557447 C25.7184681,7.59557447 25.2786383,10.1950638 24.8782979,11.4355745 C25.9989787,12.6760851 26.6389787,14.1957447 26.6389787,15.7562553 C26.6389787,19.3565957 24.1184681,21.9969362 18.7996596,22.5565957 C20.2798298,23.3164255 21.3201702,25.4760851 21.3201702,27.0760851 L21.3201702,30.72 C21.3201702,30.8398298 21.2806809,30.9596596 21.2806809,31.0794894 C27.52,28.9198298 32,23.0005106 32,16 C32,7.15982979 24.8401702,0 16,0 L16,0 Z" id="Shape"></path>
        </g>
    </g>
</svg>