<?xml version="1.0" encoding="UTF-8"?>
<svg width="32px" height="32px" viewBox="0 0 32 32" version="1.1" xmlns="http://www.w3.org/2000/svg" xmlns:xlink="http://www.w3.org/1999/xlink">
    <title>icons/ko-fi</title>
    <g id="icons/ko-fi" stroke="none" stroke-width="1" fill="none" fill-rule="evenodd">
        <rect id="Rectangle" fill-rule="nonzero" x="0" y="0" width="32" height="32"></rect>
        <path d="M25.2238766,17.3876571 C23.9925623,17.5414857 22.9923337,17.4260571 22.9923337,17.4260571 L22.9923337,9.88685714 L24.5073051,9.88685714 C25.5086766,9.88685714 26.4746194,10.3037714 27.1278766,11.0624 C27.5877623,11.5965714 27.9557623,12.3485714 27.9557623,13.3869714 C27.9557623,15.9257143 26.647648,16.9259429 25.2238766,17.3876571 M17.0325623,16.7538286 C15.3797623,18.6822857 11.7109623,22.0306286 11.7109623,22.0306286 C11.7109623,22.0306286 11.5507337,22.1876571 11.2999909,22.0614857 C11.1991909,21.9869714 11.1562194,21.9421714 11.1562194,21.9421714 C10.5678766,21.3570286 6.68673372,17.8976 5.80376229,16.6955429 C4.86296229,15.4148571 4.42273372,13.1136 5.68376229,11.7730286 C6.94456229,10.432 9.67096229,10.3318857 11.4721051,12.3129143 C11.4721051,12.3129143 13.5493623,9.94857143 16.0739337,11.0349714 C18.5985051,12.1213714 18.5027337,15.0285714 17.0325623,16.7538286 M31.7095909,12.0948571 C31.2675337,9.76068571 30.0110766,8.30674286 28.7233051,7.40754286 C27.391648,6.47771429 25.796448,6 24.1722194,6 L1.12079086,6 C0.318962289,6 0.0115337179,6.78285714 0.00856228929,7.17485714 C0.00833371786,7.22605714 0.00993371786,7.43062857 0.00993371786,7.43062857 C0.00993371786,7.43062857 -0.0277805679,17.6290286 0.0437622893,23.0761143 C0.261362289,26.2916571 3.48330515,26.2905143 3.48330515,26.2905143 C3.48330515,26.2905143 14.0026194,26.2596571 19.047648,26.2285714 C19.2842194,26.2269714 19.5205623,26.2016 19.750048,26.1442286 C22.6225051,25.4253714 22.9194194,22.7570286 22.8887909,21.2694857 C28.6622766,21.5904 32.7358766,17.5161143 31.7095909,12.0948571" fill="#000000" fill-rule="nonzero"></path>
    </g>
</svg>