<?xml version="1.0" encoding="UTF-8"?>
<svg width="32px" height="32px" viewBox="0 0 32 32" version="1.1" xmlns="http://www.w3.org/2000/svg" xmlns:xlink="http://www.w3.org/1999/xlink">
    <title>icons/load</title>
    <g id="icons/load" stroke="none" stroke-width="1" fill="none" fill-rule="evenodd">
        <rect id="Rectangle" fill-rule="nonzero" x="0" y="0" width="32" height="32"></rect>
        <g id="load" fill="#000000" fill-rule="nonzero">
            <path d="M30,16 C30,17.229 29.841,18.449 29.526,19.625 C27.894,25.734 22.331,30 16,30 C11.407,30 7.125,27.708 4.531,24.015 L9.238,25.055 L9.67,23.102 L1.6,21.318 L0.774,29.542 L2.765,29.742 L3.184,25.565 C6.172,29.548 10.921,32 16,32 C23.235,32 29.592,27.124 31.458,20.142 C31.817,18.797 32,17.404 32,16 L30,16 Z" id="Fill-1"></path>
            <path d="M16,2 C20.705,2 24.983,4.299 27.57,8.11 L22.824,7.062 L22.393,9.015 L30.464,10.798 L31.289,2.574 L29.299,2.375 L28.883,6.517 C25.9,2.444 21.181,0 16,0 C7.178,0 0,7.178 0,16 L2,16 C2,8.28 8.28,2 16,2" id="Fill-3"></path>
        </g>
    </g>
</svg>