<?xml version="1.0" encoding="UTF-8"?>
<svg width="32px" height="32px" viewBox="0 0 32 32" version="1.1" xmlns="http://www.w3.org/2000/svg" xmlns:xlink="http://www.w3.org/1999/xlink">
    <title>icons/localization</title>
    <g id="icons/localization" stroke="none" stroke-width="1" fill="none" fill-rule="evenodd">
        <rect id="Rectangle" fill-rule="nonzero" x="0" y="0" width="32" height="32"></rect>
        <path d="M18.082,27.7324 C17.277,28.4904 16.517,29.2074 15.846,29.8794 C15.612,30.1114 15.448,30.0594 15.268,29.8814 C14.661,29.2744 13.984,28.6294 13.268,27.9464 C9.139,24.0124 4,19.1164 4,13.6594 C4,7.2304 9.23,2.0004 15.659,2.0004 C22.088,2.0004 27.318,7.2304 27.318,13.6594 C27.318,19.0284 22.199,23.8534 18.082,27.7324 M15.659,0.0004 C8.128,0.0004 2,6.1284 2,13.6594 C2,19.9734 7.482,25.1974 11.888,29.3944 C12.592,30.0654 13.257,30.6994 13.854,31.2964 C14.31,31.7504 14.914,32.0004 15.556,32.0004 C16.197,32.0004 16.801,31.7504 17.259,31.2954 C17.919,30.6344 18.664,29.9314 19.457,29.1854 C23.851,25.0444 29.318,19.8914 29.318,13.6594 C29.318,6.1284 23.19,0.0004 15.659,0.0004" id="Fill-1" fill="#000000" fill-rule="nonzero"></path>
        <path d="M15.6602,16.7119 C14.0282,16.7119 12.7002,15.3839 12.7002,13.7519 C12.7002,12.1209 14.0282,10.7949 15.6602,10.7949 C17.2922,10.7949 18.6192,12.1209 18.6192,13.7519 C18.6192,15.3839 17.2922,16.7119 15.6602,16.7119 M15.6602,8.7949 C12.9252,8.7949 10.7002,11.0189 10.7002,13.7519 C10.7002,16.4869 12.9252,18.7119 15.6602,18.7119 C18.3942,18.7119 20.6192,16.4869 20.6192,13.7519 C20.6192,11.0189 18.3942,8.7949 15.6602,8.7949" id="Fill-4" fill="#000000" fill-rule="nonzero"></path>
    </g>
</svg>