<?xml version="1.0" encoding="UTF-8"?>
<svg width="32px" height="32px" viewBox="0 0 32 32" version="1.1" xmlns="http://www.w3.org/2000/svg" xmlns:xlink="http://www.w3.org/1999/xlink">
    <title>icons/lock</title>
    <g id="icons/lock" stroke="none" stroke-width="1" fill="none" fill-rule="evenodd">
        <rect id="Rectangle" fill-rule="nonzero" x="0" y="0" width="32" height="32"></rect>
        <g id="Group-6" transform="translate(1.000000, 0.000000)" fill="#000000" fill-rule="nonzero">
            <path d="M27.7412,28.6934 C27.7412,29.4144 27.1552,30.0004 26.4342,30.0004 L3.3072,30.0004 C2.5872,30.0004 2.0002,29.4144 2.0002,28.6934 L2.0002,15.8934 C2.0002,15.1724 2.5872,14.5864 3.3072,14.5864 L26.4342,14.5864 C27.1552,14.5864 27.7412,15.1724 27.7412,15.8934 L27.7412,28.6934 Z M7.6232,9.5014 C7.6232,5.3654 10.8742,2.0004 14.8712,2.0004 C18.8672,2.0004 22.1182,5.3654 22.1182,9.5014 L22.1182,12.5864 L7.6232,12.5864 L7.6232,9.5014 Z M26.4342,12.5864 L24.1182,12.5864 L24.1182,9.5014 C24.1182,4.2624 19.9702,0.0004 14.8712,0.0004 C9.7712,0.0004 5.6232,4.2624 5.6232,9.5014 L5.6232,12.5864 L3.3072,12.5864 C1.4832,12.5864 0.0002,14.0694 0.0002,15.8934 L0.0002,28.6934 C0.0002,30.5164 1.4832,32.0004 3.3072,32.0004 L26.4342,32.0004 C28.2582,32.0004 29.7412,30.5164 29.7412,28.6934 L29.7412,15.8934 C29.7412,14.0694 28.2582,12.5864 26.4342,12.5864 L26.4342,12.5864 Z" id="Fill-1"></path>
            <polygon id="Fill-4" points="13.871 25.414 15.871 25.414 15.871 19.172 13.871 19.172"></polygon>
        </g>
    </g>
</svg>