<?xml version="1.0" encoding="UTF-8"?>
<svg width="32px" height="32px" viewBox="0 0 32 32" version="1.1" xmlns="http://www.w3.org/2000/svg" xmlns:xlink="http://www.w3.org/1999/xlink">
    <title>icons/meetup</title>
    <g id="icons/meetup" stroke="none" stroke-width="1" fill="none" fill-rule="evenodd">
        <rect id="Rectangle" fill-rule="nonzero" x="0" y="0" width="32" height="32"></rect>
        <path d="M28.6700029,4.25087134 C27.2836804,3.99280682 25.9035513,3.9639036 24.65039,4.78971005 C24.2354223,5.06429069 23.8349062,4.99822618 23.4736158,4.67925844 C23.1949062,4.43667779 22.9327126,4.17964553 22.662261,3.92983908 C21.382261,2.7479036 19.6934868,2.6911294 18.3205836,3.76880682 C17.766261,4.20235521 17.3007126,4.74325844 16.6999384,5.12106489 C16.1610997,5.45861327 15.6191642,5.55461327 15.0235513,5.23667779 C14.4558094,4.93422618 13.8694868,4.66893585 13.2831642,4.40261327 C12.6896158,4.13422618 12.1167126,3.8039036 11.4478094,3.7471294 C9.33684164,3.5675165 7.12574487,4.82274231 6.19361583,6.73035521 C5.78071261,7.57474231 5.44316422,8.4511294 5.12316422,9.33474231 C3.64497067,13.4162907 2.44135777,17.5845488 1.19542229,21.7383552 C0.638002931,23.5964197 1.29658358,25.4266133 2.87077712,26.4310004 C4.09916422,27.2144842 5.44522874,27.4075165 6.83671261,26.9884197 C7.96497067,26.6498391 8.58122874,25.7424842 9.01477712,24.7236455 C10.4496158,21.3388713 11.7399384,17.8993875 13.1087126,14.4867423 C13.4844545,13.5473875 13.8488416,12.6059681 14.2483255,11.6790004 C14.6509062,10.7396455 15.810132,10.4196455 16.4986481,11.0431294 C16.9167126,11.4250649 17.0281965,11.9288068 16.9869062,12.4676455 C16.9414868,13.04571 16.7185191,13.5783552 16.5079384,14.1089359 C15.6201965,16.3592584 14.7128416,18.601323 13.8189062,20.8506133 C13.638261,21.3037746 13.4431642,21.7548713 13.3626481,22.2431294 C13.22639,23.0792584 13.5587771,23.8224842 14.2431642,24.1187423 C14.9420029,24.4201617 15.6676804,24.4686778 16.3933578,24.2075165 C17.2356804,23.9019681 17.7394223,23.2402907 18.1275513,22.477452 C19.4612287,19.8586133 20.7856158,17.2315165 22.1192933,14.6116455 C22.7345191,13.4008068 23.362132,12.1961617 23.9907771,10.993581 C24.2240674,10.5476455 24.4986481,10.1264842 24.9352933,9.84777456 C25.3296158,9.59796811 25.7549062,9.57938747 26.1585191,9.80648424 C26.5528416,10.0273875 26.5796804,10.4310004 26.5631642,10.8284197 C26.5528416,11.0451939 26.4940029,11.2516455 26.4124545,11.4519036 C26.2400674,11.8648068 26.0780029,12.2859681 25.8860029,12.6906133 C24.7773578,15.0235165 23.6511642,17.3481617 22.5518094,19.6862262 C22.0893578,20.6720326 21.606261,21.6650649 21.6640674,22.7024842 C21.6640674,25.0983552 23.2052287,27.2186133 25.3874223,27.9370649 C26.4816158,28.2983552 27.6088416,28.46971 28.7546481,28.5192584 C29.5721965,28.5553875 30.3887126,28.4986133 31.1432933,28.1218391 C31.7358094,27.8245488 32.0155513,27.3342262 31.9897449,26.6818391 C31.9618739,26.025323 31.6676804,25.5350004 31.0400674,25.2728068 C30.8212287,25.1819681 30.5992933,25.1086778 30.3670352,25.0673875 C29.6754223,24.9424842 28.9776158,24.8392584 28.2880674,24.7030004 C27.1494868,24.4759036 26.6725836,23.8740971 26.6570997,22.7231294 C26.6436804,21.705323 26.9203255,20.7442907 27.2330997,19.7946133 C27.8060029,18.0562907 28.5791642,16.3984842 29.318261,14.7262262 C30.0346481,13.1138391 30.7840674,11.5128068 31.2898739,9.81267779 C31.5685836,8.88054876 31.6996804,7.94429069 31.4467771,6.9791294 C31.0627771,5.51538747 30.1843255,4.53267779 28.6700029,4.25087134" id="Fill-1" fill="#000000" fill-rule="nonzero"></path>
    </g>
</svg>