<?xml version="1.0" encoding="UTF-8"?>
<svg width="32px" height="32px" viewBox="0 0 32 32" version="1.1" xmlns="http://www.w3.org/2000/svg" xmlns:xlink="http://www.w3.org/1999/xlink">
    <title>icons/search</title>
    <g id="icons/search" stroke="none" stroke-width="1" fill="none" fill-rule="evenodd">
        <rect id="Rectangle" fill-rule="nonzero" x="0" y="0" width="32" height="32"></rect>
        <path d="M5.6338,23.17 C3.2908,20.827 1.9998,17.712 1.9998,14.398 C1.9998,11.085 3.2908,7.97 5.6338,5.627 C8.0518,3.208 11.2288,1.999 14.4058,1.999 C17.5818,1.999 20.7588,3.208 23.1768,5.627 C28.0138,10.463 28.0138,18.333 23.1768,23.17 C18.3408,28.007 10.4708,28.007 5.6338,23.17 L5.6338,23.17 Z M31.8568,30.435 L25.2628,23.841 C30.1838,18.189 29.9688,9.59 24.5918,4.212 C18.9748,-1.404 9.8358,-1.405 4.2198,4.212 C1.4988,6.933 -0.0002,10.55 -0.0002,14.398 C-0.0002,18.246 1.4988,21.863 4.2198,24.584 C7.0278,27.392 10.7168,28.796 14.4048,28.796 C17.7808,28.796 21.1478,27.607 23.8488,25.255 L30.4428,31.849 L31.8568,30.435 Z" id="Search" fill="#000000" fill-rule="nonzero"></path>
    </g>
</svg>