<?xml version="1.0" encoding="UTF-8"?>
<svg width="32px" height="32px" viewBox="0 0 32 32" version="1.1" xmlns="http://www.w3.org/2000/svg" xmlns:xlink="http://www.w3.org/1999/xlink">
    <title>icons/smile</title>
    <g id="icons/smile" stroke="none" stroke-width="1" fill="none" fill-rule="evenodd">
        <rect id="Rectangle" fill-rule="nonzero" x="0" y="0" width="32" height="32"></rect>
        <g id="Group-9" fill="#000000" fill-rule="nonzero">
            <path d="M16,24.8354 C13.061,24.8354 10.322,23.3794 8.675,20.9404 C8.365,20.4824 8.485,19.8614 8.943,19.5524 C9.399,19.2424 10.023,19.3644 10.331,19.8204 C11.607,21.7084 13.726,22.8354 16,22.8354 C18.276,22.8354 20.397,21.7064 21.673,19.8154 C21.981,19.3564 22.602,19.2364 23.062,19.5454 C23.519,19.8544 23.64,20.4754 23.331,20.9334 C21.684,23.3774 18.942,24.8354 16,24.8354" id="Fill-1"></path>
            <path d="M11.7617,13.8477 C11.7617,14.8327 10.9627,15.6317 9.9777,15.6317 C8.9917,15.6317 8.1937,14.8327 8.1937,13.8477 C8.1937,12.8627 8.9917,12.0637 9.9777,12.0637 C10.9627,12.0637 11.7617,12.8627 11.7617,13.8477" id="Fill-3"></path>
            <path d="M23.8076,13.8477 C23.8076,14.8327 23.0086,15.6317 22.0236,15.6317 C21.0376,15.6317 20.2396,14.8327 20.2396,13.8477 C20.2396,12.8627 21.0376,12.0637 22.0236,12.0637 C23.0086,12.0637 23.8076,12.8627 23.8076,13.8477" id="Fill-5"></path>
            <path d="M16,2 C8.28,2 2,8.28 2,16 C2,23.72 8.28,30 16,30 C23.72,30 30,23.72 30,16 C30,8.28 23.72,2 16,2 M16,32 C7.178,32 0,24.822 0,16 C0,7.178 7.178,0 16,0 C24.822,0 32,7.178 32,16 C32,24.822 24.822,32 16,32" id="Fill-7"></path>
        </g>
    </g>
</svg>