<?xml version="1.0" encoding="UTF-8"?>
<svg width="32px" height="32px" viewBox="0 0 32 32" version="1.1" xmlns="http://www.w3.org/2000/svg" xmlns:xlink="http://www.w3.org/1999/xlink">
    <title>icons/star</title>
    <g id="icons/star" stroke="none" stroke-width="1" fill="none" fill-rule="evenodd">
        <rect id="Rectangle" fill-rule="nonzero" x="0" y="0" width="32" height="32"></rect>
        <path d="M1.8989625,12.5521113 L1.9009625,12.5531113 C1.8999625,12.5531113 1.8999625,12.5521113 1.8989625,12.5521113 L1.8989625,12.5521113 Z M30.0989625,12.5541113 C30.0979625,12.5551113 30.0969625,12.5551113 30.0969625,12.5561113 L30.0989625,12.5541113 Z M1.7539625,13.0751113 L1.7529625,13.0751113 L1.7539625,13.0751113 Z M16.0009625,23.8921113 L24.4309625,28.5521113 L22.4729625,19.3211113 L29.5919625,13.0041113 L20.0119625,11.9601113 L16.0009625,3.36411134 L11.9889625,11.9601113 L2.4089625,13.0041113 L9.5279625,19.3211113 L7.5789625,28.5481113 L16.0009625,23.8921113 Z M7.0519625,28.8391113 C7.0519625,28.8391113 7.0509625,28.8391113 7.0499625,28.8401113 L7.0519625,28.8391113 Z M7.4489625,29.1621113 L7.4489625,29.1641113 C7.4489625,29.1641113 7.4489625,29.1631113 7.4489625,29.1621113 L7.4489625,29.1621113 Z M7.1779625,30.8061113 C7.0629625,30.8061113 6.9459625,30.7951113 6.8309625,30.7711113 C6.3729625,30.6771113 5.9819625,30.4131113 5.7299625,30.0261113 C5.4819625,29.6451113 5.3969625,29.1911113 5.4929625,28.7471113 L7.3309625,20.0461113 L0.574962499,14.0511113 C0.259962499,13.7741113 0.0589624988,13.3891113 0.0109624988,12.9721113 C-0.0400375012,12.5211113 0.0879624988,12.0781113 0.372962499,11.7231113 C0.661962499,11.3621113 1.0759625,11.1361113 1.5389625,11.0871113 L10.6529625,10.0941113 L14.4379625,1.98411134 C14.6159625,1.61011134 14.9169625,1.31811134 15.2869625,1.15211134 C16.1379625,0.768111345 17.1589625,1.13611134 17.5599625,1.97511134 L21.3479625,10.0941113 L30.4639625,11.0871113 C30.8779625,11.1321113 31.2629625,11.3241113 31.5449625,11.6271113 C31.8599625,11.9661113 32.0209625,12.4061113 31.9979625,12.8651113 C31.9749625,13.3251113 31.7709625,13.7471113 31.4229625,14.0531113 L24.6699625,20.0461113 L26.5089625,28.7511113 C26.5349625,28.8701113 26.5469625,28.9951113 26.5459625,29.1201113 C26.5319625,30.0641113 25.7709625,30.8091113 24.8019625,30.8041113 C24.5159625,30.8011113 24.2319625,30.7271113 23.9809625,30.5891113 L16.0009625,26.1771113 L8.0219625,30.5881113 C7.7649625,30.7321113 7.4729625,30.8061113 7.1779625,30.8061113 L7.1779625,30.8061113 Z" id="Fill-1" fill="#000000" fill-rule="nonzero"></path>
    </g>
</svg>