<?xml version="1.0" encoding="UTF-8"?>
<svg width="32px" height="32px" viewBox="0 0 32 32" version="1.1" xmlns="http://www.w3.org/2000/svg" xmlns:xlink="http://www.w3.org/1999/xlink">
    <title>icons/star-fill</title>
    <defs>
        <polygon id="path-1" points="0 0.0003 31.9996969 0.0003 31.9996969 29.6610826 0 29.6610826"></polygon>
    </defs>
    <g id="icons/star-fill" stroke="none" stroke-width="1" fill="none" fill-rule="evenodd">
        <rect id="Rectangle" fill-rule="nonzero" x="0" y="0" width="32" height="32"></rect>
        <g id="Group-3" transform="translate(0.000000, 1.000000)">
            <mask id="mask-2" fill="white">
                <use xlink:href="#path-1"></use>
            </mask>
            <g id="Clip-2"></g>
            <path d="M25.399,29.659 C25.825,29.665 26.175,29.334 26.182,28.919 C26.182,28.865 26.177,28.81 26.166,28.756 L24.076,18.864 L31.746,12.058 C32.062,11.78 32.086,11.305 31.8,10.997 C31.673,10.861 31.501,10.775 31.313,10.755 L20.991,9.631 L16.701,0.435 C16.521,0.059 16.062,-0.105 15.675,0.07 C15.509,0.144 15.377,0.274 15.299,0.435 L11.008,9.631 L0.687,10.755 C0.263,10.8 -0.042,11.171 0.004,11.583 C0.025,11.766 0.114,11.934 0.253,12.057 L7.924,18.864 L5.835,28.756 C5.747,29.162 6.014,29.56 6.431,29.645 C6.617,29.683 6.809,29.653 6.973,29.562 L16,24.572 L25.026,29.562 C25.14,29.624 25.268,29.658 25.399,29.659" id="Fill-1" fill="#000000" mask="url(#mask-2)"></path>
        </g>
    </g>
</svg>