<?xml version="1.0" encoding="UTF-8"?>
<svg width="23px" height="24px" viewBox="0 0 23 24" version="1.1" xmlns="http://www.w3.org/2000/svg" xmlns:xlink="http://www.w3.org/1999/xlink">
    <title>taller-veganista-mascot-fill</title>
    <g id="taller-veganista-mascot-fill" stroke="none" stroke-width="1" fill="none" fill-rule="evenodd">
        <path d="M21.85662,15.86442 C21.58842,15.38982 21.17082,15.04182 20.73822,14.72322 C20.85162,14.69262 20.93562,14.57262 20.86302,14.42622 C20.44242,13.57662 19.86642,12.85422 19.16262,12.24642 C19.33242,12.22362 19.41102,11.96622 19.28982,11.83122 C18.70122,11.17962 17.88462,10.59102 17.00082,10.26402 C17.73222,8.80782 18.07242,7.21242 17.99922,5.57922 C17.95602,4.62522 17.83002,3.64062 18.23742,2.74242 C18.52002,2.11902 18.95862,1.52502 18.95922,0.81162 C18.95922,0.23622 18.55662,-0.15078 17.98062,0.05682 C17.35362,0.28302 16.78422,0.92982 16.32402,1.39062 C15.27762,2.43642 14.39922,3.65442 13.73202,4.97502 C13.00062,6.42282 12.52122,7.96422 12.40422,9.58062 C12.22362,9.64662 12.04722,9.72462 11.87562,9.81162 C11.89782,9.75942 11.91942,9.70722 11.94162,9.65442 C12.01182,9.48582 11.79522,9.38802 11.66802,9.44502 C11.07342,9.70782 10.58862,10.09962 10.22082,10.61442 C9.22242,7.07922 6.80802,3.91722 3.20982,2.73942 C2.76222,2.59302 2.30382,2.48142 1.83822,2.41002 C1.41702,2.34522 0.83862,2.20962 0.42642,2.36022 C0.10242,2.47842 -0.03858,2.78562 0.00882,3.11502 C0.07482,3.56742 0.50802,3.84522 0.75222,4.19922 C1.36182,5.08422 1.50342,6.20502 1.76742,7.22262 C2.02722,8.22462 2.43042,9.18522 2.98242,10.06122 C4.03242,11.72682 5.62842,12.89442 7.02522,14.25102 C7.03482,15.06822 7.10082,15.88662 7.04262,16.70322 C6.97962,17.59482 6.74622,18.42522 6.35982,19.22802 C6.28002,19.39482 6.41442,19.63182 6.61842,19.56462 C6.70302,19.53642 6.78642,19.50762 6.87042,19.47882 C6.50202,20.15502 6.46722,20.95062 6.75582,21.68202 C6.82662,21.86142 7.10142,21.89742 7.15722,21.68202 C7.17342,21.62142 7.19442,21.56742 7.21902,21.51522 C7.36782,21.89802 7.64262,22.21602 8.01042,22.43982 C8.14302,22.52022 8.30682,22.41582 8.31042,22.26822 C8.31222,22.17942 8.31402,22.08822 8.29962,22.00242 C9.91242,23.11242 11.84382,23.73642 13.78062,23.94882 C15.14922,24.09882 17.18502,23.98302 18.04662,22.72722 C18.07062,22.72602 18.09522,22.71942 18.11982,22.70742 C18.64422,22.46502 19.10802,21.97842 19.52202,21.58362 C19.97802,21.14862 20.42742,20.69862 20.84502,20.22702 C21.42882,19.56882 21.90402,18.79962 21.88722,17.94282 C21.98442,18.00402 22.13022,17.98842 22.15302,17.84682 C22.25622,17.19222 22.18722,16.45002 21.85662,15.86442" id="mascot-fill" fill="#000000"></path>
    </g>
</svg>