<?xml version="1.0" encoding="UTF-8"?>
<svg width="32px" height="32px" viewBox="0 0 32 32" version="1.1" xmlns="http://www.w3.org/2000/svg" xmlns:xlink="http://www.w3.org/1999/xlink">
    <title>icons/telegram</title>
    <g id="icons/telegram" stroke="none" stroke-width="1" fill="none" fill-rule="evenodd">
        <rect id="Rectangle" fill-rule="nonzero" x="0" y="0" width="32" height="32"></rect>
        <g id="telegram" transform="translate(0.000000, 2.000000)" fill="#000000" fill-rule="nonzero">
            <path d="M29.6871256,0.304979805 L1.23622758,11.4829787 C1.23622758,11.4829787 -0.112841246,11.9406985 0.00761132855,12.7838665 C0.103973388,13.6270345 1.21213707,14.0124827 1.21213707,14.0124827 L8.36701997,16.4215342 L25.543557,5.50853101 C25.543557,5.50853101 26.5312681,4.90626813 26.5071776,5.50853101 C26.5071776,5.50853101 26.6758112,5.60489306 26.1458199,6.11079388 C25.6881001,6.54442314 15.3773598,15.7951808 12.4624075,18.3969564 L12.6069506,18.469228 L24.2908503,27.4308995 C26.242182,28.2740675 26.9408069,26.5154599 26.9408069,26.5154599 L32,0.955423705 C32.0239055,-0.706821818 29.6871256,0.304979805 29.6871256,0.304979805 Z"></path>
        </g>
    </g>
</svg>