<?xml version="1.0" encoding="UTF-8"?>
<svg width="32px" height="32px" viewBox="0 0 32 32" version="1.1" xmlns="http://www.w3.org/2000/svg" xmlns:xlink="http://www.w3.org/1999/xlink">
    <title>icons/twitter</title>
    <g id="icons/twitter" stroke="none" stroke-width="1" fill="none" fill-rule="evenodd">
        <rect id="Rectangle" fill-rule="nonzero" x="0" y="0" width="32" height="32"></rect>
        <path d="M1.95399252e-14,26.5177522 C0.513610593,26.5795974 1.03623395,26.6112363 1.56611434,26.6112363 C4.64192545,26.6112363 7.47275321,25.5406466 9.71962398,23.7446301 C6.84677567,23.6905454 4.42222466,21.7544818 3.58684663,19.0939465 C3.98762208,19.1721484 4.39893193,19.214055 4.82194667,19.214055 C5.42076886,19.214055 6.00074619,19.1322714 6.55169538,18.9792106 C3.54822049,18.3641021 1.28531402,15.6574814 1.28531402,12.4128795 C1.28531402,12.3847029 1.28531402,12.3566458 1.28578222,12.328708 C2.17102308,12.8302745 3.18326201,13.131501 4.25952668,13.1662441 C2.49794067,11.9653976 1.33880537,9.91567264 1.33880537,7.59242021 C1.33880537,6.36518799 1.66256264,5.21484433 2.22767475,4.22579951 C5.46571564,8.27725375 10.3032298,10.9432811 15.7595816,11.2225394 C15.6476828,10.7324345 15.5895095,10.2213166 15.5895095,9.6964686 C15.5895095,5.99829582 18.5290757,3 22.1548996,3 C24.0431325,3 25.7493544,3.81329953 26.9469988,5.11479369 C28.4424156,4.81440296 29.8474706,4.25708026 31.1159296,3.48974672 C30.6257288,5.05342611 29.5848129,6.36578495 28.2292695,7.19460546 C29.5573064,7.03270967 30.8226051,6.67274224 32,6.14013373 C31.1197922,7.48305697 30.0066572,8.66253232 28.7240353,9.60668568 C28.7366765,9.89382387 28.7429972,10.1826336 28.7429972,10.4729953 C28.7429972,19.3222243 22.1395662,29.5263158 10.0638648,29.5263158 C6.35634076,29.5263158 2.90538791,28.4177594 1.95399252e-14,26.5177522 Z" id="twitter" fill="#000000" fill-rule="nonzero"></path>
    </g>
</svg>