<?xml version="1.0" encoding="UTF-8"?>
<svg width="32px" height="32px" viewBox="0 0 32 32" version="1.1" xmlns="http://www.w3.org/2000/svg" xmlns:xlink="http://www.w3.org/1999/xlink">
    <title>icons/user</title>
    <g id="icons/user" stroke="none" stroke-width="1" fill="none" fill-rule="evenodd">
        <rect id="Rectangle" fill-rule="nonzero" x="0" y="0" width="32" height="32"></rect>
        <path d="M26.7871,30 L5.0001,30 L5.0001,24.722 C5.0001,20.985 6.9301,17.546 10.0571,15.552 C11.6191,16.92 13.6581,17.757 15.8931,17.757 C18.1291,17.757 20.1681,16.92 21.7311,15.552 C24.8571,17.546 26.7871,20.985 26.7871,24.722 L26.7871,30 Z M15.8931,2 C19.6861,2 22.7721,5.086 22.7721,8.879 C22.7721,12.672 19.6861,15.757 15.8931,15.757 C12.1001,15.757 9.0161,12.672 9.0161,8.879 C9.0161,5.086 12.1001,2 15.8931,2 L15.8931,2 Z M23.1041,14.04 C24.1491,12.583 24.7721,10.804 24.7721,8.879 C24.7721,3.983 20.7891,0 15.8931,0 C10.9981,0 7.0161,3.983 7.0161,8.879 C7.0161,10.804 7.6391,12.583 8.6831,14.04 C5.1531,16.425 3.0001,20.414 3.0001,24.722 L3.0001,32 L28.7871,32 L28.7871,24.722 C28.7871,20.415 26.6341,16.424 23.1041,14.04 L23.1041,14.04 Z" id="user" fill="#000000" fill-rule="nonzero"></path>
    </g>
</svg>