<?xml version="1.0" encoding="UTF-8"?>
<svg width="32px" height="32px" viewBox="0 0 32 32" version="1.1" xmlns="http://www.w3.org/2000/svg" xmlns:xlink="http://www.w3.org/1999/xlink">
    <title>icons/vimeo</title>
    <g id="icons/vimeo" stroke="none" stroke-width="1" fill="none" fill-rule="evenodd">
        <rect id="Rectangle" fill-rule="nonzero" x="0" y="0" width="32" height="32"></rect>
        <path d="M31.9843328,8.38834144 C31.8409247,11.4959303 29.6655849,15.7509217 25.4584238,21.1533709 C21.1077718,26.7948335 17.4264403,29.6155786 14.4144844,29.6155786 C12.5499035,29.6155786 10.9722492,27.8944609 9.68135572,24.4521981 L7.09967927,14.9859958 C6.14348747,11.5437606 5.11557783,9.82261533 4.01597796,9.82261533 C3.77693692,9.82261533 2.94026563,10.3246126 1.50596412,11.3286071 L0,9.39233593 C1.56435992,8.01776017 3.11819965,6.63125774 4.66138327,5.2329499 C6.76497762,3.41619928 8.34268719,2.4600351 9.39448437,2.36440211 C11.8805554,2.12536106 13.4104347,3.82259116 13.9841498,7.45606478 C14.6056676,11.3764098 15.035947,13.8146781 15.2749604,14.77087 C15.9921112,18.0218945 16.7809521,19.6474067 17.641511,19.6474067 C18.3108314,19.6474067 19.3148535,18.5956096 20.6534944,16.4920152 C21.992163,14.3883932 22.7092861,12.7867961 22.8048915,11.6871963 C22.9961298,9.87044564 22.2790067,8.96208413 20.6534944,8.96208413 C19.888541,8.96208413 19.0996724,9.12943496 18.2869439,9.46408138 C19.8646535,4.34850355 22.8766369,1.86243248 27.3228943,2.00586815 C30.6217215,2.10150114 32.1755435,4.22901065 31.9842776,8.38839667 L31.9843328,8.38834144 Z" fill="#000000" fill-rule="nonzero"></path>
    </g>
</svg>