<?xml version="1.0" encoding="UTF-8"?>
<svg width="32px" height="32px" viewBox="0 0 32 32" version="1.1" xmlns="http://www.w3.org/2000/svg" xmlns:xlink="http://www.w3.org/1999/xlink">
    <title>icons/warning</title>
    <g id="icons/warning" stroke="none" stroke-width="1" fill="none" fill-rule="evenodd">
        <rect id="Rectangle" fill-rule="nonzero" x="0" y="0" width="32" height="32"></rect>
        <g id="warning" transform="translate(0.000000, 2.000000)" fill="#000000" fill-rule="nonzero">
            <path d="M2.7327,25.9448 L16.0007,2.9648 L29.2677,25.9448 L2.7327,25.9448 Z M31.8667,26.4448 L16.8667,0.4648 C16.5087,-0.1552 15.4917,-0.1552 15.1337,0.4648 L0.1337,26.4448 C-0.0443,26.7548 -0.0443,27.1348 0.1337,27.4448 C0.3127,27.7548 0.6427,27.9448 1.0007,27.9448 L31.0007,27.9448 C31.3577,27.9448 31.6877,27.7548 31.8667,27.4448 C32.0447,27.1348 32.0447,26.7548 31.8667,26.4448 L31.8667,26.4448 Z" id="Fill-1"></path>
            <polygon id="Fill-4" points="14.959 18.3558 16.959 18.3558 16.959 11.2518 14.959 11.2518"></polygon>
            <path d="M14.6409,21.2983 C14.6409,22.0493 15.2489,22.6573 15.9999,22.6573 C16.7509,22.6573 17.3599,22.0493 17.3599,21.2983 C17.3599,20.5483 16.7509,19.9393 15.9999,19.9393 C15.2489,19.9393 14.6409,20.5483 14.6409,21.2983" id="Fill-6"></path>
        </g>
    </g>
</svg>